<?xml version="1.0" encoding="UTF-8"?>
<svg id="_圖層_1" data-name="圖層_1" xmlns="http://www.w3.org/2000/svg" version="1.1" viewBox="0 0 154 351">
  <!-- Generator: Adobe Illustrator 29.8.3, SVG Export Plug-In . SVG Version: 2.1.1 Build 3)  -->
  <defs>
    <style>
      .st0 {
        fill: #7dbeb1;
        stroke: #ebede7;
        stroke-miterlimit: 10;
      }

      .st1 {
        fill: #077383;
      }
    </style>
  </defs>
  <path class="st1" d="M152.81,284.6c.03-.24.04-.48.04-.71,0-1.46-.71-3.53-2.13-6.19.01-.09.04-.19.04-.27-.06-.17-.1-.34-.16-.51.1-.32.16-.61.16-.85-.06-.17-.1-.34-.16-.51.1-.32.16-.61.16-.85-.06-.17-.1-.34-.16-.51.1-.32.16-.61.16-.85-.06-.17-.1-.34-.16-.51.1-.32.16-.61.16-.85-.06-.17-.1-.34-.16-.51.1-.32.16-.61.16-.85-.06-.17-.1-.34-.16-.51.1-.32.16-.61.16-.85-.06-.17-.1-.34-.16-.51.1-.32.16-.61.16-.85-.06-.17-.1-.34-.16-.51.1-.32.16-.61.16-.85-.06-.17-.1-.34-.16-.51.1-.32.16-.61.16-.85-.06-.17-.1-.34-.16-.51.1-.32.16-.61.16-.85-.06-.17-.1-.34-.16-.51.1-.32.16-.61.16-.85-1.24-3.71-2.11-7.3-2.66-10.79.31-1.95.73-4.11,1.26-6.49,1.28-5.12,1.92-7.91,1.92-8.38,0-.3-.03-.63-.05-.95.03-.19.05-.34.05-.41,0-.3-.03-.63-.05-.95.03-.19.05-.34.05-.41,0-.3-.03-.63-.05-.95.03-.19.05-.34.05-.41,0-.3-.03-.63-.05-.95.03-.19.05-.34.05-.41,0-.3-.03-.63-.05-.95.03-.19.05-.34.05-.41,0-.3-.03-.63-.05-.95.03-.19.05-.34.05-.41,0-.3-.03-.63-.05-.95.03-.19.05-.34.05-.41,0-.3-.03-.63-.05-.95.03-.19.05-.34.05-.41,0-.3-.03-.63-.05-.95.03-.19.05-.34.05-.41,0-.3-.03-.63-.05-.95.03-.19.05-.34.05-.41,0-.3-.03-.63-.05-.95.03-.19.05-.34.05-.41,0-1-.12-2.11-.35-3.32-1.63,1.98-3.43,2.97-5.41,2.97-.81,0-4.36-1.74-10.64-5.23-6.4-3.61-10-5.47-10.82-5.58-2.09-.47-3.32-2.91-3.66-7.33-.18-3.2-1.42-5.09-3.69-5.7,0-.17-.02-.34-.03-.5.03-.13.06-.27.06-.42,0-.32-.03-.63-.06-.95.03-.13.06-.27.06-.42,0-.32-.03-.63-.06-.95.03-.13.06-.27.06-.42,0-.32-.03-.63-.06-.95.03-.13.06-.27.06-.42,0-.32-.03-.63-.06-.95.03-.13.06-.27.06-.42,0-.32-.03-.63-.06-.95.03-.13.06-.27.06-.42,0-4.07-1.92-7.62-5.76-10.64-.38-.29-.72-.57-1.06-.84.49-.42,1.02-.85,1.59-1.26,4.19-2.44,6.28-3.84,6.28-4.19,0-.12-.17-.41-.47-.84.31-.25.47-.43.47-.52,0-.12-.17-.41-.47-.84.31-.25.47-.43.47-.52,0-.12-.17-.41-.47-.84.31-.25.47-.43.47-.52,0-.12-.17-.41-.47-.84.31-.25.47-.43.47-.52,0-.12-.17-.41-.47-.84.31-.25.47-.43.47-.52,0-.12-.17-.41-.47-.84.31-.25.47-.43.47-.52,0-.12-.17-.41-.47-.84.31-.25.47-.43.47-.52,0-.12-.17-.41-.47-.84.31-.25.47-.43.47-.52,0-.12-.17-.41-.47-.84.31-.25.47-.43.47-.52,0-.12-.17-.41-.47-.84.31-.25.47-.43.47-.52,0-.12-.17-.41-.47-.84.31-.25.47-.43.47-.52,0-.47-2.21-3.14-6.63-8.03-.16-.18-.3-.34-.46-.52.18-.72.29-1.53.29-2.45,0-.25-.02-.49-.03-.73.01-.21.03-.41.03-.63,0-.25-.02-.49-.03-.73.01-.21.03-.41.03-.63,0-.25-.02-.49-.03-.73.01-.21.03-.41.03-.63,0-.25-.02-.49-.03-.73.01-.21.03-.41.03-.63,0-.25-.02-.49-.03-.73.01-.21.03-.41.03-.63,0-.25-.02-.49-.03-.73.01-.21.03-.41.03-.63,0-.25-.02-.49-.03-.73.01-.21.03-.41.03-.63,0-.25-.02-.49-.03-.73.01-.21.03-.41.03-.63,0-.25-.02-.49-.03-.73.01-.21.03-.41.03-.63,0-.25-.02-.49-.03-.73.01-.21.03-.41.03-.63,0-.25-.02-.49-.03-.73.01-.21.03-.41.03-.63,0-4.54-1.34-7.97-4.01-10.3-.98-.81-1.77-1.63-2.41-2.44,1.42-4.29,3.67-10.28,6.77-17.98.7-1.86,2.15-4.77,4.36-8.72,1.4-2.79,2.5-4.83,3.32-6.11.93-2.09,4.3-3.9,10.12-5.41,3.92-1.08,5.64-2.78,5.19-5.09.09-.43.09-.88,0-1.36.01-.05.03-.1.04-.15,1.28-.34,3.43-.82,6.47-1.43,3.14-1.05,5.12-2.91,5.93-5.58.23-.93,1.05-2.56,2.44-4.89,1.4-2.21,2.15-3.72,2.27-4.54.12-7.21.17-11.11.17-11.69,0-.05-.01-.09-.01-.13,0-.65.01-1.07.01-1.23,0-.05-.01-.09-.01-.13,0-.65.01-1.07.01-1.23,0-.05-.01-.09-.01-.13,0-.65.01-1.07.01-1.23,0-.05-.01-.09-.01-.13,0-.65.01-1.07.01-1.23,0-.05-.01-.09-.01-.13,0-.65.01-1.07.01-1.23,0-.05-.01-.09-.01-.13,0-.65.01-1.07.01-1.23,0-.05-.01-.09-.01-.13,0-.65.01-1.07.01-1.23,0-.05-.01-.09-.01-.13,0-.65.01-1.07.01-1.23,0-.05-.01-.09-.01-.13,0-.65.01-1.07.01-1.23,0-.05-.01-.09-.01-.13,0-.65.01-1.07.01-1.23,0-.05-.01-.09-.01-.13,0-.65.01-1.07.01-1.23,0-1.74-1.34-3.2-4.01-4.36-3.26-1.05-5.58-1.86-6.98-2.44-.81-.35-1.39-.9-1.74-1.65,0-.07,0-.15,0-.22,0-.48,0-.93,0-1.36,0-.48,0-.93,0-1.36,0-.48,0-.93,0-1.36,0-.48,0-.93,0-1.36,0-.48,0-.93,0-1.36,0-.48,0-.93,0-1.36.01-.64.01-1.25,0-1.81-1.52-.13-3.38-.6-5.58-1.4-2.44-1.05-4.07-1.57-4.89-1.57-4.3,0-6.69,1.8-7.15,5.41-.58,3.49-1.8,5.23-3.66,5.23-.12,0-2.85-2.91-8.2-8.72-5.35-5.82-10.7-8.72-16.05-8.72-.93,0-2.68,1.22-5.23,3.66-2.44,2.44-4.89,3.66-7.33,3.66-1.36,0-2.35-.17-2.99-.5,0-.17-.01-.34-.03-.5.03-.2.04-.36.04-.49,0-.31-.02-.59-.04-.87.03-.2.04-.36.04-.49,0-.31-.02-.59-.04-.87.03-.2.04-.36.04-.49,0-.31-.02-.59-.04-.87.03-.2.04-.36.04-.49,0-3.02-1.16-4.54-3.49-4.54-2.68,1.05-5.41,2.21-8.2,3.49-5.7,2.56-9.02,4.3-9.95,5.23-.23.23-1.16,2.44-2.79,6.63-1.16,3.02-3.32,4.54-6.46,4.54-.12,0-.58-.23-1.4-.7-.81-.47-1.69-.7-2.62-.7-1.05,0-2.62.35-4.71,1.05-2.21.7-4.19,1.05-5.93,1.05s-3.32-.7-4.71-2.09c-1.28-1.4-2.5-2.09-3.66-2.09-1.87.01-3.44,1.35-4.71,4.01-1.13,2.76-2.24,6.25-3.32,10.47-1.08,4.34-2.24,7.71-3.49,10.12-.58,1.23-.82,2.71-.73,4.45-.02.44-.03.89,0,1.36-.02.44-.03.89,0,1.36-.02.44-.03.89,0,1.36-.02.44-.03.89,0,1.36-.02.44-.03.89,0,1.36-.02.44-.03.89,0,1.36-.02.44-.03.89,0,1.36-.02.33-.02.68,0,1.04-.66,1.43-1.57,2.99-2.75,4.69-2.79,3.84-4.19,7.21-4.19,10.12,0,.31.01.61.03.91,0,.15-.03.3-.03.45,0,.31.01.61.03.92,0,.15-.03.3-.03.45,0,.31.01.61.03.92,0,.15-.03.3-.03.45,0,.31.01.61.03.92,0,.15-.03.3-.03.45,0,.31.01.61.03.91,0,.15-.03.3-.03.45,0,.31.01.61.03.91,0,.15-.03.3-.03.45,0,.31.01.61.03.92,0,.15-.03.3-.03.45,0,.31.01.61.03.92,0,.15-.03.3-.03.45,0,.31.01.61.03.92,0,.15-.03.3-.03.45,0,.31.01.61.03.91,0,.15-.03.3-.03.45,0,.31.01.61.03.92,0,.15-.03.3-.03.45,0,2.87.55,5.19,1.65,6.97-.28.89-.43,1.48-.43,1.76,0,.2.04.47.09.77-.06.26-.09.46-.09.59,0,.2.04.47.09.77-.06.26-.09.46-.09.59,0,.2.04.47.09.77-.06.26-.09.46-.09.59,0,.2.04.47.09.77-.06.26-.09.46-.09.59,0,.2.04.47.09.77-.06.26-.09.46-.09.59,0,.2.04.47.09.77-.06.26-.09.46-.09.59,0,.2.04.47.09.77-.06.26-.09.46-.09.59,0,.2.04.47.09.77-.06.26-.09.46-.09.59,0,.2.04.47.09.77-.06.26-.09.46-.09.59,0,.2.04.47.09.77-.06.26-.09.46-.09.59,0,.2.04.47.09.77-.06.26-.09.46-.09.59,0,.58.23,1.57.7,2.97.17.55.29,1.03.4,1.48-.67,1.8-1.6,3.75-2.84,5.85C1.4,124.53,0,128.37,0,131.39c0,.19.01.42.04.68-.01.23-.04.46-.04.68,0,.19.01.42.04.68-.01.23-.04.46-.04.68,0,.19.01.42.04.68-.01.23-.04.46-.04.68,0,.19.01.42.04.68-.01.23-.04.46-.04.68,0,.19.01.42.04.68-.01.23-.04.46-.04.68,0,.19.01.42.04.68-.01.23-.04.46-.04.68,0,.19.01.42.04.68-.01.23-.04.46-.04.68,0,.19.01.42.04.68-.01.23-.04.46-.04.68,0,.19.01.42.04.68-.01.23-.04.46-.04.68,0,.19.01.42.04.68-.01.23-.04.46-.04.68,0,.19.01.42.04.68-.01.23-.04.46-.04.68,0,.93.29,2.79.87,5.58.19.92.31,1.73.35,2.44.92.15,1.91.33,2.97.52,3.72.7,6.22,2.33,7.5,4.89.35.7.64,1.92.87,3.66.35,1.51,1.22,2.68,2.62,3.49.47.23,2.21.93,5.23,2.09,1.79.65,3.3,1.29,4.54,1.92.59.38,1.11.73,1.57,1.05,13.73,8.03,22.39,14.48,26,19.37,1.98,2.56,4.25,5.76,6.81,9.6,3.14,2.79,6.11,6.57,8.9,11.34,3.02,5.23,4.77,9.89,5.23,13.96.23,1.86,1.16,3.78,2.79,5.76.93,1.16,2.38,2.85,4.36,5.06.81,1.28,1.51,3.49,2.09,6.63.7,4.42,1.11,6.8,1.22,7.15.35,1.4,1.28,3.84,2.79,7.33,1.4,3.37,2.27,5.76,2.62,7.15.15.8.42,1.74.8,2.81-1.35.65-2.03,1.93-2.03,3.83,0,.1.02.29.05.55-.03.26-.05.53-.05.82,0,.1.02.29.05.55-.03.26-.05.53-.05.82,0,.1.02.29.05.55-.03.26-.05.53-.05.82,0,.1.02.29.05.55-.03.26-.05.53-.05.82,0,.1.02.29.05.55-.03.26-.05.53-.05.82,0,.1.02.29.05.55-.03.26-.05.53-.05.82,0,.1.02.29.05.55-.03.26-.05.53-.05.82,0,.1.02.29.05.55-.03.26-.05.53-.05.82,0,.1.02.29.05.55-.03.26-.05.53-.05.82,0,.1.02.29.05.55-.03.26-.05.53-.05.82,0,.1.02.29.05.55-.03.26-.05.53-.05.82,0,.22.07.79.22,1.72-.22.5-.47.98-.75,1.43-1.4,2.09-2.09,3.61-2.09,4.54,0,.09.07.24.18.42-.11.36-.18.68-.18.94,0,.09.07.24.18.42-.11.36-.18.68-.18.94,0,.09.07.24.18.42-.11.36-.18.68-.18.94,0,.09.07.24.18.42-.11.36-.18.68-.18.94,0,.09.07.24.18.42-.11.36-.18.68-.18.94,0,.09.07.24.18.42-.11.36-.18.68-.18.94,0,.09.07.24.18.42-.11.36-.18.68-.18.94,0,.09.07.24.18.42-.11.36-.18.68-.18.94,0,.09.07.24.18.42-.11.36-.18.68-.18.94,0,.09.07.24.18.42-.11.36-.18.68-.18.94,0,.09.07.24.18.42-.11.36-.18.68-.18.94,0,.47,1.4,2.09,4.19,4.89,1.55,1.87,2.65,3.78,3.34,5.72-.01.22-.03.44-.03.64,0,.18.03.35.03.53-.02.29-.03.57-.03.83,0,.18.03.35.03.53-.02.29-.03.57-.03.83,0,.18.03.35.03.53-.02.29-.03.57-.03.83,0,.18.03.35.03.53-.02.29-.03.57-.03.83,0,.18.03.35.03.53-.02.29-.03.57-.03.83,0,.18.03.35.03.53-.02.29-.03.57-.03.83,0,.18.03.35.03.53-.02.29-.03.57-.03.83,0,.18.03.35.03.53-.02.29-.03.57-.03.83,0,2.33.58,4.42,1.74,6.28,1.4,2.21,3.26,3.32,5.58,3.32,1.98,0,3.26-1.74,3.84-5.23.58-3.49,2.79-5.23,6.63-5.23,2.68,0,6.34.99,10.99,2.97,4.3,1.86,7.21,3.55,8.72,5.06,1.4,1.4,2.09,3.84,2.09,7.33,0,2.33,1.8,3.49,5.41,3.49,1.86,0,2.79-1.22,2.79-3.66,0-.08-.03-.2-.07-.34.04-.32.07-.65.07-1.03,0-.08-.03-.2-.07-.34.04-.32.07-.65.07-1.03,0-.08-.03-.2-.07-.34.04-.32.07-.65.07-1.03,0-.08-.03-.2-.07-.34.04-.32.07-.65.07-1.03,0-.08-.03-.2-.07-.34.04-.32.07-.65.07-1.03,0-.08-.03-.2-.07-.34.04-.32.07-.65.07-1.03,0-.08-.03-.2-.07-.34.04-.32.07-.65.07-1.03,0-.08-.03-.2-.07-.34.04-.32.07-.65.07-1.03,0-.08-.03-.2-.07-.34.04-.32.07-.65.07-1.03,0-.08-.03-.2-.07-.34.04-.32.07-.65.07-1.03,0-.08-.03-.2-.07-.34.04-.32.07-.65.07-1.03,0-.47-.7-1.8-2.09-4.01-1.63-2.21-2.56-3.96-2.79-5.23-.09-.25-.17-.48-.25-.72,1.63-2.26,4.09-4.93,7.41-8.01,6.51-6.05,9.77-10.82,9.77-14.31,0-.21-.02-.43-.04-.65.03-.24.04-.48.04-.71,0-.21-.02-.42-.04-.65.03-.24.04-.48.04-.71,0-.21-.02-.43-.04-.65.03-.24.04-.48.04-.71,0-.21-.02-.43-.04-.65.03-.24.04-.48.04-.71,0-.21-.02-.43-.04-.65.03-.24.04-.48.04-.71,0-.21-.02-.42-.04-.65.03-.24.04-.48.04-.71,0-.21-.02-.43-.04-.65.03-.24.04-.48.04-.71,0-.21-.02-.43-.04-.65.03-.24.04-.48.04-.71,0-.21-.02-.42-.04-.65.03-.24.04-.48.04-.71,0-.21-.02-.43-.04-.65.03-.24.04-.48.04-.71,0-.21-.02-.42-.04-.65Z"/>
  <path class="st0" d="M66.13,3.49c-5.7,2.56-9.02,4.3-9.95,5.23-.23.23-1.16,2.44-2.79,6.63-1.16,3.02-3.32,4.54-6.46,4.54-.12,0-.58-.23-1.4-.7-.81-.46-1.69-.7-2.62-.7-1.05,0-2.62.35-4.71,1.05-2.21.7-4.19,1.05-5.93,1.05s-3.32-.7-4.71-2.09c-1.28-1.4-2.5-2.09-3.66-2.09-1.87.01-3.44,1.35-4.71,4.01-1.13,2.76-2.24,6.25-3.32,10.47-1.08,4.34-2.24,7.71-3.49,10.12-1.15,2.43-.98,5.86.52,10.29,0,2.44-1.34,5.58-4.01,9.42-2.79,3.84-4.19,7.21-4.19,10.12,0,3.37.76,5.99,2.27,7.85s2.27,3.2,2.27,4.01c0,1.4-.52,3.55-1.57,6.46-1.16,3.02-1.74,4.83-1.74,5.41s.23,1.57.7,2.97c.46,1.51.7,2.68.7,3.49l.87,7.33c0,3.14-1.34,6.98-4.01,11.52-2.79,4.65-4.19,8.49-4.19,11.52,0,.93.29,2.79.87,5.58.19.92.31,1.73.35,2.44.92.15,1.91.33,2.97.52,3.72.7,6.22,2.33,7.5,4.89.35.7.64,1.92.87,3.66.35,1.51,1.22,2.68,2.62,3.49.47.23,2.21.93,5.23,2.09,1.79.65,3.3,1.29,4.54,1.92.59.38,1.11.73,1.57,1.05,13.73,8.03,22.39,14.48,26,19.37,1.98,2.56,4.25,5.76,6.81,9.6,3.14,2.79,6.11,6.57,8.9,11.34,3.02,5.23,4.77,9.89,5.23,13.96.23,1.86,1.16,3.78,2.79,5.76.93,1.16,2.38,2.85,4.36,5.06.81,1.28,1.51,3.49,2.09,6.63.7,4.42,1.11,6.81,1.22,7.15.35,1.4,1.28,3.84,2.79,7.33,1.4,3.37,2.27,5.76,2.62,7.15.35,1.86,1.34,4.48,2.97,7.85,1.51,3.14,2.62,5.23,3.32,6.28v1.74c-1.05.7-2.73,1.28-5.06,1.75-1.63.58-2.44,1.92-2.44,4.01,0,.58.52,3.66,1.57,9.25,0,3.72-.7,6.69-2.09,8.9-1.4,2.09-2.09,3.61-2.09,4.54,0,.47,1.4,2.09,4.19,4.89,2.79,3.37,4.19,6.86,4.19,10.47,0,.81-.12,1.86-.35,3.14-.35,1.4-.52,2.62-.52,3.66,0,2.33.58,4.42,1.74,6.28,1.4,2.21,3.26,3.32,5.58,3.32,1.98,0,3.26-1.75,3.84-5.23.58-3.49,2.79-5.23,6.63-5.23,2.68,0,6.34.99,10.99,2.97,4.3,1.86,7.21,3.55,8.72,5.06,1.4,1.4,2.09,3.84,2.09,7.33,0,2.33,1.8,3.49,5.41,3.49,1.86,0,2.79-1.22,2.79-3.66,0-.47-.7-1.8-2.09-4.01-1.63-2.21-2.56-3.96-2.79-5.23-1.74-4.89-2.62-8.32-2.62-10.29,0-2.91,3.26-7.39,9.77-13.44,6.51-6.05,9.77-10.82,9.77-14.31,0-1.51-.76-3.66-2.27-6.46-1.51-2.68-2.27-5.23-2.27-7.68,0-1.51.41-2.91,1.22-4.19.81-1.4,1.22-2.44,1.22-3.14-2.21-6.63-3.32-12.91-3.32-18.84,0-3.26.64-7.74,1.92-13.44,1.28-5.12,1.92-7.91,1.92-8.38,0-1-.12-2.11-.35-3.32-1.63,1.98-3.43,2.97-5.41,2.97-.81,0-4.36-1.74-10.64-5.23-6.4-3.61-10-5.47-10.82-5.58-2.09-.46-3.32-2.91-3.66-7.33-.23-4.07-2.15-6.05-5.76-5.93v-3.84c.58-1.16,1.1-1.98,1.57-2.44.35-.35.52-.76.52-1.22,0-4.07-1.92-7.62-5.76-10.64-3.95-3.02-5.93-5.29-5.93-6.81,0-3.72,2.15-7.15,6.46-10.3,4.19-2.44,6.28-3.84,6.28-4.19,0-.47-2.21-3.14-6.63-8.03-4.42-4.89-6.63-7.85-6.63-8.9,0-1.51,1.1-2.62,3.32-3.32,2.09-.7,3.14-2.62,3.14-5.76,0-4.54-1.34-7.97-4.01-10.3-2.79-2.33-4.19-4.65-4.19-6.98,0-2.91.12-4.77.35-5.58.93-3.95,3.66-11.57,8.2-22.86.7-1.86,2.15-4.77,4.36-8.72,1.4-2.79,2.5-4.83,3.32-6.11.93-2.09,4.3-3.9,10.12-5.41,4.65-1.28,6.22-3.43,4.71-6.46,1.16-.35,3.49-.87,6.98-1.57,3.14-1.05,5.12-2.91,5.93-5.58.23-.93,1.05-2.56,2.44-4.89,1.4-2.21,2.15-3.72,2.27-4.54.12-7.21.17-11.11.17-11.69,0-1.74-1.34-3.2-4.01-4.36-3.26-1.05-5.58-1.86-6.98-2.44-1.63-.7-2.33-2.21-2.09-4.54.29-2.91.41-5.35.35-7.33-1.52-.13-3.38-.6-5.58-1.4-2.44-1.05-4.07-1.57-4.89-1.57-4.3,0-6.69,1.8-7.15,5.41-.58,3.49-1.8,5.23-3.66,5.23-.12,0-2.85-2.91-8.2-8.72-5.35-5.82-10.7-8.72-16.05-8.72-.93,0-2.68,1.22-5.23,3.66-2.44,2.44-4.89,3.66-7.33,3.66s-3.84-.58-3.84-1.74c.58-1.98.87-3.26.87-3.84C77.82,1.51,76.66,0,74.33,0c-2.68,1.05-5.41,2.21-8.2,3.49"/>
</svg>