<svg width="67" height="85" viewBox="0 0 67 85" fill="none" xmlns="http://www.w3.org/2000/svg">
<g clip-path="url(#clip0_48_2176)">
<path d="M66.7739 54.9231C66.7739 54.4809 66.7296 53.9945 66.6409 53.455V53.3003C65.4529 53.9193 64.6815 54.2244 64.3225 54.2244C62.6424 53.7424 61.3834 53.3003 60.5323 52.8935C60.5323 52.8846 60.5278 52.8758 60.5234 52.8669C60.5234 52.8227 60.5323 52.7829 60.5323 52.7387C60.5323 52.7299 60.5234 52.721 60.5234 52.7077C60.5234 52.6635 60.5323 52.6237 60.5323 52.5795C60.5323 52.5707 60.5234 52.5618 60.5234 52.5486C60.5234 52.5043 60.5323 52.4646 60.5323 52.4203C60.5323 52.4115 60.5234 52.4026 60.5234 52.3894C60.5234 52.3452 60.5323 52.3054 60.5323 52.2612C60.5323 52.2523 60.5234 52.2435 60.5234 52.2302C60.5234 52.186 60.5323 52.1462 60.5323 52.102C60.5323 52.0931 60.5234 52.0843 60.5234 52.071C60.5234 52.0268 60.5323 51.987 60.5323 51.9428C60.5323 51.9339 60.5234 51.9251 60.5234 51.9118C60.5234 51.8676 60.5323 51.8278 60.5323 51.7836C60.5323 51.7747 60.5234 51.7659 60.5234 51.7526C60.5234 51.7084 60.5323 51.6686 60.5323 51.6244C60.5323 51.6156 60.5234 51.6067 60.5234 51.5935C60.5234 51.5492 60.5323 51.5094 60.5323 51.4652C60.5323 51.4564 60.5234 51.4475 60.5234 51.4343C60.5234 51.3901 60.5323 51.3503 60.5323 51.306C60.5323 51.2972 60.5234 51.2884 60.5234 51.2751C60.5234 51.2309 60.5323 51.1911 60.5323 51.1469C60.5323 51.138 60.5234 51.1292 60.5234 51.1159C60.5234 51.0717 60.5323 51.0319 60.5323 50.9877C60.5323 50.9788 60.5234 50.97 60.5234 50.9567C60.5234 50.9125 60.5323 50.8727 60.5323 50.8285C60.5323 50.8196 60.5234 50.8108 60.5234 50.7975C60.5234 50.7533 60.5323 50.7135 60.5323 50.6693C60.5323 50.6605 60.5234 50.6516 60.5234 50.6384C60.5234 50.5941 60.5323 50.5543 60.5323 50.5101C60.5323 50.5013 60.5234 50.4924 60.5234 50.4792C60.5234 50.435 60.5323 50.3952 60.5323 50.3509C60.5323 50.3421 60.5234 50.3333 60.5234 50.32C60.5234 50.2758 60.5323 50.236 60.5323 50.1918C60.5323 50.1829 60.5234 50.1741 60.5234 50.1608C60.5234 50.1166 60.5323 50.0768 60.5323 50.0326C60.5323 50.0237 60.5234 50.0149 60.5234 50.0016C60.5234 49.9574 60.5323 49.9176 60.5323 49.8734C60.5323 49.8645 60.5234 49.8557 60.5234 49.8424C60.5234 49.7982 60.5323 49.7584 60.5323 49.7142C60.5323 49.7054 60.5234 49.6965 60.5234 49.6832C60.5234 49.639 60.5323 49.5992 60.5323 49.555C60.5323 49.5462 60.5234 49.5373 60.5234 49.5241C60.5234 49.4798 60.5323 49.44 60.5323 49.3958C60.5323 49.387 60.5234 49.3781 60.5234 49.3649C60.5234 49.3207 60.5323 49.2809 60.5323 49.2366C60.5323 49.2278 60.5234 49.219 60.5234 49.2057C60.5234 49.1615 60.5323 49.1217 60.5323 49.0775C60.5323 49.0686 60.5234 49.0598 60.5234 49.0465C60.5234 49.0023 60.5323 48.9625 60.5323 48.9183C60.5323 48.9094 60.5234 48.9006 60.5234 48.8873C60.5234 48.8431 60.5323 48.8033 60.5323 48.7591C59.1935 44.7972 58.236 42.405 57.6686 41.5825C56.6357 40.141 55.2437 38.8808 53.4927 37.8019C52.9076 37.5101 52.4465 37.2669 52.1008 37.0679C52.1008 37.0414 52.1008 37.0193 52.1008 36.9927C52.1008 36.975 52.1008 36.9529 52.1008 36.9352C52.1008 36.8999 52.1008 36.8689 52.1008 36.8335C52.1008 36.8159 52.1008 36.7937 52.1008 36.7761C52.1008 36.7407 52.1008 36.7097 52.1008 36.6744C52.1008 36.6567 52.1008 36.6346 52.1008 36.6169C52.1008 36.5815 52.1008 36.5505 52.1008 36.5152C52.1008 36.4975 52.1008 36.4754 52.1008 36.4577C52.1008 36.4223 52.1008 36.3914 52.1008 36.356C52.1008 36.3383 52.1008 36.3162 52.1008 36.2985C52.1008 36.2631 52.1008 36.2322 52.1008 36.1968C52.1008 36.1791 52.1008 36.157 52.1008 36.1393C52.1008 36.1039 52.1008 36.073 52.1008 36.0376C52.1008 36.0199 52.1008 35.9978 52.1008 35.9801C52.1008 35.9448 52.1008 35.9138 52.1008 35.8784C52.1008 35.8607 52.1008 35.8386 52.1008 35.8209C52.1008 35.7856 52.1008 35.7546 52.1008 35.7192C52.1008 35.7016 52.1008 35.6795 52.1008 35.6618C52.1008 35.6264 52.1008 35.5954 52.1008 35.5601C52.1008 35.5424 52.1008 35.5203 52.1008 35.5026C52.1008 35.4672 52.1008 35.4363 52.1008 35.4009C52.1008 35.3832 52.1008 35.3611 52.1008 35.3434C52.1008 35.308 52.1008 35.2771 52.1008 35.2417C52.1008 35.224 52.1008 35.2019 52.1008 35.1842C52.1008 35.1488 52.1008 35.1179 52.1008 35.0825C52.1008 35.0648 52.1008 35.0427 52.1008 35.025C52.1008 34.9897 52.1008 34.9587 52.1008 34.9233C52.1008 34.9056 52.1008 34.8835 52.1008 34.8658C52.1008 34.8305 52.1008 34.7995 52.1008 34.7641C52.1008 34.7465 52.1008 34.7243 52.1008 34.7067C52.1008 34.6713 52.1008 34.6403 52.1008 34.605C52.1008 34.5873 52.1008 34.5652 52.1008 34.5475C52.1008 34.5121 52.1008 34.4811 52.1008 34.4458C52.1008 34.4281 52.1008 34.406 52.1008 34.3883C52.1008 34.3529 52.1008 34.322 52.1008 34.2866C52.1008 34.2689 52.1008 34.2468 52.1008 34.2291C52.1008 34.1937 52.1008 34.1628 52.1008 34.1274C52.1008 34.1097 52.1008 34.0876 52.1008 34.0699C52.1008 34.0345 52.1008 34.0036 52.1008 33.9682C52.1008 33.9505 52.1008 33.9284 52.1008 33.9107C52.1008 33.8754 52.1008 33.8444 52.1008 33.809C52.1008 33.7913 52.1008 33.7692 52.1008 33.7516C52.1008 33.7162 52.1008 33.6852 52.1008 33.6498C52.1008 33.6322 52.1008 33.6101 52.1008 33.5924C52.1008 33.557 52.1008 33.526 52.1008 33.4907C52.1008 33.473 52.1008 33.4509 52.1008 33.4332C52.1008 33.3978 52.1008 33.3669 52.1008 33.3315C52.1008 33.3138 52.1008 33.2917 52.1008 33.274C52.1008 33.2386 52.1008 33.2077 52.1008 33.1723C52.1008 33.1546 52.1008 33.1325 52.1008 33.1148C52.1008 33.0794 52.1008 33.0485 52.1008 33.0131C52.1008 32.9954 52.1008 32.9733 52.1008 32.9556C52.1008 32.9203 52.1008 32.8893 52.1008 32.8539C52.1008 32.8362 52.1008 32.8141 52.1008 32.7964C52.1008 31.6645 51.7905 30.4839 51.1743 29.2458C50.5049 27.9104 49.6538 26.9553 48.6209 26.3893C47.8495 26.0311 47.2555 25.7481 46.8433 25.5403C46.1207 25.1821 45.735 24.7665 45.6818 24.3066C45.5267 23.6876 45.2695 23.1216 44.9105 22.6087C44.4982 21.9896 44.0327 21.6845 43.5185 21.6845C43.2614 21.6845 42.9777 21.7597 42.6674 21.9144C42.3571 22.0692 42.0246 22.1444 41.6611 22.1444C40.9385 22.1444 38.9792 20.9372 35.783 18.5185C34.391 17.4484 33.3094 16.5729 32.5336 15.8875C32.5336 15.8433 32.5203 15.8079 32.5159 15.7681L32.5336 15.7328C32.5336 15.6886 32.5203 15.6488 32.5159 15.609L32.5336 15.5736C32.5336 15.5294 32.5203 15.4896 32.5159 15.4498L32.5336 15.4144C32.5336 15.3702 32.5203 15.3304 32.5159 15.2906L32.5336 15.2552C32.5336 15.211 32.5203 15.1712 32.5159 15.1314L32.5336 15.096C32.5336 15.0518 32.5203 15.012 32.5159 14.9722L32.5336 14.9369C32.5336 14.8926 32.5203 14.8528 32.5159 14.813L32.5336 14.7777C32.5336 14.7334 32.5203 14.6937 32.5159 14.6539L32.5336 14.6185C32.5336 14.5743 32.5203 14.5345 32.5159 14.4947L32.5336 14.4593C32.5336 14.4151 32.5203 14.3753 32.5159 14.3355L32.5336 14.3001C32.5336 14.2559 32.5203 14.2161 32.5159 14.1763L32.5336 14.1409C32.5336 14.0967 32.5203 14.0569 32.5159 14.0171L32.5336 13.9817C32.5336 13.9375 32.5203 13.8977 32.5159 13.8579L32.5336 13.8226C32.5336 13.7783 32.5203 13.7385 32.5159 13.6988L32.5336 13.6634C32.5336 13.6192 32.5203 13.5794 32.5159 13.5396L32.5336 13.5042C32.5336 13.46 32.5203 13.4202 32.5159 13.3804L32.5336 13.345C32.5336 13.3008 32.5203 13.261 32.5159 13.2212L32.5336 13.1858C32.5336 13.1416 32.5203 13.1018 32.5159 13.062L32.5336 13.0266C32.5336 12.9824 32.5203 12.9426 32.5159 12.9028L32.5336 12.8675C32.5336 12.8232 32.5203 12.7834 32.5159 12.7436L32.5336 12.7083C32.5336 12.6641 32.5203 12.6243 32.5159 12.5845L32.5336 12.5491C32.5336 12.5049 32.5203 12.4651 32.5159 12.4253L32.5336 12.3899C32.5336 12.3457 32.5203 12.3059 32.5159 12.2661L32.5336 12.2307C32.5336 12.1865 32.5203 12.1467 32.5159 12.1069L32.5336 12.0715C32.5336 12.0273 32.5203 11.9875 32.5159 11.9477L32.5336 11.9124C32.5336 11.8681 32.5203 11.8283 32.5159 11.7885L32.5336 11.7532C32.5336 11.709 32.5203 11.6692 32.5159 11.6294L32.5336 11.594C32.5336 11.5498 32.5203 11.51 32.5159 11.4702L32.5336 11.4348C32.5336 10.661 31.6559 10.2498 29.9048 10.2011C27.9987 10.3559 26.8638 10.3824 26.5003 10.2763C26.0349 10.1746 25.4674 9.7103 24.7981 8.88785C24.1287 8.11404 23.3263 7.65417 22.3998 7.49941C20.5424 7.14124 19.2036 5.80144 18.3791 3.48885C17.6565 1.3266 16.2646 0.247681 14.2032 0.247681C13.0684 0.247681 11.7784 0.402443 10.3377 0.711968C8.94574 1.02149 7.86409 1.17626 7.08832 1.17626H6.93317C6.84008 1.43714 6.73369 1.72014 6.62286 2.02524C6.41451 2.48953 6.26379 2.97592 6.1574 3.49327C6.1042 3.74974 5.87369 4.03273 5.46142 4.34225L3.75916 7.2739L3.44885 9.51132C3.44885 9.51132 3.45772 9.55112 3.46215 9.5688L3.44885 9.67051C3.44885 9.67051 3.45772 9.7103 3.46215 9.72799L3.44885 9.82969C3.44885 9.82969 3.45772 9.86949 3.46215 9.88717L3.44885 9.98888C3.44885 9.98888 3.45772 10.0287 3.46215 10.0464L3.45328 10.1259C3.32916 10.5151 2.97009 10.9263 2.3672 11.3596C1.75102 11.8151 1.23236 12.328 0.820096 12.9028C0.846694 12.9249 0.868859 12.947 0.891024 12.9692C0.868859 13.0001 0.842261 13.0311 0.820096 13.062C0.846694 13.0841 0.868859 13.1062 0.891024 13.1283C0.868859 13.1593 0.842261 13.1902 0.820096 13.2212C0.846694 13.2433 0.868859 13.2654 0.891024 13.2875C0.868859 13.3185 0.842261 13.3494 0.820096 13.3804C0.846694 13.4025 0.868859 13.4246 0.891024 13.4467C0.868859 13.4777 0.842261 13.5086 0.820096 13.5396C0.846694 13.5617 0.868859 13.5838 0.891024 13.6059C0.868859 13.6368 0.842261 13.6678 0.820096 13.6988C0.846694 13.7209 0.868859 13.743 0.891024 13.7651C0.868859 13.796 0.842261 13.827 0.820096 13.8579C0.846694 13.88 0.868859 13.9022 0.891024 13.9243C0.868859 13.9552 0.842261 13.9862 0.820096 14.0171C0.846694 14.0392 0.868859 14.0613 0.891024 14.0834C0.868859 14.1144 0.842261 14.1454 0.820096 14.1763C0.846694 14.1984 0.868859 14.2205 0.891024 14.2426C0.868859 14.2736 0.842261 14.3045 0.820096 14.3355C0.846694 14.3576 0.868859 14.3797 0.891024 14.4018C0.868859 14.4328 0.842261 14.4637 0.820096 14.4947C0.846694 14.5168 0.868859 14.5389 0.891024 14.561C0.868859 14.592 0.842261 14.6229 0.820096 14.6539C0.846694 14.676 0.868859 14.6981 0.891024 14.7202C0.868859 14.7511 0.842261 14.7821 0.820096 14.813C0.846694 14.8352 0.868859 14.8573 0.891024 14.8794C0.868859 14.9103 0.842261 14.9413 0.820096 14.9722C0.846694 14.9943 0.868859 15.0164 0.891024 15.0386C0.868859 15.0695 0.842261 15.1005 0.820096 15.1314C0.846694 15.1535 0.868859 15.1756 0.891024 15.1977C0.868859 15.2287 0.842261 15.2596 0.820096 15.2906C0.846694 15.3127 0.868859 15.3348 0.891024 15.3569C0.868859 15.3879 0.842261 15.4188 0.820096 15.4498C0.846694 15.4719 0.868859 15.494 0.891024 15.5161C0.868859 15.5471 0.842261 15.578 0.820096 15.609C0.846694 15.6311 0.868859 15.6532 0.891024 15.6753C0.868859 15.7062 0.842261 15.7372 0.820096 15.7681C0.846694 15.7903 0.868859 15.8124 0.891024 15.8345C0.868859 15.8654 0.842261 15.8964 0.820096 15.9273C0.846694 15.9494 0.868859 15.9715 0.891024 15.9937C0.868859 16.0246 0.842261 16.0556 0.820096 16.0865C0.846694 16.1086 0.868859 16.1307 0.891024 16.1528C0.868859 16.1838 0.842261 16.2147 0.820096 16.2457C0.846694 16.2678 0.868859 16.2899 0.891024 16.312C0.868859 16.343 0.842261 16.3739 0.820096 16.4049C0.846694 16.427 0.868859 16.4491 0.891024 16.4712C0.868859 16.5022 0.842261 16.5331 0.820096 16.5641C0.846694 16.5862 0.868859 16.6083 0.891024 16.6304C0.868859 16.6613 0.842261 16.6923 0.820096 16.7233C0.846694 16.7454 0.868859 16.7675 0.891024 16.7896C0.868859 16.8205 0.842261 16.8515 0.820096 16.8824C0.846694 16.9045 0.868859 16.9267 0.891024 16.9488C0.868859 16.9797 0.842261 17.0107 0.820096 17.0416C0.846694 17.0637 0.868859 17.0858 0.891024 17.1079C0.868859 17.1389 0.842261 17.1699 0.820096 17.2008C0.846694 17.2229 0.868859 17.245 0.891024 17.2671C0.868859 17.2981 0.842261 17.329 0.820096 17.36C0.846694 17.3821 0.868859 17.4042 0.891024 17.4263C0.868859 17.4573 0.842261 17.4882 0.820096 17.5192C0.846694 17.5413 0.868859 17.5634 0.891024 17.5855C0.868859 17.6165 0.842261 17.6474 0.820096 17.6784C0.846694 17.7005 0.868859 17.7226 0.891024 17.7447C0.868859 17.7756 0.842261 17.8066 0.820096 17.8375C0.846694 17.8597 0.868859 17.8818 0.891024 17.9039C0.868859 17.9348 0.842261 17.9658 0.820096 17.9967C0.846694 18.0188 0.868859 18.0409 0.891024 18.0631C0.868859 18.094 0.842261 18.125 0.820096 18.1559C0.846694 18.178 0.868859 18.2001 0.891024 18.2222C0.868859 18.2532 0.842261 18.2841 0.820096 18.3151C0.846694 18.3372 0.868859 18.3593 0.891024 18.3814C0.868859 18.4124 0.842261 18.4433 0.820096 18.4743C0.846694 18.4964 0.868859 18.5185 0.891024 18.5406C0.868859 18.5716 0.842261 18.6025 0.820096 18.6335C0.846694 18.6556 0.868859 18.6777 0.891024 18.6998C0.868859 18.7307 0.842261 18.7617 0.820096 18.7927C0.846694 18.8148 0.868859 18.8369 0.891024 18.859C0.868859 18.8899 0.842261 18.9209 0.820096 18.9518C0.846694 18.9739 0.868859 18.9961 0.891024 19.0182C0.868859 19.0491 0.842261 19.0801 0.820096 19.111C0.846694 19.1331 0.868859 19.1552 0.891024 19.1773C0.868859 19.2083 0.842261 19.2393 0.820096 19.2702C0.846694 19.2923 0.868859 19.3144 0.891024 19.3365C0.868859 19.3675 0.842261 19.3984 0.820096 19.4294C1.1304 19.6682 1.38752 19.9512 1.59587 20.2784C2.4204 21.6137 3.16957 22.2859 3.83895 22.2859C4.56153 22.2859 5.43926 22.6706 6.46771 23.4444C7.44739 24.1651 8.40048 24.4746 9.33141 24.3685C9.92986 24.2624 10.5106 24.3287 11.0869 24.5587C10.9938 24.5454 10.9007 24.5366 10.8032 24.5366C9.0477 24.5366 7.8109 25.1556 7.08832 26.3893C6.83121 27.1587 6.5741 27.7512 6.31255 28.1624C5.90029 28.9318 5.20431 29.3209 4.22462 29.3209C3.6439 29.2723 3.36462 29.6128 3.37349 30.3335C3.37349 30.3822 3.37349 30.4396 3.37349 30.4927C3.37349 30.5413 3.37349 30.5988 3.37349 30.6519C3.37349 30.7005 3.37349 30.758 3.37349 30.8111C3.37349 30.8597 3.37349 30.9172 3.37349 30.9702C3.37349 31.0189 3.37349 31.0764 3.37349 31.1294C3.37349 31.1781 3.37349 31.2356 3.37349 31.2886C3.37349 31.3373 3.37349 31.3947 3.37349 31.4478C3.37349 31.4964 3.37349 31.5539 3.37349 31.607C3.37349 31.6556 3.37349 31.7131 3.37349 31.7662C3.37349 31.8148 3.37349 31.8723 3.37349 31.9254C3.37349 31.974 3.37349 32.0315 3.37349 32.0845C3.37349 32.1332 3.37349 32.1907 3.37349 32.2437C3.37349 32.2924 3.37349 32.3498 3.37349 32.4029C3.37349 32.4383 3.37349 32.4737 3.37349 32.5135C2.98782 33.0706 2.60215 33.473 2.21648 33.7162C1.75989 33.9903 1.27226 34.2733 0.744736 34.5652C0.824529 34.574 0.913189 34.574 0.997415 34.5784C0.913189 34.6271 0.828962 34.6757 0.744736 34.7243C0.824529 34.7332 0.913189 34.7332 0.997415 34.7376C0.913189 34.7863 0.828962 34.8349 0.744736 34.8835C0.824529 34.8924 0.913189 34.8924 0.997415 34.8968C0.913189 34.9454 0.828962 34.9941 0.744736 35.0427C0.824529 35.0516 0.913189 35.0516 0.997415 35.056C0.913189 35.1046 0.828962 35.1533 0.744736 35.2019C0.824529 35.2107 0.913189 35.2107 0.997415 35.2152C0.913189 35.2638 0.828962 35.3124 0.744736 35.3611C0.824529 35.3699 0.913189 35.3699 0.997415 35.3743C0.913189 35.423 0.828962 35.4716 0.744736 35.5203C0.824529 35.5291 0.913189 35.5291 0.997415 35.5335C0.913189 35.5822 0.828962 35.6308 0.744736 35.6795C0.824529 35.6883 0.913189 35.6883 0.997415 35.6927C0.913189 35.7414 0.828962 35.79 0.744736 35.8386C0.824529 35.8475 0.913189 35.8475 0.997415 35.8519C0.913189 35.9005 0.828962 35.9492 0.744736 35.9978C0.824529 36.0067 0.913189 36.0067 0.997415 36.0111C0.913189 36.0597 0.828962 36.1084 0.744736 36.157C0.824529 36.1658 0.913189 36.1658 0.997415 36.1703C0.913189 36.2189 0.828962 36.2675 0.744736 36.3162C0.824529 36.325 0.913189 36.325 0.997415 36.3295C0.913189 36.3781 0.828962 36.4267 0.744736 36.4754C0.824529 36.4842 0.913189 36.4842 0.997415 36.4886C0.913189 36.5373 0.828962 36.5859 0.744736 36.6346C0.824529 36.6434 0.913189 36.6434 0.997415 36.6478C0.913189 36.6965 0.828962 36.7451 0.744736 36.7937C0.824529 36.8026 0.913189 36.8026 0.997415 36.807C0.913189 36.8556 0.828962 36.9043 0.744736 36.9529C0.824529 36.9618 0.913189 36.9618 0.997415 36.9662C0.913189 37.0148 0.828962 37.0635 0.744736 37.1121C0.824529 37.121 0.913189 37.121 0.997415 37.1254C0.913189 37.174 0.828962 37.2227 0.744736 37.2713C0.824529 37.2801 0.913189 37.2801 0.997415 37.2846C0.913189 37.3332 0.828962 37.3818 0.744736 37.4305C0.824529 37.4393 0.913189 37.4393 0.997415 37.4437C0.913189 37.4924 0.828962 37.541 0.744736 37.5897C0.824529 37.5985 0.913189 37.5985 0.997415 37.6029C0.913189 37.6516 0.828962 37.7002 0.744736 37.7488C0.824529 37.7577 0.913189 37.7577 0.997415 37.7621C0.913189 37.8108 0.828962 37.8594 0.744736 37.908C0.824529 37.9169 0.913189 37.9169 0.997415 37.9213C0.913189 37.9699 0.828962 38.0186 0.744736 38.0672C0.824529 38.0761 0.913189 38.0761 0.997415 38.0805C0.913189 38.1291 0.828962 38.1778 0.744736 38.2264C0.824529 38.2352 0.913189 38.2352 0.997415 38.2397C0.913189 38.2883 0.828962 38.3369 0.744736 38.3856C0.824529 38.3944 0.913189 38.3944 0.997415 38.3988C0.913189 38.4475 0.828962 38.4961 0.744736 38.5448C0.824529 38.5536 0.913189 38.5536 0.997415 38.558C0.913189 38.6067 0.828962 38.6553 0.744736 38.704C0.824529 38.7128 0.913189 38.7128 0.997415 38.7172C0.913189 38.7659 0.828962 38.8145 0.744736 38.8631C0.824529 38.872 0.913189 38.872 0.997415 38.8764C0.913189 38.925 0.828962 38.9737 0.744736 39.0223C0.824529 39.0312 0.913189 39.0312 0.997415 39.0356C0.913189 39.0842 0.828962 39.1329 0.744736 39.1815C0.824529 39.1903 0.913189 39.1903 0.997415 39.1948C0.913189 39.2434 0.828962 39.292 0.744736 39.3407C0.824529 39.3495 0.913189 39.3495 0.997415 39.354C0.913189 39.4026 0.828962 39.4512 0.744736 39.4999C0.824529 39.5087 0.913189 39.5087 0.997415 39.5131C0.913189 39.5618 0.828962 39.6104 0.744736 39.6591C0.824529 39.6679 0.913189 39.6679 0.997415 39.6723C0.913189 39.721 0.828962 39.7696 0.744736 39.8182C0.824529 39.8271 0.913189 39.8271 0.997415 39.8315C0.913189 39.8801 0.828962 39.9288 0.744736 39.9774C0.824529 39.9863 0.913189 39.9863 0.997415 39.9907C0.913189 40.0393 0.828962 40.088 0.744736 40.1366C0.824529 40.1455 0.913189 40.1455 0.997415 40.1499C0.913189 40.1985 0.828962 40.2472 0.744736 40.2958C0.824529 40.3046 0.913189 40.3046 0.997415 40.3091C0.913189 40.3577 0.828962 40.4063 0.744736 40.455C0.824529 40.4638 0.913189 40.4638 0.997415 40.4682C0.913189 40.5169 0.828962 40.5655 0.744736 40.6142C0.824529 40.623 0.913189 40.623 0.997415 40.6274C0.913189 40.6761 0.828962 40.7247 0.744736 40.7733C0.824529 40.7822 0.913189 40.7822 0.997415 40.7866C0.913189 40.8353 0.828962 40.8839 0.744736 40.9325C0.824529 40.9414 0.913189 40.9414 0.997415 40.9458C0.913189 40.9944 0.828962 41.0431 0.744736 41.0917C1.38308 41.1448 2.10566 41.1448 2.91246 41.0917C3.32473 41.0917 3.79019 41.2465 4.30441 41.556C4.92503 41.9672 5.46585 42.1972 5.92688 42.2502C6.1042 42.2723 6.29039 42.2944 6.48101 42.3166C6.48101 42.3298 6.47214 42.3387 6.46771 42.3475C6.48101 42.3563 6.49874 42.3652 6.51647 42.374C6.50317 42.4183 6.48101 42.458 6.46771 42.5067C6.48101 42.5155 6.49874 42.5244 6.51647 42.5332C6.50317 42.5774 6.48101 42.6172 6.46771 42.6659C6.48101 42.6747 6.49874 42.6836 6.51647 42.6924C6.50317 42.7366 6.48101 42.7764 6.46771 42.8251C6.48101 42.8339 6.49874 42.8427 6.51647 42.8516C6.50317 42.8958 6.48101 42.9356 6.46771 42.9842C6.48101 42.9931 6.49874 43.0019 6.51647 43.0108C6.50317 43.055 6.48101 43.0948 6.46771 43.1434C6.48101 43.1523 6.49874 43.1611 6.51647 43.17C6.50317 43.2142 6.48101 43.254 6.46771 43.3026C6.48101 43.3115 6.49874 43.3203 6.51647 43.3291C6.50317 43.3734 6.48101 43.4132 6.46771 43.4618C6.48101 43.4706 6.49874 43.4795 6.51647 43.4883C6.50317 43.5325 6.48101 43.5723 6.46771 43.621C6.48101 43.6298 6.49874 43.6387 6.51647 43.6475C6.50317 43.6917 6.48101 43.7315 6.46771 43.7802C6.48101 43.789 6.49874 43.7979 6.51647 43.8067C6.50317 43.8509 6.48101 43.8907 6.46771 43.9393C6.48101 43.9482 6.49874 43.957 6.51647 43.9659C6.50317 44.0101 6.48101 44.0499 6.46771 44.0985C6.48101 44.1074 6.49874 44.1162 6.51647 44.1251C6.50317 44.1693 6.48101 44.2091 6.46771 44.2577C6.48101 44.2666 6.49874 44.2754 6.51647 44.2842C6.50317 44.3285 6.48101 44.3683 6.46771 44.4169C6.48101 44.4257 6.49874 44.4346 6.51647 44.4434C6.50317 44.4876 6.48101 44.5274 6.46771 44.5761C6.48101 44.5849 6.49874 44.5938 6.51647 44.6026C6.50317 44.6468 6.48101 44.6866 6.46771 44.7353C6.48101 44.7441 6.49874 44.753 6.51647 44.7618C6.50317 44.806 6.48101 44.8458 6.46771 44.8945C6.48101 44.9033 6.49874 44.9121 6.51647 44.921C6.50317 44.9652 6.48101 45.005 6.46771 45.0536C6.48101 45.0625 6.49874 45.0713 6.51647 45.0802C6.50317 45.1244 6.48101 45.1642 6.46771 45.2128C6.48101 45.2217 6.49874 45.2305 6.51647 45.2393C6.50317 45.2836 6.48101 45.3234 6.46771 45.372C6.48101 45.3808 6.49874 45.3897 6.51647 45.3985C6.50317 45.4428 6.48101 45.4826 6.46771 45.5312C6.48101 45.54 6.49874 45.5489 6.51647 45.5577C6.50317 45.6019 6.48101 45.6417 6.46771 45.6904C6.48101 45.6992 6.49874 45.7081 6.51647 45.7169C6.50317 45.7611 6.48101 45.8009 6.46771 45.8496C6.48101 45.8584 6.49874 45.8672 6.51647 45.8761C6.50317 45.9203 6.48101 45.9601 6.46771 46.0087C6.48101 46.0176 6.49874 46.0264 6.51647 46.0353C6.50317 46.0795 6.48101 46.1193 6.46771 46.1679C6.48101 46.1768 6.49874 46.1856 6.51647 46.1945C6.50317 46.2387 6.48101 46.2785 6.46771 46.3271C7.65574 46.8931 9.33141 48.255 11.4947 50.4173C13.6092 52.5265 14.8992 53.6584 15.3603 53.8132C15.8257 54.0166 16.5483 54.2244 17.528 54.4322C18.3038 54.6887 18.7382 55.1795 18.8446 55.9003C18.8845 56.3955 19.0973 56.904 19.4696 57.4302C19.4696 57.4656 19.4608 57.501 19.4608 57.5363C19.4608 57.5584 19.4652 57.585 19.4652 57.6115C19.4652 57.638 19.4608 57.669 19.4608 57.6955C19.4608 57.7176 19.4652 57.7442 19.4652 57.7707C19.4652 57.7972 19.4608 57.8282 19.4608 57.8547C19.4608 57.8768 19.4652 57.9033 19.4652 57.9299C19.4652 57.9564 19.4608 57.9874 19.4608 58.0139C19.4608 58.036 19.4652 58.0625 19.4652 58.0891C19.4652 58.1156 19.4608 58.1465 19.4608 58.1731C19.4608 58.1952 19.4652 58.2217 19.4652 58.2482C19.4652 58.2748 19.4608 58.3057 19.4608 58.3323C19.4608 58.3544 19.4652 58.3809 19.4652 58.4074C19.4652 58.434 19.4608 58.4649 19.4608 58.4914C19.4608 58.5136 19.4652 58.5401 19.4652 58.5666C19.4652 58.5931 19.4608 58.6241 19.4608 58.6506C19.4608 58.6727 19.4652 58.6993 19.4652 58.7258C19.4652 58.7523 19.4608 58.7833 19.4608 58.8098C19.4608 58.8319 19.4652 58.8585 19.4652 58.885C19.4652 58.9115 19.4608 58.9425 19.4608 58.969C19.4608 58.9911 19.4652 59.0176 19.4652 59.0442C19.4652 59.0707 19.4608 59.1017 19.4608 59.1282C19.4608 59.1503 19.4652 59.1768 19.4652 59.2034C19.4652 59.2299 19.4608 59.2608 19.4608 59.2874C19.4608 59.3095 19.4652 59.336 19.4652 59.3625C19.4652 59.3891 19.4608 59.42 19.4608 59.4466C19.4608 59.4687 19.4652 59.4952 19.4652 59.5217C19.4652 59.5483 19.4608 59.5792 19.4608 59.6057C19.4608 59.6278 19.4652 59.6544 19.4652 59.6809C19.4652 59.7074 19.4608 59.7384 19.4608 59.7649C19.4608 59.787 19.4652 59.8136 19.4652 59.8401C19.4652 59.8666 19.4608 59.8976 19.4608 59.9241C19.4608 59.9462 19.4652 59.9727 19.4652 59.9993C19.4652 60.0258 19.4608 60.0568 19.4608 60.0833C19.4608 60.1054 19.4652 60.1319 19.4652 60.1585C19.4652 60.185 19.4608 60.2159 19.4608 60.2425C19.4608 60.2646 19.4652 60.2911 19.4652 60.3176C19.4652 60.3442 19.4608 60.3751 19.4608 60.4017C19.4608 60.4238 19.4652 60.4503 19.4652 60.4768C19.4652 60.5034 19.4608 60.5343 19.4608 60.5608C19.4608 60.583 19.4652 60.6095 19.4652 60.636C19.4652 60.6625 19.4608 60.6935 19.4608 60.72C19.4608 60.7421 19.4652 60.7687 19.4652 60.7952C19.4652 60.8217 19.4608 60.8527 19.4608 60.8792C19.4608 60.9013 19.4652 60.9278 19.4652 60.9544C19.4652 60.9809 19.4608 61.0119 19.4608 61.0384C19.4608 61.0605 19.4652 61.087 19.4652 61.1136C19.4652 61.1401 19.4608 61.171 19.4608 61.1976C19.4608 61.2197 19.4652 61.2462 19.4652 61.2728C19.4652 61.2993 19.4608 61.3302 19.4608 61.3568C19.4608 61.3789 19.4652 61.4054 19.4652 61.4319C19.4652 61.4585 19.4608 61.4894 19.4608 61.5159C19.4608 61.5381 19.4652 61.5646 19.4652 61.5911C19.4652 61.6176 19.4608 61.6486 19.4608 61.6751C19.4608 61.6972 19.4652 61.7238 19.4652 61.7503C19.4652 61.7768 19.4608 61.8078 19.4608 61.8343C19.4608 61.8564 19.4652 61.8829 19.4652 61.9095C19.4652 61.936 19.4608 61.967 19.4608 61.9935C19.4608 62.0156 19.4652 62.0421 19.4652 62.0687C19.4652 62.0952 19.4608 62.1262 19.4608 62.1527C19.4608 62.1748 19.4652 62.2013 19.4652 62.2279C19.4652 62.2544 19.4608 62.2853 19.4608 62.3119C19.4608 62.334 19.4652 62.3605 19.4652 62.387C19.4652 62.4136 19.4608 62.4445 19.4608 62.4711C19.4608 62.4932 19.4652 62.5197 19.4652 62.5462C19.4652 62.5728 19.4608 62.6037 19.4608 62.6302C19.4608 62.6523 19.4652 62.6789 19.4652 62.7054C19.4652 62.7319 19.4608 62.7629 19.4608 62.7894C19.4608 62.8115 19.4652 62.8381 19.4652 62.8646C19.4652 62.8911 19.4608 62.9221 19.4608 62.9486C19.4608 62.9707 19.4652 62.9972 19.4652 63.0238C19.4652 63.0503 19.4608 63.0813 19.4608 63.1078C19.4608 63.1299 19.4652 63.1564 19.4652 63.183C19.4652 63.2095 19.4608 63.2404 19.4608 63.267C19.4608 63.2891 19.4652 63.3156 19.4652 63.3421C19.4652 63.3687 19.4608 63.3996 19.4608 63.4262C19.4608 63.4483 19.4652 63.4748 19.4652 63.5013C19.4652 63.5279 19.4608 63.5588 19.4608 63.5853C19.4608 63.6075 19.4652 63.634 19.4652 63.6605C19.4652 63.687 19.4608 63.718 19.4608 63.7445C19.4608 63.7666 19.4652 63.7932 19.4652 63.8197C19.4652 63.8462 19.4608 63.8772 19.4608 63.9037C19.4608 63.9258 19.4652 63.9524 19.4652 63.9789C19.4652 64.0054 19.4608 64.0364 19.4608 64.0629C19.4608 64.6864 19.8243 65.3806 20.5468 66.1411C20.5468 66.1677 20.5468 66.1898 20.5513 66.2163C20.5513 66.2384 20.5468 66.2605 20.5468 66.2826C20.5468 66.3136 20.5468 66.3445 20.5513 66.3755C20.5513 66.3976 20.5468 66.4197 20.5468 66.4418C20.5468 66.4728 20.5468 66.5037 20.5513 66.5347C20.5513 66.5568 20.5468 66.5789 20.5468 66.601C20.5468 66.632 20.5468 66.6629 20.5513 66.6939C20.5513 66.716 20.5468 66.7381 20.5468 66.7602C20.5468 66.7911 20.5468 66.8221 20.5513 66.853C20.5513 66.8752 20.5468 66.8973 20.5468 66.9194C20.5468 66.9503 20.5468 66.9813 20.5513 67.0122C20.5513 67.0343 20.5468 67.0564 20.5468 67.0786C20.5468 67.1095 20.5468 67.1405 20.5513 67.1714C20.5513 67.1935 20.5468 67.2156 20.5468 67.2377C20.5468 67.2687 20.5468 67.2996 20.5513 67.3306C20.5513 67.3527 20.5468 67.3748 20.5468 67.3969C20.5468 67.4279 20.5468 67.4588 20.5513 67.4898C20.5513 67.5119 20.5468 67.534 20.5468 67.5561C20.5468 67.5871 20.5468 67.618 20.5513 67.649C20.5513 67.6711 20.5468 67.6932 20.5468 67.7153C20.5468 67.7462 20.5468 67.7772 20.5513 67.8082C20.5513 67.8303 20.5468 67.8524 20.5468 67.8745C20.5468 67.9054 20.5468 67.9364 20.5513 67.9673C20.5513 67.9894 20.5468 68.0116 20.5468 68.0337C20.5468 68.0646 20.5468 68.0956 20.5513 68.1265C20.5513 68.1486 20.5468 68.1707 20.5468 68.1928C20.5468 68.2238 20.5468 68.2547 20.5513 68.2857C20.5513 68.3078 20.5468 68.3299 20.5468 68.352C20.5468 68.383 20.5468 68.4139 20.5513 68.4449C20.5513 68.467 20.5468 68.4891 20.5468 68.5112C20.5468 68.5422 20.5468 68.5731 20.5513 68.6041C20.5513 68.6262 20.5468 68.6483 20.5468 68.6704C20.5468 68.7013 20.5468 68.7323 20.5513 68.7633C20.5513 68.7854 20.5468 68.8075 20.5468 68.8296C20.5468 68.8605 20.5468 68.8915 20.5513 68.9224C20.5513 68.9445 20.5468 68.9667 20.5468 68.9888C20.5468 69.0197 20.5468 69.0507 20.5513 69.0816C20.5513 69.1037 20.5468 69.1258 20.5468 69.1479C20.5468 69.1789 20.5468 69.2099 20.5513 69.2408C20.5513 69.2629 20.5468 69.285 20.5468 69.3071C20.5468 69.3381 20.5468 69.369 20.5513 69.4C20.5513 69.4221 20.5468 69.4442 20.5468 69.4663C20.5468 69.4973 20.5468 69.5282 20.5513 69.5592C20.5513 69.5813 20.5468 69.6034 20.5468 69.6255C20.5468 69.6565 20.5468 69.6874 20.5513 69.7184C20.5513 69.7405 20.5468 69.7626 20.5468 69.7847C20.5468 69.8156 20.5468 69.8466 20.5513 69.8775C20.5513 69.8997 20.5468 69.9218 20.5468 69.9439C20.5468 69.9748 20.5468 70.0058 20.5513 70.0367C20.5513 70.0588 20.5468 70.0809 20.5468 70.1031C20.5468 70.134 20.5468 70.165 20.5513 70.1959C20.5513 70.218 20.5468 70.2401 20.5468 70.2622C20.5468 70.2932 20.5468 70.3241 20.5513 70.3551C20.5513 70.3772 20.5468 70.3993 20.5468 70.4214C20.5468 70.4524 20.5468 70.4833 20.5513 70.5143C20.5513 70.5364 20.5468 70.5585 20.5468 70.5806C20.5468 70.6116 20.5468 70.6425 20.5513 70.6735C20.5513 70.6956 20.5468 70.7177 20.5468 70.7398C20.5468 70.7707 20.5468 70.8017 20.5513 70.8326C20.5513 70.8548 20.5468 70.8769 20.5468 70.899C20.5468 70.9299 20.5468 70.9609 20.5513 70.9918C20.5513 71.0139 20.5468 71.036 20.5468 71.0582C20.5468 71.0891 20.5468 71.1201 20.5513 71.151C20.5513 71.1731 20.5468 71.1952 20.5468 71.2173C20.5468 71.2483 20.5468 71.2793 20.5513 71.3102C20.5513 71.3323 20.5468 71.3544 20.5468 71.3765C20.5468 71.4075 20.5468 71.4384 20.5513 71.4694C20.5513 71.4915 20.5468 71.5136 20.5468 71.5357C20.5468 72.6146 21.6817 73.1541 23.9514 73.1541L26.1191 72.6146C27.6662 72.2034 28.8276 71.9956 29.599 71.9956C30.787 71.9956 32.5114 72.1769 34.7811 72.535C35.6057 72.535 36.2529 72.3803 36.7139 72.0707C37.2281 71.7612 37.6404 71.6065 37.9507 71.6065C38.6733 71.6065 39.4446 71.9912 40.2691 72.765C41.0405 73.4857 41.5591 74.233 41.8163 75.0024C41.9714 75.4136 42.3083 75.7983 42.8225 76.1609C43.4432 76.6252 43.9042 77.1116 44.2145 77.6289C44.4273 77.9517 44.6046 78.2524 44.7598 78.5266C44.7598 78.5398 44.7598 78.5575 44.7598 78.5708L44.7686 78.5929C44.7686 78.6371 44.7598 78.6857 44.7598 78.73L44.7686 78.7521C44.7686 78.7963 44.7598 78.8449 44.7598 78.8891L44.7686 78.9113C44.7686 78.9555 44.7598 79.0041 44.7598 79.0483L44.7686 79.0704C44.7686 79.1147 44.7598 79.1633 44.7598 79.2075L44.7686 79.2296C44.7686 79.2738 44.7598 79.3225 44.7598 79.3667L44.7686 79.3888C44.7686 79.433 44.7598 79.4817 44.7598 79.5259L44.7686 79.548C44.7686 79.5922 44.7598 79.6408 44.7598 79.6851L44.7686 79.7072C44.7686 79.7514 44.7598 79.8 44.7598 79.8443L44.7686 79.8664C44.7686 79.9106 44.7598 79.9592 44.7598 80.0034L44.7686 80.0255C44.7686 80.0698 44.7598 80.1184 44.7598 80.1626L44.7686 80.1847C44.7686 80.2289 44.7598 80.2776 44.7598 80.3218L44.7686 80.3439C44.7686 80.3881 44.7598 80.4368 44.7598 80.481L44.7686 80.5031C44.7686 80.5473 44.7598 80.5959 44.7598 80.6402L44.7686 80.6623C44.7686 80.7065 44.7598 80.7551 44.7598 80.7994L44.7686 80.8215C44.7686 80.8657 44.7598 80.9143 44.7598 80.9585L44.7686 80.9806C44.7686 81.0249 44.7598 81.0735 44.7598 81.1177L44.7686 81.1398C44.7686 81.1841 44.7598 81.2327 44.7598 81.2769L44.7686 81.299C44.7686 81.3432 44.7598 81.3919 44.7598 81.4361L44.7686 81.4582C44.7686 81.5024 44.7598 81.5511 44.7598 81.5953L44.7686 81.6174C44.7686 81.6616 44.7598 81.7102 44.7598 81.7545L44.7686 81.7766C44.7686 81.8208 44.7598 81.8694 44.7598 81.9136L44.7686 81.9358C44.7686 81.98 44.7598 82.0286 44.7598 82.0728L44.7686 82.0949C44.7686 82.1392 44.7598 82.1878 44.7598 82.232L44.7686 82.2541C44.7686 82.2983 44.7598 82.347 44.7598 82.3912L44.7686 82.4133C44.7686 82.4575 44.7598 82.5062 44.7598 82.5504L44.7686 82.5725C44.7686 82.6167 44.7598 82.6654 44.7598 82.7096L45.766 84.947C46.3423 84.6242 46.8344 84.4208 47.2378 84.3279C47.9604 84.1201 49.1218 83.9432 50.7177 83.7885C52.0564 83.6337 53.014 83.2225 53.5814 82.5548C53.8429 82.2674 54.1045 82.0375 54.3527 81.8606C54.3616 79.999 55.031 78.5619 56.3653 77.5405C57.1411 76.9214 58.5818 75.7939 60.6963 74.1446C60.9047 73.9367 61.1352 73.4238 61.3923 72.6014C61.5962 71.9823 61.9331 71.5224 62.3986 71.2129C63.9989 69.6167 64.7968 68.6173 64.7968 68.2017C64.7968 67.786 64.85 66.5037 64.952 64.3459C66.2198 64.0364 66.8315 63.0061 66.7872 61.2551C66.7872 61.202 66.7872 61.1489 66.7872 61.0959C66.7872 61.0428 66.7872 60.9897 66.7872 60.9367C66.7872 60.8836 66.7872 60.8306 66.7872 60.7775C66.7872 60.7244 66.7872 60.6714 66.7872 60.6183C66.7872 60.5653 66.7872 60.5122 66.7872 60.4591C66.7872 60.4061 66.7872 60.353 66.7872 60.3C66.7872 60.2469 66.7872 60.1938 66.7872 60.1408C66.7872 60.0877 66.7872 60.0346 66.7872 59.9816C66.7872 59.9285 66.7872 59.8755 66.7872 59.8224C66.7872 59.7693 66.7872 59.7163 66.7872 59.6632C66.7872 59.6102 66.7872 59.5571 66.7872 59.504C66.7872 59.451 66.7872 59.3979 66.7872 59.3449C66.7872 59.2918 66.7872 59.2387 66.7872 59.1857C66.7872 59.1326 66.7872 59.0795 66.7872 59.0265C66.7872 58.9734 66.7872 58.9204 66.7872 58.8673C66.7872 58.8142 66.7872 58.7612 66.7872 58.7081C66.7872 58.6551 66.7872 58.602 66.7872 58.5489C66.7872 58.4959 66.7872 58.4428 66.7872 58.3897C66.7872 58.3367 66.7872 58.2836 66.7872 58.2306C66.7872 58.1775 66.7872 58.1244 66.7872 58.0714C66.7872 58.0183 66.7872 57.9653 66.7872 57.9122C66.7872 57.8591 66.7872 57.8061 66.7872 57.753C66.7872 57.6999 66.7872 57.6469 66.7872 57.5938C66.7872 57.5408 66.7872 57.4877 66.7872 57.4346C66.7872 57.3816 66.7872 57.3285 66.7872 57.2755C66.7872 57.2224 66.7872 57.1693 66.7872 57.1163C66.7872 57.0632 66.7872 57.0101 66.7872 56.9571C66.7872 56.904 66.7872 56.851 66.7872 56.7979C66.7872 56.7448 66.7872 56.6918 66.7872 56.6387C66.7872 56.5857 66.7872 56.5326 66.7872 56.4795C66.7872 56.4265 66.7872 56.3734 66.7872 56.3203C66.7872 56.2673 66.7872 56.2142 66.7872 56.1612C66.7872 56.1081 66.7872 56.055 66.7872 56.002C66.7872 55.9489 66.7872 55.8959 66.7872 55.8428C66.7872 55.7897 66.7872 55.7367 66.7872 55.6836C66.7872 55.6306 66.7872 55.5775 66.7872 55.5244C66.7872 55.4714 66.7872 55.4183 66.7872 55.3652C66.7872 55.3122 66.7872 55.2591 66.7872 55.2061C66.7872 55.153 66.7872 55.0999 66.7872 55.0469C66.7872 54.9938 66.7872 54.9408 66.7872 54.8877L66.7739 54.9231ZM13.2191 27.2338C13.0063 26.827 12.767 26.3406 12.4966 25.7614C12.4079 25.558 12.3059 25.3855 12.1951 25.2308C12.7625 25.7481 13.0994 26.4158 13.2191 27.2338Z" fill="#0D7383"/>
<path d="M43.5141 21.6712C43.257 21.6712 42.9733 21.7463 42.663 21.9011C42.3526 22.0558 42.0202 22.131 41.6567 22.131C40.9341 22.131 38.9747 20.9239 35.7785 18.5052C32.6311 16.0864 31.0619 14.6494 31.0619 14.1851L32.5336 11.4082C32.5336 10.6344 31.6559 10.2231 29.9049 10.1745C27.9987 10.3293 26.8638 10.3558 26.5003 10.2497C26.0349 10.148 25.4674 9.68369 24.7981 8.86124C24.1287 8.08743 23.3263 7.62756 22.3998 7.4728C20.5424 7.11463 19.2036 5.77483 18.3791 3.46224C17.6565 1.29999 16.2646 0.221069 14.2033 0.221069C13.0684 0.221069 11.7784 0.375832 10.3377 0.685357C8.94574 0.994882 7.8641 1.14964 7.08833 1.14964H6.93317C6.84008 1.41053 6.73369 1.69352 6.62286 1.99863C6.41451 2.46291 6.26379 2.94931 6.1574 3.46666C6.1042 3.72312 5.87369 4.00612 5.46142 4.31564L3.75916 7.24729L3.44885 9.48471C3.6572 10.0507 3.2937 10.6697 2.36721 11.3374C1.75102 11.7929 1.23236 12.3058 0.820097 12.8806C1.13041 13.1194 1.38752 13.4024 1.59587 13.7296C2.4204 15.065 3.16957 15.7371 3.83895 15.7371C4.56153 15.7371 5.43926 16.1218 6.46771 16.8956C7.4474 17.6164 8.40049 17.9259 9.33141 17.8198C10.2091 17.665 11.0603 17.8728 11.8848 18.4388C12.8113 19.1065 13.2768 20.0837 13.2768 21.3705C13.2768 21.7817 13.6137 22.529 14.283 23.6079C14.9524 24.7399 15.2893 25.7436 15.2893 26.6147C15.2893 27.0259 15.1874 27.4372 14.979 27.8484C14.6687 28.3127 14.3362 28.5161 13.9727 28.4674C13.6624 28.1093 13.1748 27.2072 12.501 25.7657C12.1419 24.9433 11.5745 24.532 10.7987 24.532C9.0477 24.532 7.80647 25.1511 7.08389 26.3848C6.82678 27.1586 6.56967 27.7467 6.30812 28.1579C5.89585 28.9273 5.19988 29.3164 4.22019 29.3164C3.59957 29.2634 3.31586 29.6525 3.36906 30.4749C3.36906 30.9392 3.39566 31.5804 3.44442 32.4028C3.03215 33.0219 2.61989 33.4552 2.20762 33.7161C1.75102 33.9902 1.26339 34.2732 0.73587 34.5651C1.37422 34.6181 2.09679 34.6181 2.9036 34.5651C3.31586 34.5651 3.78132 34.7198 4.29555 35.0294C4.91617 35.4406 5.45699 35.6705 5.91802 35.7236C6.33029 35.7766 6.76915 35.8253 7.23461 35.8783C7.49173 35.98 7.62028 36.3913 7.62028 37.112C7.62028 37.678 7.51832 38.0892 7.30997 38.3457C6.9509 38.6552 6.66719 39.1416 6.45884 39.8137C7.64688 40.3797 9.32255 41.7416 11.4858 43.9039C13.6004 46.0131 14.8904 47.1451 15.3514 47.2998C15.8169 47.5076 16.5394 47.711 17.5191 47.9189C18.2949 48.1753 18.7293 48.6662 18.8357 49.3869C18.8889 50.006 19.1948 50.6471 19.7622 51.3148C20.2764 51.9339 20.538 52.6281 20.538 53.3975C20.538 53.7556 20.3562 54.3747 19.9972 55.2502C19.6381 56.1257 19.4563 56.8951 19.4563 57.5628C19.4563 58.2305 19.8686 58.9778 20.6931 59.8002C21.4645 60.6757 21.8546 61.4186 21.8546 62.0376C21.8546 62.4489 21.6462 62.9132 21.234 63.4261C20.7685 63.8904 20.538 64.4298 20.538 65.0444C20.538 66.1234 21.6728 66.6628 23.9425 66.6628L26.1102 66.1234C27.6573 65.7121 28.8188 65.5043 29.5901 65.5043C30.7781 65.5043 32.5026 65.6856 34.7723 66.0438C35.5968 66.0438 36.244 65.889 36.705 65.5795C37.2193 65.27 37.6315 65.1152 37.9418 65.1152C38.6644 65.1152 39.4357 65.4999 40.2603 66.2737C41.0316 66.9945 41.5503 67.7417 41.8074 68.5111C41.9625 68.9224 42.2995 69.3071 42.8137 69.6696C43.4343 70.1339 43.8953 70.6203 44.2056 71.1377C44.977 72.3227 45.3671 73.1938 45.3671 73.7598C45.3671 74.0163 45.2651 74.4275 45.0568 74.9935C44.8484 75.5064 44.7465 75.9176 44.7465 76.2271L45.7527 78.4646C46.329 78.1418 46.8211 77.9384 47.2245 77.8455C47.9471 77.6377 49.1085 77.4608 50.7044 77.3061C52.0431 77.1513 53.0007 76.7401 53.5681 76.0724C53.8296 75.785 54.0912 75.555 54.3394 75.3782C54.3483 73.5166 55.0177 72.0795 56.352 71.0581C57.1278 70.439 58.5685 69.3115 60.683 67.6621C60.8914 67.4543 61.1219 66.9414 61.379 66.1189C61.5873 65.4999 61.9198 65.04 62.3853 64.7305C63.9856 63.1342 64.7835 62.1349 64.7835 61.7193C64.7835 61.3036 64.8367 60.0213 64.9387 57.8635C66.4946 57.4832 67.0621 56.0152 66.6409 53.4638V53.309C65.4529 53.9281 64.6815 54.2332 64.3225 54.2332C60.918 53.256 59.2157 52.4335 59.2157 51.7658C59.2157 51.6111 59.4462 51.2264 59.9117 50.6073C60.3239 50.0413 60.5323 49.4223 60.5323 48.7546C59.1935 44.7927 58.236 42.4005 57.6686 41.578C56.6357 40.1365 55.2437 38.8763 53.4927 37.7974C52.0476 37.0767 51.325 36.6389 51.325 36.4841C51.8392 35.0957 52.0963 33.862 52.0963 32.7787C52.0963 31.6953 51.786 30.4661 51.1698 29.228C50.5005 27.8926 49.6493 26.9375 48.6164 26.3715C47.8451 26.0133 47.2511 25.7304 46.8388 25.5225C46.1162 25.1644 45.7306 24.7487 45.6774 24.2888C45.5222 23.6698 45.2651 23.1038 44.906 22.5909C44.4938 21.9718 44.0283 21.6667 43.5141 21.6667" fill="#7EC0B2"/>
<path d="M43.5141 21.6712C43.257 21.6712 42.9733 21.7463 42.663 21.9011C42.3526 22.0558 42.0202 22.131 41.6567 22.131C40.9341 22.131 38.9747 20.9239 35.7785 18.5052C32.6311 16.0864 31.0619 14.6494 31.0619 14.1851L32.5336 11.4082C32.5336 10.6344 31.6559 10.2231 29.9049 10.1745C27.9987 10.3293 26.8638 10.3558 26.5003 10.2497C26.0349 10.148 25.4674 9.68369 24.7981 8.86124C24.1287 8.08743 23.3263 7.62756 22.3998 7.4728C20.5424 7.11463 19.2036 5.77483 18.3791 3.46224C17.6565 1.29999 16.2646 0.221069 14.2033 0.221069C13.0684 0.221069 11.7784 0.375832 10.3377 0.685357C8.94574 0.994882 7.8641 1.14964 7.08832 1.14964H6.93317C6.84008 1.41053 6.73369 1.69352 6.62286 1.99863C6.41451 2.46291 6.26379 2.94931 6.1574 3.46666C6.1042 3.72312 5.87369 4.00612 5.46142 4.31564L3.75916 7.24729L3.44885 9.48471C3.6572 10.0507 3.2937 10.6697 2.36721 11.3374C1.75102 11.7929 1.23236 12.3058 0.820097 12.8806C1.13041 13.1194 1.38752 13.4024 1.59587 13.7296C2.4204 15.065 3.16957 15.7371 3.83895 15.7371C4.56153 15.7371 5.43926 16.1218 6.46771 16.8956C7.4474 17.6164 8.40049 17.9259 9.33141 17.8198C10.2091 17.665 11.0603 17.8728 11.8848 18.4388C12.8113 19.1065 13.2768 20.0837 13.2768 21.3705C13.2768 21.7817 13.6137 22.529 14.283 23.6079C14.9524 24.7399 15.2893 25.7436 15.2893 26.6147C15.2893 27.0259 15.1874 27.4372 14.979 27.8484C14.6687 28.3127 14.3362 28.5161 13.9727 28.4674C13.6624 28.1093 13.1748 27.2072 12.501 25.7657C12.1419 24.9433 11.5745 24.532 10.7987 24.532C9.0477 24.532 7.80647 25.1511 7.08389 26.3848C6.82678 27.1586 6.56967 27.7467 6.30812 28.1579C5.89585 28.9273 5.19988 29.3164 4.22019 29.3164C3.59957 29.2634 3.31586 29.6525 3.36906 30.4749C3.36906 30.9392 3.39566 31.5804 3.44442 32.4028C3.03215 33.0219 2.61989 33.4552 2.20762 33.7161C1.75102 33.9902 1.26339 34.2732 0.73587 34.5651C1.37422 34.6181 2.09679 34.6181 2.9036 34.5651C3.31586 34.5651 3.78132 34.7198 4.29555 35.0294C4.91617 35.4406 5.45699 35.6705 5.91802 35.7236C6.33029 35.7766 6.76915 35.8253 7.23461 35.8783C7.49173 35.9801 7.62028 36.3913 7.62028 37.112C7.62028 37.678 7.51832 38.0892 7.30997 38.3457C6.9509 38.6552 6.66719 39.1416 6.45884 39.8137C7.64688 40.3797 9.32254 41.7416 11.4858 43.9039C13.6004 46.0131 14.8904 47.1451 15.3514 47.2998C15.8169 47.5076 16.5394 47.711 17.5191 47.9189C18.2949 48.1753 18.7293 48.6662 18.8357 49.3869C18.8889 50.006 19.1948 50.6471 19.7622 51.3148C20.2764 51.9339 20.538 52.6281 20.538 53.3975C20.538 53.7556 20.3562 54.3747 19.9972 55.2502C19.6381 56.1257 19.4563 56.8951 19.4563 57.5628C19.4563 58.2305 19.8686 58.9778 20.6931 59.8002C21.4645 60.6757 21.8546 61.4186 21.8546 62.0376C21.8546 62.4489 21.6462 62.9131 21.234 63.4261C20.7685 63.8904 20.538 64.4298 20.538 65.0445C20.538 66.1234 21.6728 66.6628 23.9425 66.6628L26.1102 66.1234C27.6573 65.7121 28.8188 65.5043 29.5901 65.5043C30.7781 65.5043 32.5026 65.6856 34.7723 66.0438C35.5968 66.0438 36.244 65.889 36.705 65.5795C37.2193 65.27 37.6315 65.1152 37.9418 65.1152C38.6644 65.1152 39.4357 65.4999 40.2603 66.2737C41.0316 66.9945 41.5503 67.7417 41.8074 68.5111C41.9625 68.9224 42.2995 69.307 42.8137 69.6696C43.4343 70.1339 43.8953 70.6203 44.2056 71.1377C44.977 72.3227 45.3671 73.1938 45.3671 73.7598C45.3671 74.0163 45.2651 74.4275 45.0568 74.9935C44.8484 75.5064 44.7465 75.9176 44.7465 76.2271L45.7527 78.4646C46.329 78.1418 46.8211 77.9384 47.2245 77.8455C47.9471 77.6377 49.1085 77.4608 50.7044 77.3061C52.0431 77.1513 53.0007 76.7401 53.5681 76.0724C53.8296 75.785 54.0912 75.555 54.3394 75.3782C54.3483 73.5166 55.0177 72.0795 56.352 71.0581C57.1278 70.439 58.5685 69.3115 60.683 67.6621C60.8914 67.4543 61.1219 66.9414 61.379 66.1189C61.5873 65.4999 61.9198 65.04 62.3853 64.7305C63.9856 63.1342 64.7835 62.1349 64.7835 61.7193C64.7835 61.3036 64.8367 60.0213 64.9387 57.8635C66.4946 57.4832 67.0621 56.0152 66.6409 53.4638V53.309C65.4529 53.9281 64.6815 54.2332 64.3225 54.2332C60.918 53.256 59.2157 52.4335 59.2157 51.7658C59.2157 51.6111 59.4462 51.2264 59.9117 50.6073C60.3239 50.0413 60.5323 49.4223 60.5323 48.7546C59.1935 44.7927 58.236 42.4005 57.6686 41.578C56.6357 40.1365 55.2437 38.8763 53.4927 37.7974C52.0476 37.0767 51.325 36.6389 51.325 36.4841C51.8392 35.0957 52.0963 33.862 52.0963 32.7787C52.0963 31.6953 51.786 30.4661 51.1698 29.228C50.5005 27.8926 49.6493 26.9375 48.6164 26.3715C47.8451 26.0133 47.2511 25.7304 46.8388 25.5225C46.1162 25.1644 45.7306 24.7487 45.6774 24.2888C45.5222 23.6698 45.2651 23.1038 44.906 22.5909C44.4938 21.9718 44.0283 21.6667 43.5141 21.6667" stroke="#ECEDE7" stroke-miterlimit="10"/>
</g>
<defs>
<clipPath id="clip0_48_2176">
<rect width="67" height="85" fill="white"/>
</clipPath>
</defs>
</svg>
