<?xml version="1.0" encoding="UTF-8"?>
<svg id="_圖層_1" data-name="圖層_1" xmlns="http://www.w3.org/2000/svg" version="1.1" viewBox="0 0 245 444">
  <!-- Generator: Adobe Illustrator 29.8.3, SVG Export Plug-In . SVG Version: 2.1.1 Build 3)  -->
  <defs>
    <style>
      .st0 {
        fill: #7dbeb1;
        stroke: #ebede7;
        stroke-miterlimit: 10;
      }

      .st1 {
        fill: #077383;
      }
    </style>
  </defs>
  <path class="st1" d="M243.59,18.14c.05-.12.12-.22.17-.34-1.16-.75-2.26-1.34-3.32-1.74-3.72-1.51-7.97-2.68-12.74-3.49-4.19-.7-6.86-1.4-8.03-2.09-1.4-.7-3.61-1.4-6.63-2.09-2.56-.47-4.3-1.16-5.23-2.09-1.63-1.86-2.79-3.08-3.49-3.66-1.16-1.05-2.79-1.92-4.89-2.62h-2.27v10.23c-.32.14-.66.24-1.05.24-.58,0-1.22-.23-1.92-.7h-3.32v7.46c-2.19-.47-5.78-1.73-10.82-3.8-6.51-2.68-10.29-4.01-11.34-4.01l-9.77,1.22c-1.86,0-4.94-1.92-9.25-5.76-2.48-2.14-4.8-3.65-6.98-4.54.04.16.06.33.09.49-.03-.01-.06-.03-.09-.04.04.16.06.33.09.49-.03-.01-.06-.03-.09-.04.04.16.06.33.09.49-.03-.01-.06-.03-.09-.04.04.16.06.33.09.49-.03-.01-.06-.03-.09-.04.04.16.06.33.09.49-.03-.01-.06-.03-.09-.04.04.16.06.33.09.49-.03-.01-.06-.03-.09-.04.04.16.06.33.09.49-.03-.01-.06-.03-.09-.04.01.05.02.11.03.17-1.12.04-2.29.55-3.52,1.55-1.16,1.05-1.74,1.86-1.74,2.44l.05.24c-.01.07-.05.15-.05.21l.05.24c-.01.07-.05.15-.05.21l.05.24c-.01.07-.05.15-.05.21l.05.24c-.01.07-.05.15-.05.21l.05.24c-.01.07-.05.15-.05.21l.05.24c-.01.07-.05.15-.05.21l.05.24c-.01.07-.05.15-.05.21l.05.24c-.01.07-.05.15-.05.21l.05.24c-.01.07-.05.15-.05.21l.05.24c-.01.07-.05.15-.05.21l.05.24c-.01.07-.05.15-.05.21l.05.24c-.01.07-.05.15-.05.21l.05.24c-.01.07-.05.15-.05.21l.05.24c-.01.07-.05.15-.05.21l.05.24c-.01.07-.05.15-.05.21l.05.24c-.01.07-.05.15-.05.21l.05.24c-.01.07-.05.15-.05.21l.05.24c-.01.07-.05.15-.05.21l.04.21c-1.88,1.63-3.75,3.32-5.62,5.1-4.77,4.42-7.27,8.78-7.5,13.09-.23,2.79-.52,4.42-.87,4.89-1.05,1.86-3.61,3.61-7.68,5.23-2.73,1.05-5.4,2.33-8.03,3.84.08.11.15.22.22.33-.07.04-.15.08-.22.12.08.11.15.22.22.33-.07.04-.15.08-.22.12.08.11.15.22.22.33-.07.04-.15.08-.22.12.08.11.15.22.22.33-.07.04-.15.08-.22.12.08.11.15.22.22.33-.07.04-.15.08-.22.12.08.11.15.22.22.33-.07.04-.15.08-.22.12.08.11.15.22.22.33-.07.04-.15.08-.22.12.08.11.15.22.22.33-.07.04-.15.08-.22.12.08.11.15.22.22.33-.07.04-.15.08-.22.12.08.11.15.22.22.33-.07.04-.15.08-.22.12.08.11.15.22.22.33-.07.04-.15.08-.22.12.08.11.15.22.22.33-.07.04-.15.08-.22.12.08.11.15.22.22.33-.07.04-.15.08-.22.12.08.11.15.22.22.33-.07.04-.15.08-.22.12.08.11.15.22.22.33-.07.04-.15.08-.22.12.08.11.15.22.22.33-.07.04-.15.08-.22.12.08.11.15.22.22.33-.07.04-.15.08-.22.12.08.11.15.22.22.33-.07.04-.15.08-.22.12.08.11.15.22.22.33-.07.04-.15.08-.22.12.08.11.15.22.22.33-.07.04-.15.08-.22.12.08.11.15.22.22.33-.07.04-.15.08-.22.12.08.11.15.22.22.33-.07.04-.15.08-.22.12.03.04.05.08.08.12-.79.43-1.8.86-3.04,1.29-3.84,1.16-6.11,2.38-6.81,3.66-.58,1.05-2.09,2.73-4.54,5.06-1.51,1.4-2.27,3.14-2.27,5.23,0,.11,0,.21,0,.31,0,.05,0,.09,0,.14,0,.11,0,.21,0,.31,0,.05,0,.09,0,.14,0,.11,0,.21,0,.31,0,.05,0,.09,0,.14,0,.11,0,.21,0,.31,0,.05,0,.09,0,.14,0,.11,0,.21,0,.31,0,.05,0,.09,0,.14,0,.11,0,.21,0,.31,0,.05,0,.09,0,.14,0,.11,0,.21,0,.31,0,.05,0,.09,0,.14,0,.11,0,.21,0,.31,0,.05,0,.09,0,.14,0,.11,0,.21,0,.31,0,.05,0,.09,0,.14,0,.11,0,.21,0,.31,0,.05,0,.09,0,.14,0,.11,0,.21,0,.31,0,.05,0,.09,0,.14,0,.11,0,.21,0,.31,0,.05,0,.09,0,.14,0,.11,0,.21,0,.31,0,.05,0,.09,0,.14,0,.11,0,.21,0,.31,0,.05,0,.09,0,.14,0,.11,0,.21,0,.31,0,.05,0,.09,0,.14,0,.11,0,.21,0,.31,0,.05,0,.09,0,.14,0,.11,0,.21,0,.31,0,.05,0,.09,0,.14,0,.11,0,.21,0,.31,0,.05,0,.09,0,.14,0,.11,0,.21,0,.31,0,.05,0,.09,0,.14,0,.11,0,.21,0,.31,0,.05,0,.09,0,.14,0,.11,0,.21,0,.31,0,.05,0,.09,0,.14,0,.11,0,.21,0,.31,0,.05,0,.09,0,.14,0,.11,0,.21,0,.31,0,.05,0,.09,0,.14,0,.11,0,.21,0,.31,0,.05,0,.09,0,.14,0,.11,0,.21,0,.31,0,.05,0,.09,0,.14,0,.11,0,.21,0,.31,0,.05,0,.09,0,.14,0,.11,0,.21,0,.31,0,.05,0,.09,0,.14,0,.11,0,.21,0,.31,0,.05,0,.09,0,.14,0,.11,0,.21,0,.31,0,.05,0,.09,0,.14,0,.11,0,.21,0,.31,0,.05,0,.09,0,.14,0,.11,0,.21,0,.31,0,.05,0,.09,0,.14,0,2.91.47,4.89,1.4,5.93.47.7,2.09,1.69,4.89,2.97,1.04.47,1.93.9,2.7,1.28-.49.67-.99,1.33-1.48,2-4.77,6.4-7.15,9.83-7.15,10.3l.05.28c-.03.07-.05.14-.05.18l.05.28c-.03.08-.05.14-.05.18l.05.28c-.03.07-.05.14-.05.18l.05.28c-.03.07-.05.14-.05.18l.05.28c-.03.07-.05.14-.05.18l.05.28c-.03.08-.05.14-.05.18l.05.28c-.03.07-.05.14-.05.18l.05.28c-.03.08-.05.14-.05.18l.05.28c-.03.07-.05.14-.05.18l.05.28c-.03.08-.05.14-.05.18l.05.28c-.03.07-.05.14-.05.18l.05.28c-.03.07-.05.14-.05.18l.05.28c-.03.07-.05.14-.05.18l.05.28c-.03.08-.05.14-.05.18l.05.28c-.03.07-.05.14-.05.18l.05.28c-.03.07-.05.14-.05.18l.05.28c-.03.08-.05.14-.05.18l.05.28c-.03.07-.05.14-.05.18l.05.28c-.03.07-.05.14-.05.18l.05.28c-.03.08-.05.14-.05.18l.05.28c-.03.07-.05.14-.05.18l.05.28c-.03.07-.05.14-.05.18v.06c-.57,1.7-1.45,3.31-2.62,4.84-2.44,2.33-3.66,3.55-3.66,3.66,0,.03.04.12.13.27-.08.09-.13.16-.13.18,0,.03.04.12.13.27-.08.09-.13.16-.13.18,0,.03.04.12.13.27-.08.09-.13.16-.13.18,0,.03.04.12.13.27-.08.09-.13.16-.13.18,0,.03.04.12.13.27-.08.09-.13.16-.13.18,0,.03.04.12.13.27-.08.09-.13.16-.13.18,0,.03.04.12.13.27-.08.09-.13.16-.13.18,0,.03.04.12.13.27-.08.09-.13.16-.13.18,0,.03.04.12.13.27-.08.09-.13.16-.13.18,0,.03.04.12.13.27-.08.09-.13.16-.13.18,0,.03.04.12.13.27-.08.09-.13.16-.13.18,0,.03.04.12.13.27-.08.09-.13.16-.13.18,0,.03.04.12.13.27-.08.09-.13.16-.13.18,0,.03.04.12.13.27-.08.09-.13.16-.13.18,0,.03.04.12.13.27-.08.09-.13.16-.13.18,0,.03.04.12.13.27-.08.09-.13.16-.13.18,0,.03.04.12.13.27-.08.09-.13.16-.13.18,0,.03.04.12.13.27-.08.09-.13.16-.13.18,0,.03.04.12.13.27-.08.09-.13.16-.13.18,0,.03.04.12.13.27-.08.09-.13.16-.13.18,0,.03.04.12.13.27-.08.09-.13.16-.13.18,0,.03.04.12.13.27-.08.09-.13.16-.13.18,0,.03.04.12.13.27-.08.09-.13.16-.13.18,0,.03.04.12.13.27-.08.09-.13.16-.13.18,0,.03.04.12.13.27-.08.09-.13.16-.13.18,0,.03.04.12.13.27-.08.09-.13.16-.13.18,0,.03.04.12.13.27-.08.09-.13.16-.13.18,0,.03.04.12.13.27-.08.09-.13.16-.13.18,0,.03.04.12.13.27-.08.09-.13.16-.13.18,0,.03.04.12.13.27-.08.09-.13.16-.13.18,0,.03.04.12.13.27-.08.09-.13.16-.13.18,0,.12.7,1.22,2.09,3.32,1.31,1.91,2,3.47,2.09,4.69v3.4c-.15.85-.61,1.51-1.4,1.99-1.28.7-1.92,1.51-1.92,2.44,0,.05.02.12.02.17-.01.09-.02.19-.02.28,0,.05.02.12.02.17-.01.09-.02.19-.02.28,0,.05.02.12.02.17-.01.09-.02.19-.02.28,0,.05.02.12.02.17-.01.09-.02.19-.02.28,0,.05.02.12.02.17-.01.09-.02.19-.02.28,0,.05.02.12.02.17-.01.09-.02.19-.02.28,0,.05.02.12.02.17-.01.09-.02.19-.02.28,0,.05.02.12.02.17-.01.09-.02.19-.02.28,0,.05.02.12.02.17-.01.09-.02.19-.02.28,0,.05.02.12.02.17-.01.09-.02.19-.02.28,0,.05.02.12.02.17-.01.09-.02.19-.02.28,0,.05.02.12.02.17-.01.09-.02.19-.02.28,0,.05.02.12.02.17-.01.09-.02.19-.02.28,0,.05.02.12.02.17-.01.09-.02.19-.02.28,0,.05.02.12.02.17-.01.09-.02.19-.02.28,0,.05.02.12.02.17-.01.09-.02.19-.02.28,0,.05.02.12.02.17-.01.09-.02.19-.02.28,0,.05.02.12.02.17-.01.09-.02.19-.02.28,0,.05.02.12.02.17-.01.09-.02.19-.02.28,0,.05.02.12.02.17-.01.09-.02.19-.02.28,0,.05.02.12.02.17-.01.07-.02.14-.02.21-.37.28-.77.57-1.23.88-2.68,1.86-4.13,3.2-4.36,4.01-.93,2.79-1.74,6.4-2.44,10.82-.47,1.28-.81,3.14-1.05,5.58-.23,1.98-.76,3.66-1.57,5.06-.7.93-2.27,1.92-4.71,2.97-1.98.7-2.97,1.98-2.97,3.84,0,.05.02.1.02.15,0,.1-.02.2-.02.3,0,.05.02.1.02.15,0,.1-.02.2-.02.31,0,.05.02.1.02.15,0,.1-.02.2-.02.3,0,.05.02.1.02.15,0,.1-.02.2-.02.3,0,.05.02.1.02.15,0,.1-.02.2-.02.3,0,.05.02.1.02.15,0,.1-.02.2-.02.3,0,.05.02.1.02.15,0,.1-.02.2-.02.3,0,.05.02.1.02.15,0,.1-.02.2-.02.3,0,.05.02.1.02.15,0,.1-.02.2-.02.3,0,.05.02.1.02.15,0,.1-.02.2-.02.3,0,.05.02.1.02.15,0,.1-.02.2-.02.3,0,.05.02.1.02.15,0,.1-.02.2-.02.3,0,.05.02.1.02.15,0,.1-.02.2-.02.3,0,.05.02.1.02.15,0,.1-.02.2-.02.3,0,.05.02.1.02.15,0,.1-.02.2-.02.3,0,.05.02.1.02.15,0,.1-.02.2-.02.3,0,.05.02.1.02.15,0,.1-.02.2-.02.3,0,.05.02.1.02.15,0,.1-.02.2-.02.3,0,.05.02.1.02.15,0,.1-.02.2-.02.31,0,.05.02.1.02.15,0,.1-.02.2-.02.3,0,.05.02.1.02.15,0,.1-.02.2-.02.3,0,.05.02.1.02.15,0,.1-.02.2-.02.3,0,.05.02.1.02.15,0,.1-.02.2-.02.31,0,.05.02.1.02.15,0,.1-.02.2-.02.3,0,.05.02.1.02.15,0,.1-.02.2-.02.3,0,.05.02.1.02.15,0,.1-.02.2-.02.3,0,.05.02.1.02.15,0,.1-.02.2-.02.3,0,.05.02.1.02.15,0,.1-.02.2-.02.3,0,.05.02.1.02.15,0,.1-.02.2-.02.3,0,.05.02.1.02.15,0,.1-.02.2-.02.3,0,.05.02.1.02.15,0,.1-.02.2-.02.3,0,1.51,1.74,3.08,5.23,4.71,1.21.54,2.19,1.05,2.97,1.53,0,0,0,0,0,0,.01.02.02.03.03.05-.01.13-.03.27-.03.4.01.02.02.03.03.05-.01.13-.03.27-.03.4.01.02.02.03.03.05-.01.13-.03.27-.03.4.01.02.02.03.03.05-.01.13-.03.27-.03.4.01.02.02.03.03.05-.01.13-.03.27-.03.4.01.02.02.03.03.05-.01.13-.03.27-.03.4.01.02.02.03.03.05-.01.13-.03.27-.03.4.01.02.02.03.03.05-.01.13-.03.27-.03.4.01.02.02.03.03.05-.01.13-.03.27-.03.4.01.02.02.03.03.05-.01.13-.03.27-.03.4.01.02.02.03.03.05-.01.13-.03.27-.03.4.01.02.02.03.03.05-.01.13-.03.27-.03.4.01.02.02.03.03.05-.01.13-.03.27-.03.4.01.02.02.03.03.05-.01.13-.03.27-.03.4.01.02.02.03.03.05-.01.13-.03.27-.03.4.01.02.02.03.03.05-.01.13-.03.27-.03.4.01.02.02.03.03.05-.01.13-.03.27-.03.4.01.02.02.03.03.05-.01.13-.03.27-.03.4.01.02.02.03.03.05-.01.13-.03.27-.03.4.59.9,1.11,1.72,1.56,2.45-.49,1.8-.95,3.36-1.39,4.66-.56,2.18-1.15,5.55-1.74,10.12-.59,4.55-1.58,7.57-2.97,9.07-.23.23-2.38,1.63-6.46,4.19-.7.47-1.63,1.74-2.79,3.84-.93,1.63-2.04,2.44-3.32,2.44l-4.89-1.74h-2.44v15.92c.09.15.19.35.31.6-.16.31-.31.61-.48.93-2.21,4.19-4.25,6.28-6.11,6.28-.93,0-2.5-.29-4.71-.87-2.21-.7-4.36-1.05-6.46-1.05-2.09.12-4.07.35-5.93.7-3.84.81-5.76,2.09-5.76,3.84,0,.08.02.19.02.28,0,.06-.02.11-.02.17,0,.08.02.19.02.28,0,.06-.02.11-.02.17,0,.08.02.19.02.28,0,.06-.02.11-.02.17,0,.08.02.19.02.28,0,.06-.02.11-.02.17,0,.08.02.19.02.28,0,.06-.02.11-.02.17,0,.08.02.19.02.28,0,.06-.02.11-.02.17,0,.08.02.19.02.28,0,.06-.02.11-.02.17,0,.08.02.19.02.28,0,.06-.02.11-.02.17,0,.08.02.19.02.28,0,.06-.02.11-.02.17,0,.08.02.19.02.28,0,.06-.02.11-.02.17,0,.08.02.19.02.28,0,.06-.02.11-.02.17,0,.05.01.12.02.18-.38.59-.9,1.2-1.59,1.83-1.63,1.4-2.44,2.38-2.44,2.97,0,.08.03.16.03.24-.02.07-.03.14-.03.21,0,.08.03.16.03.24-.02.07-.03.14-.03.21,0,.08.03.16.03.24-.02.07-.03.14-.03.21,0,.08.03.16.03.24-.02.07-.03.14-.03.21,0,.08.03.16.03.24-.02.07-.03.14-.03.21,0,.08.03.16.03.24-.02.07-.03.14-.03.21,0,.08.03.16.03.24-.02.07-.03.14-.03.21,0,.08.03.16.03.24-.02.07-.03.14-.03.21,0,.08.03.16.03.24-.02.07-.03.14-.03.21,0,.08.03.16.03.24-.02.07-.03.14-.03.21,0,.08.03.16.03.24-.02.07-.03.14-.03.21,0,.08.03.16.03.24-.02.07-.03.14-.03.21,0,.08.03.16.03.24-.02.07-.03.14-.03.21,0,.08.03.16.03.24-.02.07-.03.14-.03.21,0,.08.03.16.03.24-.02.07-.03.14-.03.21,0,.08.03.16.03.24-.02.07-.03.14-.03.21,0,.08.03.16.03.24-.02.07-.03.14-.03.21,0,.08.03.16.03.24-.02.07-.03.14-.03.21,0,.08.03.16.03.24-.02.07-.03.14-.03.21,0,.08.03.16.03.24-.02.07-.03.14-.03.21,0,.08.03.16.03.24-.02.07-.03.14-.03.21,0,.08.03.16.03.24-.02.07-.03.14-.03.21,0,.08.03.16.03.24-.02.07-.03.14-.03.21,0,.02,0,.04,0,.05-.82.69-1.8,1.4-2.97,2.12-.92.55-1.91,1.07-2.97,1.57.06.12.1.25.16.37-.05.03-.1.05-.16.08.06.12.1.25.16.37-.05.03-.1.05-.16.08.06.12.1.25.16.37-.05.03-.1.05-.16.08.06.12.1.25.16.37-.05.03-.1.05-.16.08.06.12.1.25.16.37-.05.03-.1.05-.16.08.06.12.1.25.16.37-.05.03-.1.05-.16.08.06.12.1.25.16.37-.05.03-.1.05-.16.08.06.12.1.25.16.37-.05.03-.1.05-.16.08.06.12.1.25.16.37-.05.03-.1.05-.16.08.06.12.1.25.16.37-.05.03-.1.05-.16.08.06.12.1.25.16.37-.05.03-.1.05-.16.08.06.12.1.25.16.37-.05.03-.1.05-.16.08.06.12.1.25.16.37-.05.03-.1.05-.16.08.06.12.1.25.16.37-.05.03-.1.05-.16.08.06.12.1.25.16.37-.05.03-.1.05-.16.08.06.12.1.25.16.37-.05.03-.1.05-.16.08.06.12.1.25.16.37-.05.03-.1.05-.16.08.06.12.1.25.16.37-.05.03-.1.05-.16.08.06.12.1.25.16.37-.05.03-.1.05-.16.08.06.12.1.25.16.37-.05.03-.1.05-.16.08.05.1.08.19.12.29-1.19,1.02-3.02,2.5-5.53,4.46C2.38,332.52,0,335.19,0,336.94c0,.1.01.2.02.3,0,.05-.02.1-.02.15,0,.1.01.2.02.3,0,.05-.02.1-.02.15,0,.1.01.2.02.3,0,.05-.02.1-.02.15,0,.1.01.2.02.3,0,.05-.02.1-.02.15,0,.1.01.2.02.3,0,.05-.02.1-.02.15,0,.1.01.2.02.3,0,.05-.02.1-.02.15,0,.1.01.2.02.3,0,.05-.02.1-.02.15,0,.1.01.2.02.3,0,.05-.02.1-.02.15,0,.1.01.2.02.3,0,.05-.02.1-.02.15,0,.1.01.2.02.3,0,.05-.02.1-.02.15,0,.1.01.2.02.3,0,.05-.02.1-.02.15,0,.1.01.2.02.3,0,.05-.02.1-.02.15,0,.1.01.2.02.3,0,.05-.02.1-.02.15,0,.1.01.2.02.3,0,.05-.02.1-.02.15,0,.1.01.2.02.3,0,.05-.02.1-.02.15,0,.1.01.2.02.3,0,.05-.02.1-.02.15,0,.1.01.2.02.3,0,.05-.02.1-.02.15,0,.1.01.2.02.3,0,.05-.02.1-.02.15,0,.1.01.2.02.3,0,.05-.02.1-.02.15,0,.1.01.2.02.3,0,.05-.02.1-.02.15,0,.1.01.2.02.3,0,.05-.02.1-.02.15,0,.1.01.2.02.3,0,.05-.02.1-.02.15,0,.1.01.2.02.3,0,.05-.02.1-.02.15,0,.1.01.2.02.3,0,.05-.02.1-.02.15,0,.1.01.2.02.3,0,.05-.02.1-.02.15,0,.1.01.2.02.3,0,.05-.02.1-.02.15,0,.1.01.2.02.3,0,.05-.02.1-.02.15,0,.1.01.2.02.3,0,.05-.02.1-.02.15,0,.1.01.2.02.3,0,.05-.02.1-.02.15,0,.1.01.2.02.3,0,.05-.02.1-.02.15,0,.1.01.2.02.3,0,.05-.02.1-.02.15,0,2.33,3.02,5.18,9.07,8.55,4.31,2.4,7.08,5.14,8.32,8.19-.04.03-.07.07-.12.1.08.05.14.11.22.16,0,.02.02.05.03.07-.08.07-.15.14-.25.22.1.06.19.14.28.21-.09.08-.17.16-.28.25.1.06.19.14.28.21-.09.08-.17.16-.28.25.1.06.19.14.28.21-.09.08-.17.16-.28.25.1.06.19.14.28.21-.09.08-.17.16-.28.25.1.06.19.14.28.21-.09.08-.17.16-.28.25.1.06.19.14.28.21-.09.08-.17.16-.28.25.1.06.19.14.28.21-.09.08-.17.16-.28.25.1.06.19.14.28.21-.09.08-.17.16-.28.25.1.06.19.14.28.21-.09.08-.17.16-.28.25.1.06.19.14.28.21-.09.08-.17.16-.28.25,3.12,1.98,5.28,5.76,6.46,11.34,1.75,8.84,3.55,13.55,5.41,14.13,1.16.35,3.2.81,6.11,1.4,2.56.7,4.25,2.04,5.06,4.01.23.58,2.33,3.26,6.28,8.03.81,0,2.33-.81,4.54-2.44,2.21-1.63,4.19-2.44,5.93-2.44,3.26,0,5.87,1.28,7.85,3.84.89,1.24,1.48,2.46,1.76,3.65,0,.04,0,.07,0,.11,0,.15,0,.31,0,.45,0,.15,0,.31,0,.45,0,.15,0,.31,0,.45,0,.15,0,.31,0,.45,0,.15,0,.31,0,.45,0,.15,0,.31,0,.45,0,.15,0,.31,0,.45,0,.15,0,.31,0,.45,0,.15,0,.31,0,.45-.04,1.98.53,3.39,1.72,4.22.81.7,2.56,1.86,5.24,3.49.7.7,1.74,1.86,3.14,3.49,1.4,1.51,2.91,2.5,4.54,2.97,1.99.43,3.27,1.52,3.86,3.25,0,.04-.02.09-.03.13.02,0,.06.01.08.02,0,0,0,0,0,0-.03.14-.05.28-.08.42.02,0,.06.02.08.02-.03.14-.05.28-.08.43.02,0,.06.02.08.02-.03.14-.05.28-.08.43.02,0,.06.01.08.02-.03.14-.05.28-.08.43.02,0,.06.01.08.02-.03.14-.05.28-.08.43.02,0,.06.02.08.02-.03.14-.05.28-.08.43.02,0,.06.02.08.02-.03.14-.05.28-.08.43.02,0,.06.01.08.02-.03.14-.05.28-.08.43.02,0,.06.01.08.02-.03.14-.05.28-.08.43.02,0,.06.02.08.02-.03.14-.05.28-.08.43.02,0,.06.02.08.02-.03.14-.05.28-.08.43.02,0,.06.02.08.02-.03.14-.05.28-.08.43.02,0,.06.02.08.02-.03.14-.05.28-.08.43.58.23,1.69.35,3.32.35,1.51,0,3.08-.29,4.71-.87,1.51-.58,3.2-.87,5.06-.87,1.28-.12,2.38-1.16,3.32-3.14.81-1.63,1.22-3.2,1.22-4.71,0-.04-.01-.08-.02-.12,0-.11.02-.23.02-.34,0-.04-.01-.08-.02-.12,0-.11.02-.23.02-.34,0-.04-.01-.08-.02-.12,0-.11.02-.23.02-.34,0-.04-.01-.08-.02-.11,0-.11.02-.23.02-.34,0-.04-.01-.08-.02-.12,0-.11.02-.23.02-.34,0-.04-.01-.08-.02-.12,0-.11.02-.23.02-.34,0-.04-.01-.08-.02-.12,0-.11.02-.23.02-.34,0-.04-.01-.08-.02-.11,0-.11.02-.23.02-.34,0-.04-.01-.08-.02-.12,0-.11.02-.23.02-.34,0-.04-.01-.08-.02-.12,0-.11.02-.23.02-.34,0-.04-.01-.08-.02-.12,0-.11.02-.23.02-.34,0-.04-.01-.08-.02-.12,0-.11.02-.23.02-.34,0-.04-.01-.08-.02-.12,0-.11.02-.23.02-.34,0-.04-.01-.08-.02-.11,0-.11.02-.23.02-.34,0-.04-.01-.08-.02-.12,0-.11.02-.23.02-.34,0-.04-.01-.08-.02-.12,0-.11.02-.23.02-.34,0-.04-.01-.08-.02-.12,0-.11.02-.23.02-.34,0-.04-.01-.08-.02-.11,0-.11.02-.23.02-.34,0-.04-.01-.08-.02-.12,0-.11.02-.23.02-.34,0-.04-.01-.08-.02-.12,0-.11.02-.23.02-.34,0-.04-.01-.08-.02-.12,0-.11.02-.23.02-.34,0-.04-.01-.08-.02-.12,0-.11.02-.23.02-.34,0-.04-.01-.08-.02-.12,0-.11.02-.23.02-.34,0-.04-.01-.08-.02-.12,0-.11.02-.23.02-.34,0-.04-.01-.08-.02-.12,0-.11.02-.23.02-.34,0-.04-.01-.08-.02-.12,0-.11.02-.23.02-.34,0-.04-.01-.08-.02-.12,0-.11.02-.23.02-.34,0-.04-.01-.08-.02-.12,0-.11.02-.23.02-.34,0-.04-.01-.07-.02-.11.83-1.34,1.99-3,3.51-5.05,3.49-4.77,5.47-7.91,5.93-9.42.46-1.86,2.44-5.06,5.93-9.6.93-1.28,1.45-2.79,1.57-4.54.12-1.98.29-3.32.52-4.01.23-.7,2.79-5.87,7.68-15.53,4.54-8.96,6.8-14.08,6.8-15.36,0-.06-.01-.12-.02-.19.02-.1.02-.19.02-.27,0-.06-.01-.12-.02-.19.02-.1.02-.19.02-.27,0-.06-.01-.12-.02-.19.02-.1.02-.19.02-.27,0-.06-.01-.12-.02-.19.02-.1.02-.19.02-.27,0-.06-.01-.12-.02-.19.02-.1.02-.19.02-.27,0-.06-.01-.12-.02-.19.02-.1.02-.19.02-.27,0-.06-.01-.12-.02-.19.02-.1.02-.19.02-.27,0-.06-.01-.12-.02-.19.02-.1.02-.19.02-.27,0-.06-.01-.12-.02-.19.02-.1.02-.19.02-.27,0-.06-.01-.12-.02-.19.02-.1.02-.19.02-.27,0-.06-.01-.12-.02-.19.02-.1.02-.19.02-.27,0-.06-.01-.12-.02-.19.02-.1.02-.19.02-.27,0-.06-.01-.12-.02-.19.02-.1.02-.19.02-.27,0-.06-.01-.12-.02-.19.02-.1.02-.19.02-.27,0-.06-.01-.12-.02-.19.02-.1.02-.19.02-.27,0-.06-.01-.12-.02-.19.02-.1.02-.19.02-.27,0-.06-.01-.12-.02-.19.02-.1.02-.19.02-.27,0-.06-.01-.12-.02-.19.02-.1.02-.19.02-.27,0-.06-.01-.12-.02-.19.02-.1.02-.19.02-.27,0-.06-.01-.12-.02-.19.02-.1.02-.19.02-.27,0-.06-.01-.12-.02-.19.02-.1.02-.19.02-.27,0-.06-.01-.12-.02-.19.02-.1.02-.19.02-.27,0-.06-.01-.12-.02-.19.02-.1.02-.19.02-.27,0-.06-.01-.12-.02-.19.02-.1.02-.19.02-.27,0-.06-.01-.12-.02-.19.02-.1.02-.19.02-.27,0-.06-.01-.12-.02-.19.02-.1.02-.19.02-.27,0-.06-.01-.12-.02-.19.02-.1.02-.19.02-.27,0-.06-.01-.12-.02-.19.02-.1.02-.19.02-.27,0-.06-.01-.12-.02-.19.02-.1.02-.19.02-.27,0-.06-.01-.12-.02-.19.02-.1.02-.19.02-.27,0-.06-.01-.12-.02-.19.02-.1.02-.19.02-.27,0-.27-.14-.56-.42-.88.59-1.1,1.24-2.24,1.99-3.44,4.07-6.51,7.97-9.77,11.69-9.77,2.79,0,4.89.64,6.28,1.92.9.86,1.83,1.67,2.79,2.44.46-2.11.75-4.2.87-6.28,0-.7.99-3.96,2.97-9.77,1.86-5.93,2.79-9.54,2.79-10.82,0-.09,0-.19-.01-.29,0-.05.01-.11.01-.16,0-.09,0-.19-.01-.29,0-.05.01-.11.01-.16,0-.09,0-.19-.01-.29,0-.05.01-.11.01-.16,0-.09,0-.19-.01-.29,0-.05.01-.11.01-.16,0-.09,0-.19-.01-.29,0-.05.01-.11.01-.16,0-.09,0-.19-.01-.29,0-.05.01-.11.01-.16,0-.09,0-.19-.01-.29,0-.05.01-.11.01-.16,0-.09,0-.19-.01-.29,0-.05.01-.11.01-.16,0-.09,0-.19-.01-.29,0-.05.01-.11.01-.16,0-.09,0-.19-.01-.29,0-.05.01-.11.01-.16,0-.09,0-.19-.01-.29,0-.05.01-.11.01-.16,0-.09,0-.19-.01-.29,0-.05.01-.11.01-.16,0-.09,0-.19-.01-.29,0-.05.01-.11.01-.16,0-.09,0-.19-.01-.29,0-.05.01-.11.01-.16,0-.09,0-.19-.01-.29,0-.05.01-.11.01-.16,0-.09,0-.19-.01-.29,0-.05.01-.11.01-.16,0-.09,0-.19-.01-.29,0-.05.01-.11.01-.16,0-.09,0-.19-.01-.29,0-.05.01-.11.01-.16,0-.09,0-.19-.01-.29,0-.05.01-.11.01-.16,0-.09,0-.19-.01-.29,0-.05.01-.11.01-.16,0-.09,0-.19-.01-.29,0-.05.01-.11.01-.16,0-.09,0-.19-.01-.29,0-.05.01-.11.01-.16,0-.09,0-.19-.01-.29,0-.05.01-.11.01-.16,0-.09,0-.19-.01-.29,0-.05.01-.11.01-.16,0-.09,0-.19-.01-.29,0-.05.01-.11.01-.16,0-.09,0-.19-.01-.29,0-.05.01-.11.01-.16,0-.09,0-.19-.01-.29,0-.05.01-.11.01-.16,0-.09,0-.19-.01-.29,0-.05.01-.11.01-.16,0-.09,0-.19-.01-.29,0-.05.01-.11.01-.16,0-.09,0-.19-.01-.29,0-.05.01-.11.01-.16,0-.09,0-.19-.01-.29,0-.05.01-.11.01-.16,0-.81-.29-2.44-.87-4.89-.09-.39-.16-.77-.24-1.16.38-2.13.92-4,1.64-5.61,1.74-4.19,2.97-9.83,3.66-16.93.47-6.28,3.49-15.7,9.07-28.27,1.51-2.91,2.5-5,2.97-6.28.93-2.21,1.34-4.54,1.22-6.98,0-.02,0-.04,0-.05,0-.13,0-.26,0-.4,0-.02,0-.04,0-.06,0-.13,0-.26,0-.4,0-.02,0-.04,0-.06,0-.13,0-.26,0-.4,0-.02,0-.04,0-.06,0-.13,0-.26,0-.4,0-.02,0-.04,0-.05,0-.13,0-.26,0-.4,0-.02,0-.04,0-.06,0-.13,0-.26,0-.4,0-.02,0-.04,0-.06,0-.13,0-.26,0-.4,0-.02,0-.04,0-.06,0-.13,0-.26,0-.4,0-.02,0-.04,0-.05,0-.13,0-.26,0-.4,0-.02,0-.04,0-.06,0,0,0,0,0-.01.11-1.53.35-3.17.7-4.94.58-3.49,1.45-6.16,2.62-8.03,1.4-2.69,3.38-7.52,5.93-14.48,2.26-5.89,3.35-10,3.28-12.34,0-.16,0-.31,0-.45,0-.16,0-.31,0-.45,0-.16,0-.31,0-.45,0-.16,0-.31,0-.45,0-.16,0-.31,0-.45,0-.16,0-.31,0-.45,0-.16,0-.31,0-.45,0-.16,0-.31,0-.45,0-.16,0-.31,0-.45,0-.16,0-.31,0-.45,0-.16,0-.31,0-.45,0-.16,0-.31,0-.45,0-.16,0-.31,0-.45,0-.16,0-.31,0-.45,0-.16,0-.31,0-.45,0-.16,0-.31,0-.45,0-.16,0-.31,0-.45,0-.16,0-.31,0-.45,0-.16,0-.31,0-.45,0-.16,0-.31,0-.45,0-.16,0-.31,0-.45,0-.16,0-.31,0-.45,0-.16,0-.31,0-.45,0-.16,0-.31,0-.45,0-.16,0-.31,0-.45,0-.16,0-.31,0-.45,0-.16,0-.31,0-.45,0-.16,0-.31,0-.45,0-.16,0-.31,0-.45,0-.16,0-.31,0-.45.02-.61-.03-1.13-.14-1.54-.2-.67-.35-1.5-.45-2.47v-.02c0-.15,0-.3,0-.45,0-.15,0-.3,0-.45,0-.15,0-.3,0-.45,0-.15,0-.3,0-.45,0-.15,0-.3,0-.45,0-.15,0-.3,0-.45,0-.15,0-.3,0-.45,0-.15,0-.3,0-.45,0-.15,0-.3,0-.45,0-.15,0-.3,0-.45,0-.15,0-.3,0-.45,0-.15,0-.3,0-.45,0-.15,0-.3,0-.45,0-.03,0-.05,0-.08.51-1.07,1.12-2.03,1.84-2.86,1.28-1.4,3.32-2.73,6.11-4.01.46-.23,1.05-1.98,1.75-5.23.81-3.14,1.22-5.41,1.22-6.81,0-.04,0-.09-.01-.13,0-.11.01-.22.01-.32,0-.04,0-.09-.01-.13,0-.11.01-.22.01-.32,0-.04,0-.09-.01-.13,0-.11.01-.22.01-.32,0-.04,0-.09-.01-.13,0-.11.01-.22.01-.32,0-.04,0-.09-.01-.13,0-.11.01-.22.01-.32,0-.04,0-.09-.01-.13,0-.11.01-.22.01-.32,0-.04,0-.09-.01-.13,0-.11.01-.22.01-.32,0-.04,0-.09-.01-.13,0-.11.01-.22.01-.32,0-.04,0-.09-.01-.13,0-.11.01-.22.01-.32,0-.04,0-.09-.01-.13,0-.11.01-.22.01-.32,0-.04,0-.09-.01-.13,0-.11.01-.22.01-.32,0-.04,0-.09-.01-.13,0-.11.01-.22.01-.32,0-.04,0-.09-.01-.13,0-.11.01-.22.01-.32,0-.04,0-.09-.01-.13,0-.11.01-.22.01-.32,0-.04,0-.09-.01-.13,0-.11.01-.22.01-.32,0-.04,0-.09-.01-.13,0-.11.01-.22.01-.32,0-.04,0-.09-.01-.13,0-.11.01-.22.01-.32,0-.04,0-.09-.01-.13,0-.11.01-.22.01-.32,0-.04,0-.09-.01-.13,0-.11.01-.22.01-.32,0-.04,0-.09-.01-.13,0-.11.01-.22.01-.32,0-.04,0-.09-.01-.13,0-.11.01-.22.01-.32,0-.04,0-.09-.01-.13,0-.11.01-.22.01-.32,0-.04,0-.09-.01-.13,0-.11.01-.22.01-.32,0-.04,0-.09-.01-.13,0-.11.01-.22.01-.32,0-.04,0-.09-.01-.13,0-.11.01-.22.01-.32,0-.04,0-.09-.01-.13,0-.11.01-.22.01-.32,0-.04,0-.09-.01-.13,0-.11.01-.22.01-.32,0-.04,0-.09-.01-.13,0-.11.01-.22.01-.32,0-.04,0-.09-.01-.13,0-.11.01-.22.01-.32,0-.04,0-.09-.01-.13,0-.11.01-.22.01-.32,0-.04,0-.09-.01-.13,0-.11.01-.22.01-.32,0-2.33-1.51-4.48-4.54-6.46-1.88-1.18-3.18-3.11-3.94-5.75.3-1.05.68-1.86,1.15-2.41.93-1.16,3.66-4.07,8.2-8.72,1.86-2.56,2.91-5.76,3.14-9.6,0-.1,0-.19-.01-.28,0-.06.01-.11.01-.17,0-.1,0-.19-.01-.28,0-.06.01-.11.01-.17,0-.1,0-.19-.01-.28,0-.06.01-.11.01-.17,0-.1,0-.19-.01-.28,0-.06.01-.11.01-.17,0-.1,0-.19-.01-.28,0-.06.01-.11.01-.17,0-.1,0-.19-.01-.28,0-.06.01-.11.01-.17,0-.1,0-.19-.01-.28,0-.06.01-.11.01-.17,0-.1,0-.19-.01-.28,0-.06.01-.11.01-.17,0-.1,0-.19-.01-.28,0-.06.01-.11.01-.17,0-.1,0-.19-.01-.28,0-.06.01-.11.01-.17,0-.1,0-.19-.01-.28,0-.06.01-.11.01-.17,0-.1,0-.19-.01-.28,0-.06.01-.11.01-.17,0-.1,0-.19-.01-.28,0-.06.01-.11.01-.17,0-.1,0-.19-.01-.28,0-.06.01-.11.01-.17,0-.1,0-.19-.01-.28,0-.06.01-.11.01-.17,0-.1,0-.19-.01-.28,0-.06.01-.11.01-.17,0-.1,0-.19-.01-.28,0-.06.01-.11.01-.17,0-.1,0-.19-.01-.28,0-.06.01-.11.01-.17,0-.1,0-.19-.01-.28,0-.06.01-.11.01-.17,0-.1,0-.19-.01-.28,0-.06.01-.11.01-.17,0-.1,0-.19-.01-.28,0-.06.01-.11.01-.17,0-.1,0-.19-.01-.28,0-.06.01-.11.01-.17,0-.1,0-.19-.01-.28,0-.06.01-.11.01-.17,0-.1,0-.19-.01-.28,0-.06.01-.11.01-.17,0-.1,0-.19-.01-.28,0-.06.01-.11.01-.17,0-.1,0-.19-.01-.28,0-.06.01-.11.01-.17,0-.1,0-.19-.01-.28,0-.03,0-.05,0-.08.31-1.2.83-2.12,1.58-2.73,3.02-2.68,5.47-5.23,7.33-7.68,2.21-3.14,4.19-5.47,5.93-6.98,2.09-1.98,4.94-3.78,8.55-5.41,2.21-1.05,3.84-3.14,4.89-6.28,1.51-4.54,2.38-7.04,2.62-7.5.93-1.63,2.33-3.78,4.19-6.46.26-.44.49-.9.7-1.4-.06-.04-.11-.07-.17-.11.05-.12.12-.22.17-.34-.06-.04-.11-.07-.17-.11.05-.12.12-.22.17-.34-.06-.04-.11-.07-.17-.11.05-.12.12-.22.17-.34-.06-.04-.11-.07-.17-.11.05-.12.12-.22.17-.34-.06-.04-.11-.07-.17-.11.05-.12.12-.22.17-.34-.06-.04-.11-.07-.17-.11.05-.12.12-.22.17-.34-.06-.04-.11-.07-.17-.11.05-.12.12-.22.17-.34-.06-.04-.11-.07-.17-.11.05-.12.12-.22.17-.34-.06-.04-.11-.07-.17-.11.05-.12.12-.22.17-.34-.06-.04-.11-.07-.17-.11.05-.12.12-.22.17-.34-.06-.04-.11-.07-.17-.11.05-.12.12-.22.17-.34-.06-.04-.11-.07-.17-.11.05-.12.12-.22.17-.34-.06-.04-.11-.07-.17-.11.05-.12.12-.22.17-.34-.06-.04-.11-.07-.17-.11.05-.12.12-.22.17-.34-.06-.04-.11-.07-.17-.11.05-.12.12-.22.17-.34-.06-.04-.11-.07-.17-.11.05-.12.12-.22.17-.34-.06-.04-.11-.07-.17-.11.05-.12.12-.22.17-.34-.06-.04-.11-.07-.17-.11.05-.12.12-.22.17-.34-.06-.04-.11-.07-.17-.11.05-.12.12-.22.17-.34-.06-.04-.11-.07-.17-.11.05-.12.12-.22.17-.34-.06-.04-.11-.07-.17-.11.05-.12.12-.22.17-.34-.06-.04-.11-.07-.17-.11.05-.12.12-.22.17-.34-.06-.04-.11-.07-.17-.11.05-.12.12-.22.17-.34-.06-.04-.11-.07-.17-.11.05-.12.12-.22.17-.34-.06-.04-.11-.07-.17-.11.05-.12.12-.22.17-.34-.06-.04-.11-.07-.17-.11.05-.12.12-.22.17-.34-.06-.04-.11-.07-.17-.11.05-.12.12-.22.17-.34-.06-.04-.11-.07-.17-.11.05-.12.12-.22.17-.34-.06-.04-.11-.07-.17-.11.05-.12.12-.22.17-.34-.06-.04-.11-.07-.17-.11.05-.12.12-.22.17-.34-.06-.04-.11-.07-.17-.11Z"/>
  <path class="st0" d="M227.71,12.56c-4.19-.7-6.86-1.4-8.03-2.09-1.4-.7-3.61-1.4-6.63-2.09-2.56-.47-4.3-1.16-5.23-2.09-1.63-1.86-2.79-3.08-3.49-3.66-1.16-1.05-2.79-1.92-4.89-2.62h-2.27v2.44c.35.35.81.99,1.4,1.92.47,1.05.7,1.69.7,1.92,0,.93-.23,1.8-.7,2.62-.58,1.05-1.4,1.57-2.44,1.57-.58,0-1.22-.23-1.92-.7h-3.32v2.44c.93.23,1.86.7,2.79,1.4.93.93,1.4,1.74,1.4,2.44,0,.35-.23.64-.7.87-.58.35-1.22.52-1.92.52-1.74,0-5.87-1.34-12.39-4.01-6.51-2.67-10.29-4.01-11.34-4.01l-9.77,1.22c-1.86,0-4.94-1.92-9.25-5.76-2.48-2.14-4.8-3.65-6.98-4.54.23.98.29,2.09.17,3.32-1.16,0-2.38.52-3.66,1.57-1.16,1.05-1.74,1.86-1.74,2.44l1.4,7.15c-2.33,1.98-4.65,4.07-6.98,6.28-4.77,4.42-7.27,8.78-7.5,13.09-.23,2.79-.52,4.42-.87,4.89-1.05,1.86-3.61,3.61-7.68,5.23-2.73,1.05-5.4,2.33-8.03,3.84.28.38.52.79.7,1.22.36.87.71,1.8,1.05,2.79l.35,3.84c0,1.16-1.69,2.33-5.06,3.49-3.84,1.16-6.11,2.38-6.81,3.66-.58,1.05-2.09,2.73-4.54,5.06-1.51,1.4-2.27,3.14-2.27,5.23,0,2.91.47,4.89,1.4,5.93.47.7,2.09,1.69,4.89,2.97,3.84,1.75,5.82,2.85,5.93,3.32,0,.47.41,1.22,1.22,2.27.7,1.16,1.05,1.92,1.05,2.27-2.33,3.14-4.65,6.28-6.98,9.42-4.77,6.4-7.15,9.83-7.15,10.3l.87,4.71c0,3.72-1.16,7.1-3.49,10.12-2.44,2.33-3.66,3.55-3.66,3.66s.7,1.22,2.09,3.32c1.51,2.21,2.21,3.95,2.09,5.23v15.53c.23,1.51-.23,2.62-1.4,3.32-1.28.7-1.92,1.51-1.92,2.44,0,.7.47,1.8,1.4,3.32.81,1.51,1.22,2.56,1.22,3.14,0,.81-1.28,2.09-3.84,3.84-2.68,1.86-4.13,3.2-4.36,4.01-.93,2.79-1.74,6.4-2.44,10.82-.47,1.28-.81,3.14-1.05,5.58-.23,1.98-.76,3.66-1.57,5.06-.7.93-2.27,1.92-4.71,2.97-1.98.7-2.97,1.98-2.97,3.84,0,1.51,1.74,3.08,5.23,4.71,3.37,1.51,5.06,2.79,5.06,3.84,0,1.16-.35,2.21-1.05,3.14-.7,1.05-1.05,2.09-1.05,3.14,2.44,3.72,3.66,5.99,3.66,6.81,0,1.04-.4,3.13-1.22,6.28-.83,3.29-1.59,5.96-2.27,8.03-.56,2.18-1.15,5.55-1.74,10.12-.59,4.55-1.58,7.57-2.97,9.07-.23.23-2.38,1.63-6.46,4.19-.7.47-1.63,1.74-2.79,3.84-.93,1.63-2.04,2.44-3.32,2.44l-4.89-1.74h-2.44v1.92c.35.58.93,1.98,1.75,4.19.7,2.09,1.05,3.32,1.05,3.66,0,1.4-.99,3.96-2.97,7.68-2.21,4.19-4.25,6.28-6.11,6.28-.93,0-2.5-.29-4.71-.87-2.21-.7-4.36-1.05-6.46-1.05-2.09.12-4.07.35-5.93.7-3.84.81-5.76,2.09-5.76,3.84,0,.58.23,1.63.7,3.14,0,1.16-.76,2.44-2.27,3.84-1.63,1.4-2.44,2.38-2.44,2.97,0,.93.52,1.98,1.57,3.14.93,1.16,1.4,2.04,1.4,2.62,0,2.09-1.98,4.36-5.93,6.81-.92.55-1.91,1.07-2.97,1.57,1.16,2.4,1.75,4.96,1.75,7.68,0,.35-2.38,2.38-7.15,6.11-4.77,3.61-7.15,6.28-7.15,8.03,0,2.33,3.02,5.18,9.07,8.55,6.05,3.37,9.07,7.39,9.07,12.04,0,.36-.29.77-.87,1.22,3.12,1.98,5.28,5.76,6.46,11.34,1.74,8.84,3.55,13.55,5.41,14.13,1.16.35,3.2.81,6.11,1.4,2.56.7,4.25,2.04,5.06,4.01.23.58,2.33,3.26,6.28,8.03.81,0,2.33-.81,4.54-2.44,2.21-1.63,4.19-2.44,5.93-2.44,3.26,0,5.87,1.28,7.85,3.84,1.51,2.09,2.15,4.13,1.92,6.11-.47,2.91.06,4.89,1.57,5.93.81.7,2.56,1.86,5.24,3.49.7.7,1.74,1.86,3.14,3.49,1.4,1.51,2.91,2.5,4.54,2.97,3.72.81,5,3.9,3.84,9.25.58.23,1.69.35,3.32.35,1.51,0,3.08-.29,4.71-.87,1.51-.58,3.2-.87,5.06-.87,1.28-.12,2.38-1.16,3.32-3.14.81-1.63,1.22-3.2,1.22-4.71-.47-2.33-.7-3.95-.7-4.89-.58-2.44-.87-3.95-.87-4.54,0-1.05,1.69-3.84,5.06-8.38,3.49-4.77,5.47-7.91,5.93-9.42.46-1.86,2.44-5.06,5.93-9.6.93-1.28,1.45-2.79,1.57-4.54.12-1.98.29-3.32.52-4.01.23-.7,2.79-5.87,7.68-15.53,4.54-8.96,6.81-14.08,6.81-15.36,0-.58-.64-1.28-1.92-2.09-1.28-.81-1.92-1.63-1.92-2.44,0-3.37,1.8-7.97,5.41-13.78,4.07-6.51,7.97-9.77,11.69-9.77,2.79,0,4.89.64,6.28,1.92.9.86,1.83,1.67,2.79,2.44.46-2.11.75-4.2.87-6.28,0-.7.99-3.96,2.97-9.77,1.86-5.93,2.79-9.54,2.79-10.82,0-.81-.29-2.44-.87-4.89-.58-2.44-.87-4.83-.87-7.15,0-5.7.76-10.24,2.27-13.61,1.74-4.19,2.97-9.83,3.66-16.93.47-6.28,3.49-15.7,9.07-28.27,1.51-2.91,2.5-5,2.97-6.28.93-2.21,1.34-4.54,1.22-6.98-.23-2.56,0-5.58.7-9.07.58-3.49,1.45-6.16,2.62-8.03,1.4-2.69,3.38-7.52,5.93-14.48,2.66-6.94,3.71-11.42,3.14-13.44-.57-1.9-.74-5.04-.52-9.42.17-3.27.06-7.29-.35-12.04.58-1.48,1.33-2.76,2.27-3.84,1.28-1.4,3.32-2.73,6.11-4.01.47-.23,1.05-1.98,1.74-5.23.81-3.14,1.22-5.41,1.22-6.81,0-2.33-1.51-4.48-4.54-6.46-3.14-1.98-4.71-5.99-4.71-12.04,0-5.23.64-8.61,1.92-10.12.93-1.16,3.66-4.07,8.2-8.72,1.86-2.56,2.91-5.76,3.14-9.6-.23-4.3-.35-7.33-.35-9.07,0-2.79.64-4.71,1.92-5.76,3.02-2.68,5.47-5.23,7.33-7.68,2.21-3.14,4.19-5.47,5.93-6.98,2.09-1.98,4.94-3.78,8.55-5.41,2.21-1.05,3.84-3.14,4.89-6.28,1.51-4.54,2.38-7.04,2.62-7.5.93-1.63,2.33-3.78,4.19-6.46.26-.44.49-.9.7-1.4-1.16-.75-2.26-1.34-3.32-1.75-3.72-1.51-7.97-2.68-12.74-3.49"/>
</svg>