<?xml version="1.0" encoding="UTF-8"?>
<svg id="_圖層_1" data-name="圖層_1" xmlns="http://www.w3.org/2000/svg" version="1.1" viewBox="0 0 62 97">
  <!-- Generator: Adobe Illustrator 29.8.3, SVG Export Plug-In . SVG Version: 2.1.1 Build 3)  -->
  <defs>
    <style>
      .st0 {
        fill: #7dbeb1;
        stroke: #ebede7;
        stroke-miterlimit: 10;
      }

      .st1 {
        fill: #077383;
      }
    </style>
  </defs>
  <path class="st1" d="M61.56,63.26c0-.11.04-.2.04-.32,0-.93-1.22-1.45-3.66-1.57-2.68-.12-4.13-.7-4.36-1.74-.32-1.19-.59-2.25-.84-3.22l1.01-4.21c0-.12-.03-.25-.04-.37l.04-.16c0-.12-.03-.25-.04-.37l.04-.16c0-.12-.03-.25-.04-.37l.04-.16c0-.12-.03-.25-.04-.37l.04-.16c0-.12-.03-.25-.04-.37l.04-.16c0-.12-.03-.25-.04-.37l.04-.16c0-.12-.03-.25-.04-.37l.04-.16c0-.12-.03-.25-.04-.37l.04-.16c0-.12-.03-.25-.04-.37l.04-.16c0-.12-.03-.25-.04-.37l.04-.16c0-.12-.03-.25-.04-.37l.04-.16c0-.12-.03-.25-.04-.37l.04-.16c0-.12-.03-.25-.04-.37l.04-.16c0-.12-.03-.25-.04-.37l.04-.16c0-.12-.03-.25-.04-.37l.04-.16c0-.12-.03-.25-.04-.37l.04-.16c0-.12-.03-.25-.04-.37l.04-.16c0-.12-.03-.25-.04-.37l.04-.16c0-.12-.03-.25-.04-.37l.04-.16c0-.12-.03-.25-.04-.37l.04-.16c0-.12-.03-.25-.04-.37l.04-.16c0-1.86-1.57-3.78-4.71-5.76-3.14-1.98-4.71-4.3-4.71-6.98,0-1.98-.93-4.19-2.79-6.63-.73-.91-1.31-1.76-1.75-2.57,0-.03,0-.05,0-.08,0-.09-.01-.19-.02-.28,0-.08.02-.17.02-.25,0-.09-.01-.19-.02-.28,0-.08.02-.17.02-.25,0-.09-.01-.19-.02-.28,0-.08.02-.17.02-.25,0-.09-.01-.19-.02-.28,0-.08.02-.17.02-.25,0-.09-.01-.19-.02-.28,0-.08.02-.17.02-.25,0-.09-.01-.19-.02-.28,0-.08.02-.17.02-.25,0-.09-.01-.19-.02-.28,0-.08.02-.17.02-.25,0-.09-.01-.19-.02-.28,0-.08.02-.17.02-.25,0-.09-.01-.19-.02-.28,0-.08.02-.17.02-.25,0-.09-.01-.19-.02-.28,0-.08.02-.17.02-.25,0-.09-.01-.19-.02-.28,0-.08.02-.17.02-.25,0-.09-.01-.19-.02-.28,0-.08.02-.17.02-.25,0-.09-.01-.19-.02-.28,0-.08.02-.17.02-.25,0-1.4-.76-2.73-2.27-4.01-1.51-1.05-2.44-1.69-2.79-1.92-.92-.67-1.45-1.5-1.58-2.47,0-.04,0-.08.01-.13.02-.13,0-.25-.02-.37,0-.06,0-.11.02-.17.02-.13,0-.25-.02-.37,0-.06,0-.11.02-.17.12-.93-.76-1.4-2.62-1.4-2.21,0-3.84,1.05-4.89,3.14-2.44,4.54-3.96,7.15-4.54,7.85-.81.93-2.68,2.33-5.58,4.19-3.72,2.21-5.7,3.43-5.93,3.66-1.4,1.05-2.62,2.5-3.66,4.36-1.51,3.14-2.38,4.89-2.62,5.23-.82,1.57-1.46,2.79-1.92,3.66.03.12.06.23.1.35-.03.06-.07.13-.1.18.03.12.06.23.1.35-.03.06-.07.13-.1.18.03.12.06.23.1.35-.03.06-.07.13-.1.18.03.12.06.23.1.35-.03.06-.07.13-.1.18.03.12.06.23.1.35-.03.06-.07.13-.1.18.03.12.06.23.1.35-.03.06-.07.13-.1.18.03.12.06.23.1.35-.03.06-.07.13-.1.18.03.12.06.23.1.35-.03.06-.07.13-.1.18.03.12.06.23.1.35-.03.06-.07.13-.1.18.03.12.06.23.1.35-.03.06-.07.13-.1.18.03.12.06.23.1.35-.03.06-.07.13-.1.18.03.12.06.23.1.35-.03.06-.07.13-.1.18.03.12.06.23.1.35-.03.06-.07.13-.1.18.03.12.06.23.1.35-.03.06-.07.13-.1.18.03.12.06.23.1.35-.03.06-.07.13-.1.18.03.12.06.23.1.35-.03.06-.07.13-.1.18.03.12.06.23.1.35-.03.06-.07.13-.1.18.03.12.06.23.1.35-.03.06-.07.13-.1.18.03.12.06.23.1.35-.03.06-.07.13-.1.18.03.12.06.23.1.35-.03.06-.07.13-.1.18.03.12.06.23.1.35-.03.06-.07.13-.1.18.61,2.69,1.83,4.15,3.66,4.36,4.62.58,7.58,1.79,8.87,3.63-.35,1.41-.81,3.08-1.37,5.02-1.63,5.35-2.44,8.14-2.44,8.38,0,.1.03.2.05.29-.03.13-.05.21-.05.24,0,.1.03.2.05.29-.03.13-.05.21-.05.24,0,.1.03.2.05.29-.03.13-.05.21-.05.24,0,.1.03.2.05.29-.03.13-.05.21-.05.24,0,.1.03.2.05.29-.03.13-.05.21-.05.24,0,.1.03.2.05.29-.03.13-.05.21-.05.24,0,.1.03.2.05.29-.03.13-.05.21-.05.24,0,.1.03.2.05.29-.03.13-.05.21-.05.24,0,.1.03.2.05.29-.03.13-.05.21-.05.24,0,.1.03.2.05.29-.03.13-.05.21-.05.24,0,.1.03.2.05.29-.03.13-.05.21-.05.24,0,.1.03.2.05.29-.03.13-.05.21-.05.24,0,.1.03.2.05.29-.03.13-.05.21-.05.24,0,.1.03.2.05.29-.03.13-.05.21-.05.24,0,.1.03.2.05.29-.03.13-.05.21-.05.24,0,.1.03.2.05.29-.03.13-.05.21-.05.24,0,.1.03.2.05.29-.03.13-.05.21-.05.24,0,.1.03.2.05.29-.03.13-.05.21-.05.24,0,.1.03.2.05.29-.03.13-.05.21-.05.24,0,.1.03.2.05.29-.03.13-.05.21-.05.24,0,.1.03.2.05.29-.03.13-.05.21-.05.24,0,.81.52,1.69,1.57,2.62,1.05.81,1.92,1.22,2.62,1.22.93,0,2.09-.52,3.49-1.57,1.28-1.16,2.62-1.74,4.01-1.74,1.63,0,2.73,1.69,3.32,5.06.58,3.96,1.05,6.11,1.4,6.46,1.63,1.63,7.27,4.01,16.93,7.15h10.12c.35-1.05.52-1.69.52-1.92,0-.09-.02-.18-.04-.27.02-.11.04-.2.04-.26,0-.09-.02-.18-.04-.27.02-.11.04-.2.04-.26,0-.09-.02-.18-.04-.27.02-.11.04-.2.04-.26,0-.09-.02-.18-.04-.27.02-.11.04-.2.04-.26,0-.09-.02-.18-.04-.27.02-.11.04-.2.04-.26,0-.09-.02-.18-.04-.27.02-.11.04-.2.04-.26,0-.09-.02-.18-.04-.27.02-.11.04-.2.04-.26,0-.09-.02-.18-.04-.27.02-.11.04-.2.04-.26,0-.09-.02-.18-.04-.27.02-.11.04-.2.04-.26,0-.09-.02-.18-.04-.27.02-.11.04-.2.04-.26,0-.09-.02-.18-.04-.27.02-.11.04-.2.04-.26,0-.09-.02-.18-.04-.27.02-.11.04-.2.04-.26,0-.09-.02-.18-.04-.27.02-.11.04-.2.04-.26,0-.09-.02-.18-.04-.27.02-.11.04-.2.04-.26,0-.09-.02-.18-.04-.27.02-.11.04-.2.04-.26,0-.09-.02-.18-.04-.27.02-.11.04-.2.04-.26,0-.09-.02-.18-.04-.27.02-.11.04-.2.04-.26,0-.09-.02-.18-.04-.27.02-.11.04-.2.04-.26,0-.09-.02-.18-.04-.27.02-.11.04-.2.04-.26,0-.09-.02-.18-.04-.27.02-.11.04-.2.04-.26,0-.09-.02-.18-.04-.27.02-.11.04-.2.04-.26,0-1.28-1.34-2.33-4.01-3.14-1.58-.41-2.68-.82-3.33-1.24v-.07c.01-.14,0-.27-.01-.4l.03-.13c0-.14-.02-.27-.03-.4l.03-.13c0-.14-.02-.27-.03-.4l.03-.13c0-.14-.02-.27-.03-.4l.03-.13s0-.02,0-.04c.32-.07.66-.11,1.05-.11.7,0,1.63.29,2.79.87s2.5.87,4.01.87c4.65,0,6.98-1.28,6.98-3.84,0-.08-.02-.15-.04-.22,0-.11.04-.2.04-.32,0-.08-.02-.15-.04-.22,0-.11.04-.2.04-.32,0-.08-.02-.15-.04-.22,0-.11.04-.2.04-.32,0-.08-.02-.15-.04-.22,0-.11.04-.2.04-.32,0-.08-.02-.15-.04-.22,0-.11.04-.2.04-.32,0-.08-.02-.15-.04-.22,0-.11.04-.2.04-.32,0-.08-.02-.15-.04-.22,0-.11.04-.2.04-.32,0-.08-.02-.15-.04-.22,0-.11.04-.2.04-.32,0-.08-.02-.15-.04-.22,0-.11.04-.2.04-.32,0-.08-.02-.15-.04-.22,0-.11.04-.2.04-.32,0-.08-.02-.15-.04-.22,0-.11.04-.2.04-.32,0-.08-.02-.15-.04-.22,0-.11.04-.2.04-.32,0-.08-.02-.15-.04-.22,0-.11.04-.2.04-.32,0-.08-.02-.15-.04-.22,0-.11.04-.2.04-.32,0-.08-.02-.15-.04-.22,0-.11.04-.2.04-.32,0-.08-.02-.15-.04-.22,0-.11.04-.2.04-.32,0-.08-.02-.15-.04-.22,0-.11.04-.2.04-.32,0-.08-.02-.15-.04-.22,0-.11.04-.2.04-.32,0-.08-.02-.15-.04-.22,0-.11.04-.2.04-.32,0-.08-.02-.15-.04-.22,0-.11.04-.2.04-.32,0-.08-.02-.15-.04-.22Z"/>
  <path class="st0" d="M37.52,7.98c-1.51-1.05-2.44-1.69-2.79-1.92-1.28-.93-1.8-2.15-1.57-3.66.12-.93-.76-1.4-2.62-1.4-2.21,0-3.84,1.05-4.89,3.14-2.44,4.54-3.96,7.15-4.54,7.85-.81.93-2.68,2.33-5.58,4.19-3.72,2.21-5.7,3.43-5.93,3.66-1.4,1.05-2.62,2.5-3.66,4.36-1.51,3.14-2.38,4.89-2.62,5.23-.82,1.57-1.46,2.79-1.92,3.66.61,2.69,1.83,4.15,3.66,4.36,4.65.58,7.62,1.8,8.9,3.66.58.93.87,3.02.87,6.28,0,1.4-.76,4.71-2.27,9.95-1.63,5.35-2.44,8.14-2.44,8.38,0,.81.52,1.69,1.57,2.62,1.05.81,1.92,1.22,2.62,1.22.93,0,2.09-.52,3.49-1.57,1.28-1.16,2.62-1.74,4.01-1.74,1.63,0,2.73,1.69,3.32,5.06.58,3.96,1.05,6.11,1.4,6.46,1.63,1.63,7.27,4.01,16.93,7.15h10.12c.35-1.05.52-1.69.52-1.92,0-1.28-1.34-2.33-4.01-3.14-2.68-.7-4.01-1.4-4.01-2.09l.7-3.49c0-1.4-.35-2.5-1.05-3.32-.7-.7-1.05-1.69-1.05-2.97,0-1.98,1.05-2.97,3.14-2.97.7,0,1.63.29,2.79.87,1.16.58,2.5.87,4.01.87,4.65,0,6.98-1.28,6.98-3.84,0-.93-1.22-1.45-3.66-1.57-2.68-.12-4.13-.7-4.36-1.74-1.4-5.23-2.09-8.32-2.09-9.25l2.27-9.42c0-1.86-1.57-3.78-4.71-5.76-3.14-1.98-4.71-4.3-4.71-6.98,0-1.98-.93-4.19-2.79-6.63-1.86-2.33-2.79-4.3-2.79-5.93,0-.7.17-1.34.52-1.92.35-.58.52-1.16.52-1.75,0-1.4-.76-2.73-2.27-4.01Z"/>
</svg>