<svg width="630" height="65" viewBox="0 0 630 65" fill="none" xmlns="http://www.w3.org/2000/svg">
<g clip-path="url(#clip0_37_3020)">
<path d="M33.7568 0V2.9297H26.2312V17.3246H22.028V0H33.7568Z" fill="#0D7383"/>
<path d="M73.002 8.59239H68.4437V21.5793C68.4437 23.3415 67.9835 24.2641 66.5371 24.7801C65.1258 25.3223 62.9343 25.3748 60.1424 25.3748C60.0021 24.4259 59.3666 22.961 58.8012 21.9859C60.6376 22.069 62.6889 22.069 63.2893 22.069C63.8898 22.0428 64.1002 21.9335 64.1002 21.5268V8.59676H60.1774C59.1869 10.3327 58.0561 11.9025 56.8551 13.1225C56.1144 12.5803 54.2779 11.6314 53.2874 11.1723C54.0982 10.442 54.8433 9.57187 55.5139 8.59676H51.2405V25.4316H47.0022V8.59239H46.6472C45.6216 10.3546 44.5258 11.9812 43.3249 13.2274C42.479 12.659 40.5329 11.7101 39.4722 11.2466C42.2291 8.67109 44.3812 4.39023 45.547 0.157471L49.9607 0.835237C49.5005 2.3788 48.9351 3.92673 48.2645 5.39158H56.2853V7.31556C57.5915 5.17294 58.6171 2.65428 59.2877 0.157471L63.491 0.809001C62.9957 2.35256 62.4653 3.92673 61.7947 5.39158H72.9933V8.59239H73.002Z" fill="#0D7383"/>
<path d="M79.1864 25.5934V22.6637H86.712V8.2688H90.9153V25.5934H79.1864Z" fill="#0D7383"/>
<path d="M123.555 8.88963C127.333 10.9754 132.777 14.0931 135.319 16.2357L131.752 18.7019C129.56 16.6949 124.756 13.6034 120.943 11.3558V25.3965H116.35V12.1691C113.137 14.7971 109.354 17.1584 105.116 18.8375C104.446 17.9717 103.139 16.6424 102.219 15.9078C108.649 13.6034 114.158 9.40123 117.445 5.25155H103.35V1.9458H133.978V5.25155H122.99C122.389 6.09111 121.684 6.93066 120.943 7.74398V10.5644L123.555 8.88526V8.88963Z" fill="#0D7383"/>
<path d="M156.765 18.3259C153.973 20.9539 149.84 23.748 146.097 25.5102C145.216 24.8324 143.625 23.8005 142.599 23.2583C146.272 21.7147 150.335 19.1086 152.316 16.9704L156.77 18.3259H156.765ZM171.106 2.11633V15.0726H146.167V2.11633H171.106ZM150.511 12.0074H166.548V5.20345H150.511V12.0074ZM164.852 16.8873C168.064 18.8113 172.377 21.5792 174.459 23.4769L170.501 25.3747C168.665 23.5031 164.497 20.5778 161.209 18.5445L164.847 16.8916L164.852 16.8873Z" fill="#0D7383"/>
<path d="M200.994 21.9597C201.914 22.0121 202.865 22.0428 203.821 22.0428C205.798 22.0428 212.582 22.0428 215.09 21.9597C214.524 22.6899 213.889 24.1023 213.678 25.0206H203.61C197.146 25.0206 192.767 24.3428 189.8 21.1988C188.529 22.9873 186.903 24.4259 184.856 25.5103C184.255 24.9156 182.629 23.7219 181.678 23.2584C185.281 21.5486 187.437 18.6758 188.248 15.0421L192.451 15.5318C192.206 16.3976 191.921 17.2109 191.641 17.998C192.736 19.8433 194.468 20.8446 196.729 21.3869V14.4999H182.953V11.6532H214.112V14.4999H201.007V16.5332H211.886V19.3273H201.007V21.9553L200.994 21.9597ZM210.742 10.4639H186.228V1.05823H210.742V10.4639ZM206.468 3.3364H190.291V4.69193H206.468V3.3364ZM206.468 6.80394H190.291V8.18571H206.468V6.80394Z" fill="#0D7383"/>
<path d="M234.094 20.766C231.727 22.4757 228.019 24.1285 224.982 25.1561C224.276 24.5614 222.755 23.4464 221.839 22.961C224.912 22.1477 228.304 20.9277 230.211 19.6247L234.098 20.7616L234.094 20.766ZM254.655 10.7612H238.052L238.863 11.2772C237.522 11.7932 236.106 12.3092 234.66 12.7683L241.795 12.5497C243.276 12.0075 244.727 11.4652 246.033 10.8968L248.93 12.8208C244.797 14.4212 240.349 15.803 235.896 16.9399L246.068 16.6163C245.573 16.3189 245.043 16.0216 244.587 15.7505L247.73 14.2856C249.956 15.5318 253.029 17.3465 254.475 18.5971L251.118 20.1975C250.622 19.7384 249.917 19.2224 249.141 18.6233L241.124 18.9469V22.2002C241.124 23.665 240.734 24.4784 239.218 24.9375C237.736 25.3704 235.79 25.3966 233.213 25.3966C233.038 24.5002 232.328 23.254 231.767 22.4407C233.568 22.4932 235.725 22.5238 236.325 22.4932C236.926 22.4932 237.066 22.3838 237.066 22.0865V19.1306C227.563 19.5372 225.972 19.6728 224.807 19.9701C224.701 19.4541 224.206 18.0986 223.926 17.3684C225.337 17.2591 226.823 16.9617 229.119 16.3933C230.18 16.1222 232.332 15.5537 234.949 14.7666C229.014 15.0377 227.918 15.1733 227.178 15.3919C227.002 14.8497 226.507 13.5773 226.152 12.8426C226.963 12.7596 227.743 12.5715 228.799 12.2742C229.575 12.0556 231.412 11.5133 233.358 10.7569H222.3V8.31691H236.22V7.25872H225.867V4.95431H236.22V3.92236H223.996V1.60046H236.22V0.109375H240.458V1.60046H252.928V3.9311H240.458V4.96306H251.126V7.26747H240.458V8.32566H254.659V10.7656L254.655 10.7612ZM245.893 19.5722C248.58 20.5736 252.393 22.174 254.405 23.3415L251.153 25.213C249.386 24.0761 245.643 22.3664 242.851 21.2295L245.889 19.5766L245.893 19.5722Z" fill="#0D7383"/>
<path d="M275.036 16.4281C274.33 15.5623 273.199 14.3424 272.033 13.1749V25.4271H267.795V14.937C266.559 17.2939 265.112 19.4934 263.486 21.0107C263.061 20.0094 262.075 18.6538 261.33 17.7837C263.837 15.6148 266.064 12.038 267.264 8.78467H262.356V5.72379H267.795V0.135498H272.033V5.71942H276.486V8.7803H272.033V9.51054C273.445 10.4069 276.697 13.0087 277.472 13.6865L275.036 16.4238V16.4281ZM294.715 8.78467H291.358V21.4698C291.358 23.3413 290.827 24.1809 289.381 24.6969C287.97 25.2391 285.708 25.3222 282.671 25.3222C282.495 24.3995 281.86 22.9653 281.259 22.0689C283.201 22.1214 285.392 22.1214 285.993 22.1214C286.628 22.0951 286.874 21.9596 286.874 21.4698V13.2273C284.262 16.4544 280.869 19.4628 277.477 21.4392C276.771 20.5997 275.535 19.4584 274.439 18.7806C278.818 16.6643 283.061 12.707 285.603 8.77593H277.477V5.71505H286.874V0.18797H291.362V5.71942H294.719V8.7803L294.715 8.78467Z" fill="#0D7383"/>
<path d="M305.313 16.5638C308.07 15.886 309.657 14.7185 309.871 13.2842C309.766 13.3105 309.626 13.3105 309.481 13.3105C307.715 13.3105 306.124 12.4447 306.124 10.8967C306.124 9.34882 307.715 8.45679 309.587 8.45679C312.094 8.45679 313.404 9.8954 313.404 12.1692C313.404 15.2345 310.827 17.7531 306.444 18.7282L305.313 16.5594V16.5638Z" fill="#0D7383"/>
<path d="M36.1587 56.3246C35.6985 57.6801 34.8876 58.9832 33.5815 60.0939C38.1749 61.2614 43.9692 61.3663 51.1397 61.3401C50.364 62.0703 49.5838 63.4259 49.3383 64.5409C41.6725 64.4053 35.1725 63.9987 30.1233 62.289C27.7565 63.3209 24.649 64.2129 20.5509 64.8382C20.0556 64.0774 18.9248 62.7219 18.0088 61.9654C21.4012 61.5587 23.9784 61.0165 25.9902 60.365C24.6139 59.5517 23.413 58.5197 22.3523 57.3303L25.565 56.329H21.822V45.1874H32.2798V43.587H18.7407V40.7141H49.6846V43.587H36.6847V45.1874H47.4931V56.329H36.1543L36.1587 56.3246ZM25.771 49.5207H32.271V47.7847H25.771V49.5207ZM25.771 53.6966H32.2359C32.271 53.3993 32.271 53.1019 32.271 52.8002V51.9344H25.771V53.6966ZM26.1261 56.3246C27.1517 57.2997 28.2474 58.0606 29.5536 58.6815C30.5792 57.9512 31.1796 57.1904 31.6004 56.3246H26.1261ZM43.3293 51.9344H36.6891V52.8308C36.6891 53.1019 36.6891 53.3993 36.654 53.6966H43.3293V51.9344ZM36.6891 47.7847V49.5207H43.3293V47.7847H36.6891Z" fill="#0D7383"/>
<path d="M76.6399 61.3138C77.5603 61.3663 78.5114 61.3969 79.4669 61.3969C81.4436 61.3969 88.2285 61.3969 90.7356 61.3138C90.1702 62.044 89.5346 63.4564 89.3242 64.3747H79.2565C72.7916 64.3747 68.413 63.6969 65.4458 60.553C64.1747 62.3414 62.5486 63.78 60.5018 64.8644C59.9013 64.2697 58.2752 63.076 57.3241 62.6125C60.9269 60.9028 63.0833 58.0299 63.8942 54.3962L68.0975 54.8859C67.852 55.7517 67.5671 56.5651 67.2866 57.3521C68.3824 59.1974 70.1136 60.1988 72.3753 60.741V53.854H58.5995V51.0074H89.7582V53.854H76.653V55.8873H87.5316V58.6814H76.653V61.3094L76.6399 61.3138ZM86.392 49.818H61.878V40.4124H86.392V49.818ZM82.1186 42.6905H65.941V44.0461H82.1186V42.6905ZM82.1186 46.1581H65.941V47.5398H82.1186V46.1581Z" fill="#0D7383"/>
<path d="M129.74 40.8453V42.8261H116.069V43.7225H126.878V45.594H101.338V43.7225H111.831V42.8261H98.4759V40.8453H111.831V39.4897H116.069V40.8453H129.74ZM116.065 62.0703H129.525V64.2392H98.7213V62.0703H111.826V61.2045H102.149V59.3068H111.826V58.5197C105.787 58.629 104.726 58.7077 103.95 58.9001C103.81 58.4672 103.385 57.4615 103.104 56.893C103.635 56.8406 104.305 56.7313 104.941 56.5389C105.366 56.4295 106.282 56.1584 107.343 55.7518H102.539V55.3189H98.866V51.2523H129.315V55.3189H125.357V53.2593H102.609V54.0464H125.216V55.7561H122.709C124.265 56.4601 125.677 57.2472 126.632 57.8419L124.335 59.3068H126.422V61.2045H116.069V62.0703H116.065ZM125.782 46.3767V50.4696H102.609V46.3767H125.782ZM121.649 47.9465H106.457V48.8954H121.649V47.9465ZM111.897 55.7561C111.086 56.1366 110.306 56.4864 109.53 56.7881L119.207 56.6788C118.537 56.3814 117.866 56.1103 117.301 55.8655L117.476 55.7561H111.897ZM116.065 59.3068H123.976C123.551 59.0094 122.986 58.6552 122.385 58.3054L116.06 58.441V59.3068H116.065Z" fill="#0D7383"/>
<path d="M142.314 51.9344C141.324 51.1211 138.992 49.9011 137.226 49.1709L139.523 46.9189C141.324 47.5705 143.621 48.6286 144.786 49.4682L142.314 51.9344ZM142.95 44.9643C141.959 44.0679 139.737 42.8217 137.971 41.9822L140.373 39.8133C142.104 40.5435 144.401 41.6848 145.497 42.5506L142.954 44.9643H142.95ZM138.041 62.8836C139.312 60.7672 141.114 57.3522 142.42 54.2082L145.742 55.8348C144.611 58.7077 143.165 61.8517 141.784 64.484L138.041 62.8836ZM147.438 49.9536C147.158 51.2829 146.627 52.6646 145.992 53.6135C145.567 53.3162 144.756 52.8527 144.261 52.6384C144.896 51.7726 145.216 50.6576 145.426 49.5731L147.438 49.9536ZM151.817 48.8691C151.747 48.6243 151.641 48.3269 151.497 48.0033C147.048 48.4931 146.093 48.6549 145.562 48.8429C145.457 48.5718 145.032 47.894 144.751 47.5136C145.317 47.4611 145.777 47.1069 146.413 46.591C146.768 46.3461 147.438 45.6946 148.214 44.855C146.377 44.9643 145.777 45.0736 145.422 45.2092C145.282 44.9381 144.892 44.2603 144.611 43.9368C145.036 43.8843 145.352 43.6132 145.707 43.1759C146.132 42.7955 147.333 41.1951 147.863 39.7346L150.125 40.3599C149.595 41.3612 148.819 42.3932 147.933 43.3158L149.524 43.2634C149.84 42.8567 150.125 42.45 150.37 42.0434L152.527 42.8305C151.536 44.1598 150.195 45.5678 148.749 46.7877L150.76 46.626C150.62 46.3811 150.441 46.1362 150.3 45.9219L152.032 45.4322C152.667 46.3286 153.373 47.518 153.588 48.2526L151.821 48.8779L151.817 48.8691ZM169.09 58.9832C169.09 58.9832 169.02 59.7703 168.88 60.1201C168.314 62.2889 167.679 63.4827 166.723 64.0773C165.807 64.5933 164.852 64.7289 163.436 64.7813C162.27 64.8076 160.149 64.7814 157.962 64.7289C157.892 64.0249 157.431 63.0498 156.831 62.372C158.913 62.5338 161.284 62.56 162.13 62.56C162.871 62.56 163.296 62.5338 163.651 62.3414C164.041 62.1228 164.356 61.6899 164.676 60.9334H146.803C147.368 59.6609 147.969 57.8157 148.394 56.2983H163.48V55.4325H147.337V53.6441H167.368V58.1174H151.72L151.435 58.9832H169.099H169.09ZM148.499 53.0713C148.464 52.2317 148.218 50.9593 147.828 49.9273L149.63 49.5731C150.055 50.5745 150.335 51.7945 150.37 52.6078L148.499 53.0669V53.0713ZM151.571 52.446C151.431 51.6589 151.041 50.4652 150.581 49.5469L152.207 49.0878C152.737 49.9536 153.162 51.1211 153.303 51.8513L151.571 52.446ZM161.459 43.8537H153.018V42.1746H156.34C156.095 41.5799 155.669 40.819 155.279 40.2506L158.036 39.8177C158.496 40.4692 159.062 41.3612 159.307 41.9035L157.896 42.1746H161.464V43.8537H161.459ZM154.008 48.8429H160.754V52.8833H154.008V48.8429ZM160.754 46.0225H154.043V44.5577H160.754V46.0225ZM160.754 48.1389H154.043V46.6741H160.754V48.1389ZM156.445 51.4709H158.212V50.2771H156.445V51.4709ZM164.076 49.8705C163.791 51.1429 163.3 52.5816 162.665 53.478C162.275 53.2068 161.429 52.774 160.933 52.5291C161.569 51.6633 161.889 50.5483 162.099 49.4638L164.076 49.8705ZM168.525 48.9216C168.455 48.6767 168.314 48.3794 168.17 48.0558C163.682 48.5456 162.801 48.6811 162.2 48.8954C162.13 48.598 161.705 47.9203 161.389 47.5661C161.99 47.483 162.485 47.1332 163.05 46.591C163.405 46.3461 164.076 45.6946 164.852 44.8812C163.015 44.9906 162.45 45.0999 162.025 45.2354C161.92 44.9643 161.529 44.2866 161.249 43.9324C161.674 43.8799 161.99 43.6088 162.345 43.2021C162.735 42.8217 163.971 41.2213 164.536 39.7302L166.798 40.3818C166.267 41.3569 165.457 42.4151 164.571 43.3377L166.232 43.2852C166.478 42.8786 166.763 42.4719 167.008 42.0652L169.2 42.7955C168.174 44.1248 166.868 45.559 165.422 46.7528L167.398 46.591C167.258 46.3461 167.113 46.1318 166.973 45.9132L168.669 45.4541C169.305 46.3199 170.046 47.5705 170.26 48.3269L168.529 48.9216H168.525ZM165.102 53.3424C165.067 52.5028 164.782 51.038 164.396 49.9798L166.232 49.5994C166.622 50.6576 166.973 52.0393 166.973 52.8789L165.102 53.338V53.3424ZM168.88 49.0615C169.445 50.0935 170.011 51.4753 170.151 52.3411L168.384 52.9663C168.244 52.0437 167.749 50.6095 167.184 49.5513L168.88 49.0615Z" fill="#0D7383"/>
<path d="M187.179 52.8265C186.824 54.9429 186.258 56.81 185.518 58.4104C187.564 61.2045 191.522 61.5544 197.317 61.5806C201.095 61.5806 206.854 61.4188 210.847 61.1215C210.246 61.773 209.716 63.2072 209.506 64.1036C205.833 64.2654 201.344 64.3485 197.246 64.3485C190.746 64.3485 186.718 63.8325 183.966 61.0428C182.835 62.6956 181.389 63.9725 179.798 64.8907C179.267 64.2392 177.856 63.1548 177.041 62.7481C180.008 61.1739 182.059 58.4935 183.116 54.8335H180.609C179.798 54.8335 178.772 55.0216 178.452 55.2402V55.214C178.242 54.5362 177.462 53.1807 177.111 52.586C177.676 52.4767 178.277 52.2886 178.947 51.7202C179.583 51.2611 180.959 49.7962 182.27 48.3576H177.782V45.7821H184.742L185.272 45.6203L187.814 46.5167C186.508 48.0078 184.282 50.5308 182.445 52.3455H184.812L185.447 52.2624L187.179 52.8308V52.8265ZM182.905 45.3186C182.024 44.1511 180.113 42.2839 178.667 40.9284L181.81 39.5204C183.365 40.7928 185.237 42.5026 186.188 43.587L182.901 45.3229L182.905 45.3186ZM195.975 44.0461H187.144V41.4444H195.975V39.5204H200.073V41.4444H209.33V44.0461H200.073V45.2923H207.774V54.51H200.073V55.8393H209.716V58.4672H200.073V60.9072H195.975V58.4672H187.214V55.8393H195.975V54.51H188.555V45.2923H195.975V44.0461ZM192.408 48.843H195.975V47.5137H192.408V48.843ZM195.975 52.2843V50.9025H192.408V52.2843H195.975ZM200.073 47.5137V48.843H203.746V47.5137H200.073ZM203.746 50.9025H200.073V52.2843H203.746V50.9025Z" fill="#0D7383"/>
<path d="M228.405 53.9371C227.309 54.182 226.249 54.4531 225.118 54.698V61.2308C225.118 62.7218 224.798 63.5089 223.706 64.0249C222.681 64.5409 221.129 64.6502 218.868 64.6196C218.797 63.8325 218.302 62.5032 217.807 61.6374C219.078 61.6899 220.279 61.6899 220.704 61.6637C221.129 61.6637 221.269 61.5543 221.269 61.2045V55.5375L217.912 56.2984L216.992 53.2069C218.193 52.9882 219.639 52.6909 221.265 52.3673V47.5967H217.557V44.6145H221.265V39.516H225.118V44.6145H228.26V47.5967H225.118V51.5802L227.84 50.9856L228.405 53.9415V53.9371ZM246.634 56.001C245.893 57.5752 244.938 58.9001 243.702 60.0108C246.033 60.7979 248.19 61.6112 249.776 62.3677L247.055 64.7245C245.464 63.9112 243.132 62.9886 240.555 62.0659C237.872 63.3384 234.375 64.1823 229.816 64.8032C229.531 63.8806 228.721 62.7437 227.98 62.0659C231.302 61.7686 233.949 61.2789 236.106 60.5749C234.059 59.9233 232.008 59.3549 230.136 58.8651C230.947 58.0518 231.868 57.0505 232.749 55.9923H228.615V53.2812H234.795C235.361 52.4417 235.856 51.6283 236.277 50.8413H229.001V48.104H234.055C233.7 47.2906 232.959 46.1537 232.288 45.3098L234.936 44.6058H229.812V41.8947H237.513C237.197 41.217 236.772 40.5392 236.382 39.9708L241.045 39.3455C241.646 40.1063 242.281 41.0552 242.742 41.8947H249.136V44.6058H243.482L246.695 45.336C245.99 46.3111 245.284 47.26 244.648 48.0996H249.807V50.8369H237.018L240.23 51.3529C239.875 51.9782 239.49 52.6253 239.064 53.2768H243.443C243.618 52.7609 243.759 52.2186 243.868 51.6502L247.861 52.1399C247.826 52.5204 247.721 52.9008 247.616 53.2768H250.337V55.9879H246.629L246.634 56.001ZM236.001 44.6145C236.812 45.4803 237.592 46.6216 237.907 47.4087L235.365 48.1127H240.734C241.405 47.1376 242.216 45.699 242.711 44.6145H236.001ZM237.131 56.001C236.671 56.5695 236.211 57.1117 235.755 57.6277C237.061 57.9818 238.403 58.3579 239.783 58.7646C240.809 58.0037 241.62 57.0855 242.255 56.001H237.131Z" fill="#0D7383"/>
<path d="M271.648 57.1641V49.114H266.844V60.2294H288.851V63.3471H262.461V49.114H257.692V45.9963H262.461V40.2768H266.839V45.9963H271.643V39.7084H275.811V45.9963H280.685V39.9489H285.103V45.9963H289.767V49.114H285.103V57.1641H271.643H271.648ZM275.816 49.114V54.2126H280.69V49.114H275.816Z" fill="#0D7383"/>
<path d="M320.575 51.9344C323.117 53.5611 326.614 54.8904 330.252 55.5944C329.371 56.2459 328.096 57.4921 327.46 58.3579C325.339 57.8157 323.327 57.0855 321.491 56.1628V64.7289H317.112V55.1877H319.759C318.168 54.2126 316.757 53.1544 315.626 51.9344H311.988C310.823 53.1282 309.341 54.1864 307.75 55.1615H310.752V57.033C310.752 59.6085 309.727 63.0236 302.697 65.0044C302.131 64.2173 300.72 62.9973 299.799 62.3764C305.699 60.9116 306.405 58.6334 306.405 56.9018V55.9267C304.393 56.9849 302.236 57.8244 299.975 58.4497C299.374 57.6626 298.138 56.4689 297.218 55.7911C300.75 55.0041 304.248 53.5961 306.755 51.9432H301.141V40.4211H326.325V51.9432H320.566L320.575 51.9344ZM305.348 44.9644H311.528V43.0141H305.348V44.9644ZM305.348 49.3327H311.528V47.3825H305.348V49.3327ZM321.951 43.0141H315.771V44.9644H321.951V43.0141ZM321.951 47.3781H315.771V49.3283H321.951V47.3781Z" fill="#0D7383"/>
<path d="M349.967 51.1212C348.271 56.7313 344.598 60.9335 340.289 63.1592C339.584 62.4814 337.922 61.2352 336.897 60.7454C340.219 59.2281 343.007 56.5695 344.633 53.3731H337.778V50.3384H346.399L347.14 50.2029L349.967 51.1255V51.1212ZM369.112 49.2759C366.464 51.1212 363.212 53.1545 360.53 54.5362C363.002 57.138 366.219 59.145 370.352 60.3913C369.362 61.0165 368.055 62.3415 367.42 63.2116C362.296 61.4494 358.658 58.5504 356.011 54.8336V61.0428C356.011 62.805 355.551 63.6708 354.034 64.213C352.588 64.729 350.432 64.7552 347.464 64.7552C347.289 63.8326 346.618 62.3983 346.053 61.5282C347.819 61.6112 350.011 61.6112 350.646 61.5806C351.282 61.5544 351.492 61.4188 351.492 60.9859V48.0559H342.66V44.9644H355.766C352.763 43.9325 348.665 42.8786 345.413 42.2271L347.495 39.5991C351.593 40.2769 357.492 41.7111 360.495 42.9049L358.233 45.9133C357.633 45.6422 356.857 45.3448 356.007 45.0475V47.2994C356.677 49.0091 357.528 50.6052 358.514 52.07C360.916 50.6052 363.567 48.7074 365.259 47.0808L369.112 49.2759Z" fill="#0D7383"/>
<path d="M386.67 56.5432C386.6 56.1628 386.53 55.7299 386.425 55.2402C380.17 55.9442 379.009 56.189 378.263 56.4601C378.053 55.9179 377.488 54.5624 377.063 53.8322C377.908 53.6966 378.618 53.0451 379.675 52.0175C380.1 51.6108 380.876 50.7713 381.831 49.63C379.254 49.8749 378.509 50.0104 377.979 50.1985C377.803 49.6562 377.203 48.3532 376.813 47.6754C377.448 47.5399 378.014 46.9976 378.684 46.1581C379.355 45.4278 381.406 42.3101 382.537 39.4635L385.964 40.4955C384.799 42.7168 383.243 45.1305 381.621 47.0807L383.882 46.9452C384.693 45.8083 385.509 44.5314 386.179 43.2852L389.357 44.7763C387.485 47.6229 385.048 50.6313 382.502 53.0975L385.754 52.8002C385.509 52.07 385.259 51.3354 384.978 50.7144L387.77 50.146C388.581 51.9913 389.396 54.3744 389.642 55.813L386.674 56.5432H386.67ZM381.511 57.6801C381.226 60.2294 380.665 62.9405 379.92 64.6764C379.215 64.3791 377.694 64.0249 376.848 63.8631C377.659 62.1534 378.119 59.6609 378.334 57.3041L381.511 57.6845V57.6801ZM384.798 57.2472C385.224 59.2543 385.539 61.773 385.609 63.4827L382.642 63.8893C382.642 62.1796 382.357 59.6347 382.042 57.6276L384.798 57.2472ZM387.906 56.5432C388.577 58.0605 389.352 60.0676 389.637 61.3969L386.951 62.1009C386.67 60.7454 385.96 58.6858 385.324 57.1117L387.902 56.5432H387.906ZM403.523 60.7978C405.889 61.3925 408.291 62.1009 409.882 62.5863L408.221 64.8382C406.35 64.1604 403.277 63.1853 400.59 62.4245L401.756 60.7978H396.527L398.649 62.3982C395.857 63.3209 392.324 64.3222 389.747 64.9738C389.431 64.3791 388.791 63.3996 388.3 62.7524C390.242 62.2627 392.964 61.5325 394.976 60.8022H390.242V52.669H408.116V60.8022H403.523V60.7978ZM397.233 42.7168H388.826V40.6572H397.233V39.4897H401.331V40.6572H409.312V42.7168H401.331V43.6394H408.221V45.5634H390.133V43.6394H397.233V42.7168ZM388.967 46.3199H409.277V51.8513H388.967V46.3199ZM392.394 49.9011H394.936V48.2745H392.394V49.9011ZM393.946 55.1308H404.189V54.3175H393.946V55.1308ZM393.946 57.1379H404.189V56.3246H393.946V57.1379ZM393.946 59.1712H404.189V58.3054H393.946V59.1712ZM400.341 49.9011V48.2745H398.044V49.9011H400.341ZM405.675 48.2745H403.413V49.9011H405.675V48.2745Z" fill="#0D7383"/>
<path d="M422.597 52.6122C421.431 51.6371 418.784 50.2553 416.803 49.3589L419.275 47.1638C421.252 47.9771 423.939 49.2234 425.28 50.146L422.597 52.6122ZM426.13 55.5375C424.789 58.4104 423.023 61.4188 421.396 64.0774L417.544 62.2059C419.025 60.1463 421.147 56.7837 422.738 53.6398L426.13 55.5375ZM423.623 45.8345C422.562 44.8332 420.375 43.2852 418.609 42.2839L421.401 40.3031C423.167 41.252 425.534 42.6906 426.595 43.6657L423.627 45.8345H423.623ZM448.562 56.705C447.116 57.5708 445.275 58.4672 443.688 59.1712C445.349 60.365 447.431 61.2308 449.978 61.773C449.057 62.4245 447.892 63.7232 447.331 64.5671C441.076 62.9142 437.688 59.4161 435.637 54.4006H431.609V60.5836L437.438 59.2805C437.508 60.1769 437.828 61.4232 438.074 62.1009C430.197 63.9987 428.852 64.4316 427.936 64.9475C427.546 64.2698 426.415 63.0498 425.744 62.5907C426.485 62.1009 427.406 61.1258 427.406 59.7178V42.3145H435.532C435.216 41.5274 434.756 40.6879 434.331 39.9839L438.218 39.223C438.854 40.1719 439.524 41.3656 439.915 42.3145H447.085V54.405H439.63C440.09 55.3801 440.69 56.2765 441.431 57.1161C442.952 56.3858 444.753 55.4063 445.884 54.593L448.571 56.705H448.562ZM431.604 45.0999V46.9977H442.978V45.0999H431.604ZM431.604 51.6327H442.978V49.6825H431.604V51.6327Z" fill="#0D7383"/>
<path d="M461.952 52.0394C460.821 51.1167 458.349 49.7087 456.478 48.7598L458.95 46.7003C460.821 47.5399 463.328 48.8123 464.529 49.735L461.952 52.0394ZM457.183 63.076C458.455 60.7979 460.186 57.1379 461.422 53.8059L464.744 55.3801C463.683 58.4716 462.237 61.8036 460.891 64.5715L457.183 63.0804V63.076ZM460.326 39.8133C462.092 40.7622 464.354 42.144 465.415 43.1759L462.518 45.2617C461.562 44.2297 459.375 42.7124 457.609 41.6848L460.33 39.8133H460.326ZM488.903 61.2045C488.903 62.6431 488.623 63.5352 487.562 64.0511C486.466 64.5671 484.985 64.6458 482.793 64.6458C482.688 63.8325 482.228 62.3939 481.733 61.5806C482.933 61.633 484.205 61.6068 484.63 61.6068C485.02 61.6068 485.195 61.4975 485.195 61.1171V55.7212H482.123C481.768 58.9744 480.852 62.4726 478.73 64.8863C478.095 64.3703 476.504 63.5045 475.623 63.1766C476.398 62.2802 476.964 61.3051 477.424 60.2469H473.466V64.8032H469.649V60.2469H464.81V57.4265H469.649V55.7736H465.796V46.6085H469.649V45.0343H465.41V42.2708H469.649V39.6122H473.466V42.2708H477.599V45.0343H473.466V46.6085H477.174V55.7736H473.466V57.4265H477.705V59.4336C478.515 56.8318 478.621 53.959 478.621 51.4622V40.4299H488.899V61.1958L488.903 61.2045ZM469.158 50.1722H473.716V48.7642H469.158V50.1722ZM469.158 53.6135H473.716V52.2055H469.158V53.6135ZM485.195 52.8571V49.4682H482.298V51.4753C482.298 51.9082 482.298 52.3717 482.263 52.8571H485.195ZM482.298 43.3115V46.591H485.195V43.3115H482.298Z" fill="#0D7383"/>
<path d="M528.858 43.6657C528.858 43.6657 528.858 44.7501 528.823 45.1305C528.363 57.2473 527.977 61.5587 526.527 62.9973C525.536 63.9987 524.55 64.3004 523.134 64.4884C521.793 64.624 519.672 64.5977 517.59 64.5409C517.52 63.6445 516.954 62.289 516.213 61.3969C518.475 61.5587 520.557 61.5587 521.477 61.5587C522.183 61.5587 522.573 61.4494 523.033 61.0996C524.059 60.2338 524.515 56.1672 524.905 46.5954H517.344C516.424 48.222 515.332 49.7131 514.237 50.8762C513.671 50.4696 512.47 49.8443 511.515 49.3589V62.0179H502.083V63.9987H498.265V43.8581H502.258C502.718 42.5026 503.143 40.7666 503.284 39.4941L507.877 39.9839C507.277 41.3394 506.641 42.6949 506.041 43.8625H511.515V48.2526C513.562 45.9745 515.258 42.6949 516.284 39.5247L520.312 40.2288C519.921 41.3963 519.466 42.5332 518.935 43.6701H528.863L528.858 43.6657ZM507.702 46.6741H502.087V51.0643H507.702V46.6741ZM507.702 59.1712V53.8584H502.087V59.1712H507.702ZM519.426 57.7064C518.436 56.0797 516.248 53.4255 514.517 51.4447L517.804 50.0061C519.571 51.8776 521.903 54.4531 522.998 56.0229L519.431 57.702L519.426 57.7064Z" fill="#0D7383"/>
<path d="M545.04 49.4638C546.031 50.5483 548.398 53.478 548.963 54.182L546.916 56.4339C546.526 55.6468 545.785 54.4006 545.045 53.2331V64.7814H541.231V54.886C540.35 56.893 539.325 58.7077 538.194 60.0108C537.804 59.145 536.958 57.8988 536.358 57.1379C538.299 54.9953 540.101 51.2566 540.986 48.0558H537.208V45.0737H541.236V39.4897H545.049V45.0737H548.441V48.0558H545.049V49.4638H545.04ZM564.4 46.2937C565.916 47.7017 568.038 48.9216 570.194 49.6562C569.383 50.1985 568.252 51.2304 567.687 51.9344C566.697 51.5278 565.745 50.9855 564.825 50.3602V52.8264H553.061V50.2509C552.141 50.8194 551.154 51.3878 550.024 51.8776C549.493 51.1736 548.327 50.1985 547.517 49.7918C549.918 48.8167 551.72 47.6229 553.026 46.2937H548.858V43.8537H554.862C555.073 43.4995 555.253 43.1235 555.393 42.743C553.662 42.8261 551.895 42.8523 550.269 42.8523C550.199 42.2839 549.809 41.335 549.423 40.7666C554.898 40.6573 561.327 40.2768 565.075 39.6297L567.407 41.7154C565.11 42.0959 562.318 42.367 559.386 42.555C559.245 42.9879 559.066 43.4208 558.855 43.8581H569.169V46.298H564.4V46.2937ZM568.813 61.8298C568.813 63.1329 568.494 63.8631 567.293 64.3222C566.127 64.7551 564.61 64.7814 562.454 64.7814C562.314 64.0774 561.853 63.1023 561.463 62.3939H557.505V63.4521H554.538V57.1641H563.37V62.1796H564.36C564.786 62.1534 564.926 62.0703 564.926 61.773V56.106H552.952V64.8076H549.138V53.7185H568.813V61.8254V61.8298ZM557.37 46.2937C557.05 46.7265 556.699 47.1332 556.344 47.5399H561.573C561.218 47.1332 560.867 46.7265 560.547 46.2937H557.37ZM561.183 49.4376H556.519V50.9025H561.183V49.4376ZM560.372 58.9832H557.51V60.5836H560.372V58.9832Z" fill="#0D7383"/>
<path d="M586.231 56.1628C585.876 55.402 585.241 54.2126 584.605 53.1282V64.7858H580.968V54.2126C580.157 56.4645 579.201 58.5241 578.105 59.9321C577.715 59.0357 576.834 57.6801 576.234 56.8974C578.07 54.8117 579.626 51.0424 580.437 47.8154H577.08V44.8332H580.968V39.4941H584.605V44.8332H587.183V44.995L588.524 43.6394C589.935 44.1554 591.811 44.9687 592.762 45.5897L590.821 47.6492C590.08 47.107 588.524 46.3199 587.218 45.7515L587.183 47.811H584.605V49.1928C585.381 50.0323 587.748 53.0976 588.278 53.8016L586.231 56.1584V56.1628ZM595.769 58.3317C594.178 60.5836 591.281 62.8049 588.423 63.9724C587.858 63.2947 586.657 62.2627 585.881 61.7205C588.528 60.881 591.25 59.1712 592.701 57.4659L595.773 58.3317H595.769ZM587.573 51.8776C588.704 50.7932 590.15 49.1403 591.495 47.4874L593.932 49.1665C592.837 50.5745 591.601 52.1749 590.365 53.5567L587.573 51.8776ZM603.435 57.2997C605.446 58.8739 608.238 61.0952 609.58 62.3983L606.718 63.9987C605.446 62.5907 602.655 60.2863 600.643 58.629L603.255 57.2997H600.288V64.7814H596.26V57.2997H587.888V54.698H596.26V53.2594H600.288V54.698H609.084V57.2997H603.43H603.435ZM592.131 43.8799C591.285 43.3115 589.554 42.5244 588.208 42.0084L590.08 40.0845C591.386 40.4911 593.187 41.2214 594.073 41.7636L592.131 43.8799ZM594.533 43.8012C595.418 44.291 596.369 44.9119 597.255 45.5372C597.43 44.7501 597.5 43.963 597.575 43.0972H594.467V40.6048H606.161C606.161 40.6048 606.161 41.3656 606.126 41.6892C606.091 42.6381 606.056 43.5345 606.021 44.3478C607.502 45.3492 609.163 46.7615 609.943 47.7104L607.787 49.2846C607.397 48.7161 606.691 48.0121 605.845 47.2775C605.635 50.0717 605.35 51.3704 604.82 51.8863C604.289 52.481 603.689 52.6997 602.878 52.809C602.172 52.9445 601.147 52.9445 600.016 52.9183C599.981 52.1574 599.661 51.1299 599.205 50.4783C600.016 50.5614 600.687 50.5614 601.077 50.5614C601.467 50.5614 601.677 50.5089 601.888 50.2378C602.313 49.7787 602.523 48.0165 602.733 43.106H600.862C600.472 47.5792 599.345 51.2392 595.212 53.4605C594.787 52.8352 593.836 51.9169 593.056 51.5365C594.682 50.6707 595.738 49.5032 596.413 48.1739C595.353 47.2251 593.906 46.1669 592.596 45.3273L594.537 43.81L594.533 43.8012Z" fill="#0D7383"/>
<path d="M630 52.1748C630 54.5886 627.458 56.565 624.276 56.565C621.094 56.565 618.552 54.5842 618.552 52.1748C618.552 49.7655 621.129 47.7847 624.276 47.7847C627.423 47.7847 630 49.7655 630 52.1748ZM627.458 52.1748C627.458 50.8193 626.047 49.7349 624.28 49.7349C622.514 49.7349 621.103 50.8193 621.103 52.1748C621.103 53.5304 622.549 54.6148 624.28 54.6148C626.011 54.6148 627.458 53.5304 627.458 52.1748Z" fill="#0D7383"/>
</g>
<rect width="6" height="65" fill="#0D7383"/>
<rect width="6" height="25" fill="#E5E647"/>
<defs>
<clipPath id="clip0_37_3020">
<rect width="612" height="65" fill="white" transform="translate(18)"/>
</clipPath>
</defs>
</svg>
