<svg width="534" height="70" viewBox="0 0 534 70" fill="none" xmlns="http://www.w3.org/2000/svg">
<path d="M54.1529 17.9384C60.876 13.0089 65.302 9.63329 65.302 6.76668C65.302 4.81095 63.9084 3.63215 61.435 3.63215C59.5551 3.63215 58.0198 4.59662 56.6951 5.69504L53.9078 3.55178C56.2778 1.59605 58.575 0.524414 62.0974 0.524414C66.9751 0.524414 70.2142 2.9088 70.2142 6.55235C70.2142 9.92799 66.1711 13.4108 61.5729 17.1079C62.8631 17.0008 64.5707 16.8936 65.7882 16.8936H71.4317V20.2157H54.149V17.9384H54.1529Z" fill="white"/>
<path d="M77.3241 10.4638C77.3241 3.92685 80.7737 0.524414 86.0688 0.524414C91.3639 0.524414 94.7791 3.95364 94.7791 10.4638C94.7791 16.974 91.3639 20.5907 86.0688 20.5907C80.7737 20.5907 77.3241 17.0276 77.3241 10.4638ZM89.9358 10.4638C89.9358 5.10564 88.2971 3.60536 86.0688 3.60536C83.8405 3.60536 82.1674 5.10564 82.1674 10.4638C82.1674 15.822 83.8405 17.5098 86.0688 17.5098C88.2971 17.5098 89.9358 15.8488 89.9358 10.4638Z" fill="white"/>
<path d="M100.423 17.9384C107.146 13.0089 111.572 9.63329 111.572 6.76668C111.572 4.81095 110.178 3.63215 107.705 3.63215C105.825 3.63215 104.289 4.59662 102.965 5.69504L100.177 3.55178C102.547 1.59605 104.845 0.524414 108.367 0.524414C113.245 0.524414 116.484 2.9088 116.484 6.55235C116.484 9.92799 112.441 13.4108 107.843 17.1079C109.133 17.0008 110.84 16.8936 112.058 16.8936H117.701V20.2157H100.419V17.9384H100.423Z" fill="white"/>
<path d="M123.766 11.08C123.766 3.71252 128.54 0.524414 133.767 0.524414C136.902 0.524414 139.203 1.54247 140.735 2.77484L138.016 5.13244C137.109 4.3555 135.543 3.71252 134.046 3.71252C131.083 3.71252 128.644 5.40034 128.437 10.3834C129.865 9.01711 132.059 8.21338 133.732 8.21338C138.051 8.21338 141.152 10.1155 141.152 14.1609C141.152 18.2064 137.457 20.5907 133.035 20.5907C128.158 20.5907 123.766 17.6973 123.766 11.08ZM128.575 13.1161C129.061 16.3846 130.803 17.617 132.932 17.617C134.885 17.617 136.45 16.465 136.45 14.1609C136.45 11.9909 134.988 10.9996 132.756 10.9996C131.431 10.9996 129.865 11.5622 128.575 13.1161Z" fill="white"/>
<path d="M180.886 17.2264H170.334V22.3052H166.54V17.2264H152.653V14.5205H157.527V8.27825H166.536V5.45374H159.932C158.668 7.13773 157.187 8.65715 155.736 9.77089C155.027 9.29631 153.454 8.34714 152.558 7.94528C155.334 6.14264 157.711 3.1038 159.04 0.0419922L162.773 0.776825C162.493 1.44277 162.156 2.08192 161.754 2.72107H179.19V5.44991H170.334V8.27443H178.482V10.9076H170.334V14.5129H180.886V17.2187V17.2264ZM166.54 14.5205V10.9152H161.203V14.5205H166.54Z" fill="white"/>
<path d="M190.332 14.4976C192.74 13.9044 194.126 12.8825 194.313 11.6272C194.222 11.6501 194.099 11.6501 193.973 11.6501C192.43 11.6501 191.04 10.8923 191.04 9.53747C191.04 8.18262 192.43 7.40186 194.065 7.40186C196.255 7.40186 197.395 8.66102 197.395 10.6512C197.395 13.3341 195.144 15.5386 191.316 16.3921L190.328 14.4938L190.332 14.4976Z" fill="white"/>
<path d="M233.967 11.3631C232.577 13.2844 230.851 15.0181 228.844 16.5605C229.679 18.3861 230.632 19.4807 231.559 19.4807C232.206 19.4807 232.577 18.3402 232.73 15.5425C233.534 16.2084 234.767 16.8476 235.755 17.1576C235.169 21.3102 234.028 22.355 231.218 22.355C228.967 22.355 227.236 20.9313 225.912 18.6043C224.124 19.7448 222.179 20.7169 220.203 21.4977C219.678 20.8318 218.66 19.8596 217.764 19.2205C220.142 18.39 222.516 17.2265 224.644 15.8755C223.967 14.0001 223.442 11.8415 223.071 9.51838H216.807V12.2242C218.381 12.0099 219.985 11.7726 221.558 11.5583L221.838 14.1226L216.807 14.9072V18.9641C216.807 20.5064 216.374 21.2642 215.141 21.7159C213.939 22.1675 212.086 22.2861 209.586 22.2631C209.433 21.4786 208.813 20.2003 208.288 19.4157C210.015 19.4884 211.807 19.4616 212.362 19.4386C212.917 19.4386 213.101 19.32 213.101 18.9411V15.5004C211.125 15.8104 209.211 16.1166 207.576 16.3539L206.68 13.5064C208.437 13.2921 210.662 13.0318 213.097 12.6988V9.51838H207.266V6.83547H213.097V4.1296C211.431 4.34393 209.732 4.5085 208.158 4.6501C208.005 3.9612 207.511 2.91636 207.109 2.2772C211.428 1.82559 216.213 1.06779 219.361 0.283203L221.83 2.67907C220.287 3.035 218.591 3.34501 216.799 3.62823V6.83164H222.722C222.473 4.69603 222.381 2.4877 222.351 0.329131H226.206C226.145 2.53746 226.268 4.74196 226.516 6.83164H234.909V9.51455H226.884C227.133 10.9383 227.439 12.3161 227.78 13.5255C228.89 12.5036 229.909 11.4358 230.713 10.2991L233.952 11.3669L233.967 11.3631ZM231.712 6.14656C230.908 5.05579 228.997 3.3718 227.332 2.23128L230.108 0.784573C231.743 1.87534 233.779 3.44069 234.675 4.55825L231.712 6.14656Z" fill="white"/>
<path d="M258.93 10.4139H253.623V22.2057H250.227V1.41983C249.611 2.77085 248.899 4.17163 248.099 5.52647V22.2554H244.611V10.3909C243.994 11.1028 243.347 11.7687 242.696 12.3352C242.417 11.6692 241.525 10.035 240.939 9.29633C243.409 7.088 245.69 3.62433 247.05 0.137695L250.446 0.922282L250.262 1.3739H258.934V10.4139H258.93ZM253.623 3.50951V4.86053H256.154V3.50951H253.623ZM256.154 8.27828V6.8775H253.623V8.27828H256.154ZM269.486 18.9831C269.486 20.5485 269.053 21.3101 267.82 21.712C266.557 22.1636 264.612 22.2325 261.71 22.2325C261.557 21.4479 261.001 20.2155 260.538 19.5036C262.422 19.5993 264.551 19.5763 265.167 19.5496C265.753 19.5496 265.971 19.4079 265.971 18.9563V10.4139H260.324V1.3739H269.49V18.9793L269.486 18.9831ZM263.222 3.50951V4.86053H265.967V3.50951H263.222ZM265.967 8.27828V6.8775H263.222V8.27828H265.967Z" fill="white"/>
<path d="M305.249 16.8705H301.731V19.2204C301.731 20.6442 301.329 21.402 300.035 21.8306C298.802 22.2822 296.949 22.3052 294.357 22.3052C294.173 21.5474 293.618 20.361 293.093 19.6491C294.789 19.7218 296.765 19.695 297.32 19.695C297.875 19.695 298.059 19.5764 298.059 19.1745V16.8743H283.525V22.309H279.884V16.8743H276.366V14.2641H279.884V5.55712H288.863V3.99177H277.629V1.40454H304.013V3.99177H292.534V5.55712H301.731V14.2641H305.249V16.8743V16.8705ZM283.525 8.09076V9.94316H288.863V8.09076H283.525ZM283.525 14.2603H288.863V12.339H283.525V14.2603ZM292.538 8.09076V9.94316H298.063V8.09076H292.538ZM298.059 14.2603V12.339H292.534V14.2603H298.059Z" fill="white"/>
<path d="M321.422 15.8487H311.64V13.0242H321.422V15.8487ZM320.744 6.26139H312.26V3.53255H320.744V6.26139ZM330.986 10.058C332.28 14.5895 334.968 18.1259 340.244 19.6453C339.409 20.2156 338.299 21.402 337.805 22.1598C333.854 20.8088 331.357 18.5048 329.688 15.42C328.39 17.9575 325.767 20.5218 320.679 22.3971C320.124 21.7082 318.795 20.6174 317.903 20.0701C326.173 17.1538 327.038 12.5266 327.038 9.46481V7.28327H330.99V10.058H330.986ZM325.587 6.66708C324.63 8.58837 323.459 10.2724 322.222 11.6042C321.418 11.1297 319.538 10.3221 318.55 9.96618C321.112 7.75785 322.93 3.96121 323.826 0.141602L327.9 0.662109C327.59 1.75288 327.253 2.82068 326.851 3.86553H336.139L336.848 3.70095L339.531 4.91037C338.727 7.42488 337.433 9.96618 336.323 11.7918C335.584 11.4588 334.072 10.8885 333.176 10.6283C333.762 9.63321 334.47 8.11378 334.994 6.66708H325.584H325.587Z" fill="white"/>
<path d="M359.379 15.5885C355.306 16.9893 350.738 18.4819 347.254 19.5995L346.021 16.5874C347.193 16.2774 348.583 15.8985 350.125 15.4239L349.509 1.56542L353.334 1.44678L353.889 14.2834C355.432 13.7859 357.006 13.2883 358.549 12.8137L359.383 15.5885H359.379ZM372.152 22.2556C370.98 20.7132 368.664 18.5317 366.382 16.5377C364.131 19.0062 361.076 20.9046 357.002 22.3053C356.477 21.6891 354.965 20.407 354.069 19.8138C363.851 16.9663 367.029 11.2254 368.17 1.47357L372.213 1.75678C371.566 6.62123 370.456 10.5824 368.45 13.8088C371.011 15.8488 373.879 18.2446 375.299 19.9056L372.152 22.2556ZM360.582 10.0849C359.812 8.44683 357.836 5.95529 355.983 4.19857L359.314 2.91644C361.321 4.65019 363.266 6.97334 364.188 8.61141L360.578 10.0811L360.582 10.0849Z" fill="white"/>
<path d="M409.864 7.52056H405.883V18.8875C405.883 20.4299 405.481 21.2375 404.217 21.6891C402.984 22.1637 401.07 22.2096 398.631 22.2096C398.509 21.3791 397.953 20.0969 397.46 19.2435C399.064 19.3162 400.856 19.3162 401.38 19.3162C401.905 19.2932 402.088 19.1975 402.088 18.8416V7.52439H398.662C397.796 9.04381 396.812 10.4178 395.76 11.4856C395.113 11.011 393.508 10.1805 392.643 9.77864C393.351 9.13949 394.002 8.37786 394.588 7.52439H390.855V22.2593H387.153V7.52439H386.843C385.947 9.06677 384.989 10.4905 383.94 11.5813C383.201 11.0837 381.502 10.2532 380.575 9.84753C382.983 7.59328 384.863 3.84639 385.882 0.141602L389.741 0.734828C389.339 2.08585 388.845 3.4407 388.259 4.72283H395.266V6.40683C396.407 4.53147 397.303 2.32697 397.888 0.141602L401.56 0.711865C401.127 2.06289 400.664 3.4407 400.078 4.72283H409.861V7.52439L409.864 7.52056Z" fill="white"/>
<path d="M443.963 13.6671C443.438 18.4589 442.883 20.5256 441.895 21.3064C441.156 21.9225 440.444 22.1139 439.426 22.2096C438.53 22.3053 437.083 22.3053 435.505 22.2555C435.444 21.4709 435.042 20.4031 434.487 19.6913C435.815 19.7869 437.109 19.8099 437.726 19.7869C438.22 19.7869 438.526 19.764 438.836 19.5267C439.361 19.1248 439.793 17.8427 440.165 14.9952H422.174C421.741 15.2555 421.308 15.5425 420.88 15.7798L423.533 16.4687C422.917 18.5086 421.99 20.717 420.168 22.1866L417.33 20.6442C418.812 19.5305 419.8 17.7968 420.355 16.063C419.429 16.5835 418.41 17.0581 417.361 17.5097C416.928 16.7978 416.033 15.6841 415.385 15.0411C420.325 13.1199 423.966 10.0351 426.462 6.49869H416.833V3.96122H422.851C422.266 3.10774 421.217 1.96722 420.259 1.11374L423.56 0.118652C424.67 1.02189 425.968 2.32698 426.584 3.20342L424.176 3.96122H428.035C428.744 2.70205 429.299 1.39696 429.732 0.118652L433.495 0.784595C433.063 1.8524 432.569 2.92021 432.044 3.96505H439.82C439.449 5.36583 438.985 7.00389 438.587 8.30899H441.796C441.455 9.70976 441.057 11.2981 440.624 12.5802H444.051L443.959 13.671L443.963 13.6671ZM427.545 16.2046C428.131 17.724 428.441 19.718 428.441 21.0461L425.294 21.3293C425.386 20.0472 425.08 18.0073 424.586 16.4878L427.549 16.2046H427.545ZM427.3 10.724C426.684 11.3631 426.068 11.9832 425.386 12.5764H437.328C437.511 12.0061 437.699 11.3899 437.852 10.724H427.3ZM432.021 15.7798C432.729 17.0849 433.442 18.8416 433.656 19.9553L430.723 20.5486C430.539 19.3851 429.858 17.6054 429.211 16.2773L432.017 15.7798H432.021ZM430.57 6.49869C430.168 7.11488 429.77 7.70811 429.307 8.30133H435.26C435.444 7.75403 435.632 7.13784 435.815 6.49869H430.57ZM435.662 19.0291C435.383 18.1986 434.613 16.8208 433.844 15.8257L436.374 15.1598C437.209 16.1319 438.04 17.414 438.35 18.2905L435.666 19.0253L435.662 19.0291Z" fill="white"/>
<path d="M477.383 22.2785H473.558V21.3293H463.098V22.2555H459.427V15.5157C457.267 16.4649 454.951 17.2227 452.608 17.8427C452.175 17.0581 451.249 15.8984 450.479 15.3282C454.335 14.4747 458.071 13.051 461.28 11.2215C460.047 10.1767 458.194 8.9443 456.559 7.94921C455.51 8.58837 454.369 9.18159 453.132 9.75185C452.577 9.06295 451.375 8.01811 450.54 7.54353C455.602 5.48063 458.994 2.5834 460.786 0L464.921 0.593223C464.458 1.20941 463.933 1.8256 463.378 2.44562H470.381L470.997 2.30401L473.528 3.32589C471.954 6.57523 469.454 9.35382 466.368 11.6081H477.383V22.2861V22.2785ZM460.843 4.91037C460.349 5.31223 459.856 5.71792 459.331 6.11979C460.966 7.04598 462.941 8.23243 464.239 9.25048C465.966 7.94539 467.417 6.47572 468.527 4.91037H460.843ZM473.555 18.7918V14.1647H463.095V18.7918H473.555Z" fill="white"/>
<path d="M35.8786 49.2109C35.1205 53.4362 33.8494 57.3247 31.8164 60.5702C33.5278 62.6216 35.5991 64.3668 38.1069 65.5609C36.9927 66.2652 35.3579 67.7654 34.5615 68.7758C32.4098 67.5511 30.5797 66.0202 29.0674 64.1525C27.1951 66.0814 24.9247 67.643 22.1375 68.7758C21.6589 68.1329 20.7438 67.2755 19.8288 66.5407V66.9081H15.6478V65.6834H10.391V67.5205H6.40922V62.1011C5.77366 64.2444 4.85477 66.2345 3.62194 67.8879C2.86386 67.2449 0.953342 66.1427 0 65.7753C3.22375 61.4275 3.50325 55.1202 3.50325 50.6499V42.3524C8.40014 41.9544 13.8981 41.2808 17.2023 40.4235L20.7859 43.0567C17.0415 43.914 12.3054 44.5263 7.88326 44.8631V46.3634H19.7484V53.0994C22.1757 49.9151 23.4928 45.1693 24.1667 40.301L28.8644 40.7909C28.585 42.5055 28.2289 44.2201 27.7886 45.8429H37.7432V49.2109H35.8709H35.8786ZM19.8326 65.2854C22.6199 64.1219 24.8099 62.4685 26.5213 60.4783C25.5641 58.7025 24.7295 56.7736 24.0135 54.7221C23.4966 55.4876 22.9798 56.1918 22.3825 56.8348C21.7852 56.2224 20.3533 55.1202 19.2774 54.4466H7.7684C7.688 55.1508 7.64972 55.8244 7.53103 56.5592H19.8364V65.2854H19.8326ZM7.88709 49.2721V51.5379H15.5713V49.2721H7.88709ZM15.6517 62.8053V59.4679H10.3949V62.8053H15.6517ZM26.7204 49.2109C26.6821 49.364 26.6017 49.5171 26.5596 49.6395C27.1951 52.0584 28.0336 54.3547 29.1861 56.4674C30.2198 54.3241 30.9779 51.8747 31.5369 49.2109H26.7204Z" fill="white"/>
<path d="M81.907 47.0983C81.907 47.0983 81.8688 48.2924 81.8688 48.721C81.5089 61.2438 81.1911 65.6834 79.9161 67.0919C79.0011 68.1023 78.086 68.4085 76.7689 68.6228C75.5744 68.8065 73.7443 68.7759 71.8299 68.7453C71.7495 67.7349 71.2327 66.2652 70.4363 65.2548C72.1898 65.3773 73.7022 65.4079 74.4564 65.4079C75.0537 65.4079 75.4519 65.2854 75.8118 64.8874C76.6464 64.0607 77.0446 60.3253 77.2858 50.4356H73.7022C73.1853 58.6413 71.3514 64.9486 64.6626 69.0208C64.0654 68.286 62.9091 67.2756 61.8754 66.602C56.14 67.0613 50.4084 67.5205 46.105 67.7961L45.546 64.7343C47.7743 64.6118 50.5616 64.4587 53.6284 64.3056V62.4685H46.6219V59.8966H53.6284V58.7025H46.7789V49.2415H53.6284V48.0474H45.7834V45.4143H53.6284V44.1896C51.3197 44.312 49.0493 44.4039 46.8975 44.4345C46.7367 43.6997 46.3003 42.5668 45.8638 41.8626C51.7561 41.6176 58.6478 41.0971 63.0278 40.3623L65.0991 43.0873C62.9895 43.4241 60.52 43.6997 57.9318 43.914V45.4143H65.5777V47.0983H69.3222C69.3604 45.0775 69.3604 42.9648 69.3604 40.6991H73.9013C73.9013 42.9342 73.9013 45.0775 73.8209 47.0983H81.9032H81.907ZM50.531 52.8851H53.636V51.5379H50.531V52.8851ZM53.636 56.4368V55.059H50.531V56.4368H53.636ZM57.9356 64.0301C60.206 63.9076 62.553 63.7545 64.8656 63.6014C67.9706 60.2947 68.9278 55.9163 69.2073 50.4356H65.5854V48.0474H57.9395V49.2415H64.9881V58.7025H57.9395V59.8966H65.1451V62.4685H57.9395V64.0301H57.9356ZM61.0445 52.8851V51.5379H57.9395V52.8851H61.0445ZM57.9356 55.059V56.4368H61.0407V55.059H57.9356Z" fill="white"/>
<path d="M127.503 52.2422V56.1919H90.87V52.2422H127.503Z" fill="white"/>
<path d="M156.888 55.5489C156.57 56.0388 156.172 56.5287 155.774 57.0186H171.942C171.942 57.0186 171.904 57.8453 171.862 58.2739C171.303 64.2444 170.667 66.6939 169.592 67.5818C168.833 68.286 167.961 68.531 166.965 68.6228C166.05 68.7147 164.538 68.7453 162.945 68.6841C162.865 67.8267 162.466 66.602 161.869 65.8366C163.144 65.9284 164.178 65.9284 164.695 65.9284C165.254 65.9284 165.571 65.8672 165.889 65.5916C166.448 65.1324 166.923 63.5708 167.363 59.866H165.809C164.178 63.2953 161.069 67.0001 157.845 68.929C157.049 68.2248 155.693 67.3981 154.499 66.9082C157.524 65.4385 160.192 62.7135 161.904 59.866H159.553C157.401 62.8054 153.699 65.8672 150.234 67.5512C149.476 66.847 148.243 65.9284 147.129 65.4079C150.077 64.2751 153.14 62.1318 155.253 59.866H152.902C151.428 61.0602 149.878 62.0706 148.243 62.8666C147.646 62.2849 146.133 61.2132 145.138 60.7234C142.27 61.8256 139.402 62.9279 136.975 63.8464L135.221 60.1722C136.577 59.7742 138.246 59.2537 140.118 58.6719V50.0376H136.136V46.6084H140.118V40.5767H144.498V46.6084H148.243V50.0376H144.498V57.2635L147.684 56.1919L148.518 58.7944C149.95 57.8453 151.187 56.743 152.183 55.5489H147.684V52.4871H172.731V55.5489H156.884H156.888ZM170.028 51.3236H151.195V40.9747H170.028V51.3236ZM165.648 43.4854H155.376V44.955H165.648V43.4854ZM165.648 47.3433H155.376V48.8129H165.648V47.3433Z" fill="white"/>
<path d="M216.217 48.4147C214.705 51.1397 212.672 53.6504 210.325 55.8243C211.401 61.3355 212.875 65.224 213.828 65.224C214.345 65.224 214.705 63.4788 214.785 59.8046C215.743 60.5701 217.136 61.3662 218.331 61.7336C217.695 67.2448 216.42 68.6226 213.235 68.6226C210.049 68.6226 207.978 64.4586 206.584 58.733C205.907 59.1617 205.191 59.5903 204.475 59.9883C205.75 62.0704 207.182 64.7648 207.821 66.3875L204.517 67.4898C204.157 66.5712 203.602 65.2547 202.962 63.9381C202.564 67.4285 201.649 68.3777 199.061 68.3777H195.638C192.334 68.3777 191.576 67.5816 191.576 65.1016V59.6822H195.041L194.482 58.9167L195.558 58.5187H189.945V51.4459H202.805V56.8347C203.839 56.2836 204.835 55.61 205.754 54.9057C205.275 52.1501 204.919 49.1802 204.678 46.2408H188.034V49.0883C188.034 54.4771 187.399 63.2032 183.853 68.8676C183.057 68.2858 181.104 67.2448 180.109 66.9387C183.413 61.6417 183.693 54.0791 183.693 49.0883V43.2403H204.517C204.436 42.2299 204.398 41.2195 204.398 40.2091H208.816C208.816 41.2195 208.816 42.2605 208.855 43.2403H212.079C211.202 42.5973 210.088 41.8624 209.173 41.2807L211.922 39.811C213.235 40.5153 214.908 41.5869 215.823 42.2605L214.069 43.2403H217.056V46.2408H209.012C209.13 47.9861 209.33 49.6701 209.571 51.3541C210.604 50.1293 211.443 48.8434 212.159 47.5268L216.221 48.4147H216.217ZM186.151 66.6325C187.184 64.9485 187.942 62.2847 188.302 60.1108L191.369 60.8457C190.971 63.0808 190.293 65.9589 189.217 67.7653L186.151 66.6325ZM203.353 50.0375H189.374V47.6186H203.353V50.0375ZM193.716 56.1305H199.13V53.8035H193.716V56.1305ZM198.617 65.9283C199.452 65.9283 199.612 65.4996 199.731 62.6827C200.409 63.1114 201.883 63.54 202.836 63.7237C202.357 62.6521 201.802 61.5805 201.282 60.6619L204.23 59.774C203.832 59.4066 203.234 58.9473 202.637 58.5187H197.74C198.774 59.8046 199.93 61.3662 200.527 62.3153L197.541 63.54C197.105 62.6521 196.228 61.3662 195.351 60.1108V65.0709C195.351 65.8364 195.47 65.9283 196.308 65.9283H198.617Z" fill="white"/>
<path d="M261.491 42.7199V48.6904H256.434V46.1491H231.505V48.6904H226.689V42.7199H242.26C241.98 42.0463 241.624 41.3727 241.265 40.8216L246.081 39.9949C246.678 40.8216 247.237 41.832 247.593 42.7199H261.491ZM236.521 58.5494H257.785V68.6534H252.888V67.5511H236.521V68.7759H231.662V47.9556H256.35V56.5286H236.521V58.5494ZM236.521 51.048V53.4362H251.571V51.048H236.521ZM236.521 61.7031V64.3669H252.888V61.7031H236.521Z" fill="white"/>
<path d="M307.44 61.795H296.21C299.954 63.1422 303.936 64.7343 306.364 65.8978L303.216 68.684C300.667 67.3368 296.287 65.3773 292.347 63.9076L294.456 61.795H282.63L285.976 63.9076C282.553 65.6528 277.614 67.5512 273.713 68.7759C273.077 68.0104 271.921 66.8163 271.044 66.0509C274.547 65.0405 279.126 63.2952 281.795 61.795H270.925V58.427H274.509L273.831 42.628C276.339 42.0157 279.406 41.0971 281.435 40.3623L283.464 43.3323C281.791 43.7915 279.919 44.1589 278.127 44.5264L278.246 47.282H282.787V50.2519H278.368L278.487 52.8851H282.905V55.8551H278.606L278.724 58.427H299.51C299.591 57.6309 299.629 56.8348 299.709 55.9469H295.689V52.9463H299.87C299.908 52.089 299.951 51.2011 299.989 50.3132H295.969V47.3126H300.111C300.111 46.4247 300.111 45.5674 300.15 44.6795H295.571V41.5564H304.491C304.491 47.0064 304.292 53.8343 303.975 58.427H307.44V61.795ZM288.445 51.8441C288.166 53.8649 287.53 55.8551 286.454 57.141C285.819 56.743 284.264 56.0388 283.43 55.702C284.425 54.5691 284.743 53.0076 284.942 51.3848L288.445 51.8441ZM290.356 50.65H284.345V40.4848H288.365V42.5668H294.617V45.5674H288.365V47.8025H292.783V47.8331H294.296V55.6101C294.296 56.8654 293.978 57.386 292.902 57.784C291.868 58.1514 290.314 58.1514 288.361 58.1514C288.2 57.4472 287.726 56.5593 287.327 55.9163C288.361 55.9775 289.517 55.9775 289.877 55.9469C290.237 55.9469 290.356 55.8857 290.356 55.6101V50.65Z" fill="white"/>
<path d="M315.759 65.2547C317.593 63.4177 319.106 60.662 319.94 58.1514L324.24 59.3455C323.283 61.948 321.931 65.0404 320.021 67.0612L315.759 65.2547ZM332.207 56.0081H319.745V41.4951H348.257V56.0081H333.207C335.875 57.0491 338.942 58.6106 340.573 59.8966L337.188 62.3766C335.634 61.0601 332.292 59.1618 329.424 57.9983L332.211 56.0081H332.207ZM324.202 47.2207H331.687V44.6488H324.202V47.2207ZM324.202 52.8544H331.687V50.16H324.202V52.8544ZM338.26 64.9486C339.891 64.9486 340.213 64.4893 340.45 61.4581C341.408 62.0092 343.437 62.591 344.712 62.8053C344.195 67.1531 342.801 68.2553 338.659 68.2553H332.05C326.794 68.2553 325.48 67.1837 325.48 63.9382V58.9168H330.258V63.9076C330.258 64.8261 330.618 64.9486 332.609 64.9486H338.264H338.26ZM343.556 44.6488H336.27V47.2207H343.556V44.6488ZM343.556 50.16H336.27V52.8544H343.556V50.16ZM347.377 57.9676C349.605 60.264 351.837 63.234 352.633 65.3772L348.016 66.8775C347.338 64.8261 345.309 61.7031 343.157 59.3148L347.38 57.9676H347.377Z" fill="white"/>
<path d="M367.764 52.5482C366.409 54.3547 364.897 55.8856 363.265 56.9878C362.588 56.1918 361.194 55.0589 360.241 54.4772C362.867 52.9769 365.456 50.3131 367.01 47.6493H361.236V44.5569H367.768V40.2397H372.267V44.5569H377.883V47.6493H372.267V48.7822C373.859 49.4864 377.642 51.5684 378.557 52.1502L376.088 55.0589C375.173 54.2934 373.699 53.1912 372.267 52.1808V58.58H367.768V52.5482H367.764ZM360.517 65.469C361.948 63.8463 363.304 61.3356 363.981 59.1617L368.201 60.4477C367.404 62.6216 366.248 65.3466 364.854 67.1224L360.513 65.469H360.517ZM383.255 64.9792C385.127 64.9792 385.407 64.5505 385.644 61.4581C386.601 62.0398 388.592 62.5603 389.905 62.744C389.308 67.1224 387.995 68.194 383.615 68.194H376.448C371.034 68.194 369.636 67.1837 369.636 63.9994V59.8047H374.334V63.9381C374.334 64.8567 374.732 64.9792 376.884 64.9792H383.255ZM378.634 57.3859L379.43 57.937V41.74H395.599V58.2126H379.828C381.383 59.3148 383.094 60.6008 384.048 61.4581L380.625 63.6626C379.511 62.5603 377.16 60.6926 375.368 59.4067L378.634 57.3859ZM383.73 46.394H391.058V44.6181H383.73V46.394ZM383.73 50.8642H391.058V49.0884H383.73V50.8642ZM383.73 55.3651H391.058V53.528H383.73V55.3651ZM392.93 58.7637C394.523 60.662 396.832 63.2645 397.907 64.8567L393.489 66.6019C392.532 64.9792 390.342 62.2848 388.791 60.2334L392.934 58.7637H392.93Z" fill="white"/>
<path d="M441.708 44.9244C441.708 44.9244 441.708 46.1491 441.669 46.5778C441.152 60.2641 440.712 65.1323 439.081 66.7551C437.967 67.888 436.853 68.2248 435.26 68.4391C433.748 68.5922 431.359 68.5616 429.008 68.5003C428.928 67.4899 428.292 65.959 427.453 64.9486C430.003 65.1323 432.35 65.1323 433.388 65.1323C434.184 65.1323 434.621 65.0099 435.141 64.6118C436.298 63.6321 436.815 59.0393 437.251 48.2312H428.728C427.695 50.0683 426.458 51.7522 425.225 53.0688C424.59 52.6096 423.234 51.9053 422.158 51.3542V65.6529H411.526V67.888H407.227V45.1387H411.725C412.242 43.6078 412.721 41.6483 412.882 40.2092L418.058 40.7604C417.38 42.2913 416.664 43.8222 415.987 45.1387H422.158V50.0989C424.467 47.527 426.378 43.8222 427.534 40.2398L432.075 41.0359C431.638 42.3525 431.118 43.6385 430.52 44.9244H441.711H441.708ZM417.855 48.323H411.522V53.2831H417.855V48.323ZM417.855 62.438V56.4368H411.522V62.438H417.855ZM431.075 60.7846C429.961 58.9475 427.492 55.9469 425.539 53.7118L429.241 52.089C431.232 54.2017 433.859 57.1104 435.095 58.8863L431.075 60.7846Z" fill="white"/>
<path d="M487.219 64.4587H471.491V68.8371H466.552V64.4587H451.103V61.152H466.552V59.3455H455.403V51.4154H466.552V49.9152H459.304V45.5368H451.739V42.4444H459.304V40.2092H463.964V42.4444H474.037V40.2092H478.934V42.4444H486.538V45.5368H478.934V49.9152H471.487V51.4154H483.115V59.3455H471.487V61.152H487.215V64.4587H487.219ZM466.552 56.5593V54.2323H460.181V56.5593H466.552ZM463.964 47.2208H474.037V45.5368H463.964V47.2208ZM471.491 54.2323V56.5593H478.023V54.2323H471.491Z" fill="white"/>
<path d="M518.117 41.8013C517.879 42.0462 517.6 42.2912 517.32 42.5361C520.904 45.1386 526.877 47.2819 533.091 48.2617C531.896 49.0884 530.46 50.6499 529.706 51.7215C527.198 51.1704 524.729 50.4356 522.458 49.4864V51.3847H505.417V49.3946C502.947 50.4049 500.359 51.2316 497.809 51.8746C497.212 50.803 496.136 49.3333 495.06 48.3535C502.626 47.0063 510.509 43.5465 514.334 39.7192L518.117 41.8013ZM511.907 64.1831H503.028V66.6325H498.728V53.1606H511.91V64.1831H511.907ZM503.028 56.3142V60.9988H507.488V56.3142H503.028ZM519.552 48.1392C517.6 47.1288 515.888 46.0266 514.338 44.8018C512.546 45.9959 510.475 47.1288 508.323 48.1392H519.552ZM529.664 61.5499C529.664 63.1727 529.346 64.0912 527.91 64.6424C526.555 65.1935 524.645 65.1935 522.056 65.1935C521.938 64.2137 521.34 62.8665 520.862 61.9173C522.336 61.948 523.967 61.948 524.445 61.948C524.962 61.948 525.123 61.8255 525.123 61.4887V56.4061H519.629V68.8676H514.969V53.1912H529.664V61.5499Z" fill="white"/>
</svg>
