<svg width="193" height="133" viewBox="0 0 193 133" fill="none" xmlns="http://www.w3.org/2000/svg">
<g clip-path="url(#clip0_45_661)">
<path d="M59.1584 23.201H53.9526V15.071H5.06414V23.201H0V11.5108H11.4209C10.3496 9.69528 7.99461 7.01185 5.85209 5.02807L10.5621 3.54908C12.9171 5.47088 15.4138 8.16316 16.6267 9.96982L12.2 11.5108H27.1091V3H32.4565V11.5108H59.1407V23.201H59.1584ZM54.8025 46.4839C54.8025 48.6271 54.2359 49.7253 52.0225 50.3275C49.8092 50.9828 46.2413 50.9828 40.7522 50.9828C40.4689 49.8315 39.6101 48.3437 38.893 47.2455C43.178 47.3518 46.9584 47.3518 48.0297 47.2987C49.1009 47.2455 49.4551 47.0773 49.4551 46.4219V38.7347H32.8992V53.1703H27.5518V38.7347H9.9158V50.7083H4.63918V35.0063H27.5429V30.5073H10.9871V18.9766H48.2333V30.5073H32.8904V35.0063H54.7936V46.4839H54.8025ZM16.0512 27.4342H42.9478V22.0497H16.0512V27.4342ZM53.3771 4.92179C51.0221 7.33953 48.313 9.86355 46.2413 11.5108L41.9562 10.1381C43.9571 8.32257 46.5246 5.41774 47.8792 3.44281L53.3771 4.92179Z" fill="#3E3A39"/>
<path d="M134.085 48.8486C136.935 48.8486 137.511 47.8567 137.794 41.1083C138.936 41.8256 141.22 42.481 142.717 42.7555C142.079 50.7172 140.503 52.6922 134.51 52.6922H123.018C116.307 52.6922 114.528 51.4877 114.528 47.0331V36.0514H102.823C101.115 44.8367 96.5463 50.3276 80.3446 53.1792C79.9196 52.1342 78.4145 50.4338 77.3521 49.6102C91.9779 47.3607 95.7583 43.0743 97.2634 36.0514H87.6309V4.92188H132.518V36.0514H119.884V46.9799C119.884 48.574 120.459 48.8486 123.523 48.8486H134.085ZM92.7659 14.2032H127.161V8.60605H92.7659V14.2032ZM92.7659 23.263H127.161V17.6039H92.7659V23.263ZM92.7659 32.4292H127.161V26.717H92.7659V32.4292Z" fill="#3E3A39"/>
<path d="M5.63964 104.279V132.885H0.424988V85.0615H26.0379V104.279H5.63964ZM5.63964 88.356V92.9701H20.9826V88.356H5.63964ZM20.9826 100.985V95.9901H5.63964V100.985H20.9826ZM20.6196 125.145V128.439H15.7679V109.168H42.3104V125.145H20.6196ZM20.6196 112.631V121.691H37.3879V112.631H20.6196ZM58.6537 127.341C58.6537 130.033 57.795 131.406 55.5108 132.114C53.0141 132.77 48.9504 132.832 42.7354 132.832C42.452 131.681 41.5933 129.759 40.8761 128.661C45.5153 128.829 50.1545 128.767 51.5799 128.714C52.8636 128.714 53.2886 128.386 53.2886 127.341V104.279H32.3769V85.0615H58.636V127.341H58.6537ZM37.4587 88.3029V92.9701H53.2975V88.3029H37.4587ZM53.3063 101.047V95.9989H37.4676V101.047H53.3063Z" fill="#3E3A39"/>
<path d="M96.4754 126.021C102.115 127.89 109.393 128.218 118.166 128.271C121.309 128.271 138.857 128.271 143 128.164C142.212 129.041 141.362 130.582 141.07 131.68H118.166C102.752 131.68 92.1195 130.361 85.7008 123.001C84.7004 126.951 82.9917 130.467 80.2826 132.991C79.6363 132.221 78.0692 130.963 76.9271 130.352C81.2122 126.402 82.4251 119.043 82.7792 112.338H87.2059C87.0643 114.428 86.9226 116.563 86.6393 118.6C87.9939 120.849 89.7823 122.612 91.9159 123.922V109.318H77.7859V106.13H109.756V109.318H96.4843V115.19H108.543V118.316H96.4843V126.004L96.4754 126.021ZM105.541 102.145H81.9913V85.0171H105.541V102.145ZM100.69 88.0282H86.7721V92.0932H100.69V88.0282ZM100.69 94.9537H86.7721V99.125H100.69V94.9537ZM122.38 118.83C119.308 121.85 114.244 124.923 109.747 126.898C108.959 126.243 107.25 124.87 106.179 124.321C110.676 122.727 115.245 120.256 117.954 117.732L122.38 118.83ZM121.026 92.6954C121.592 91.3758 122.168 89.8968 122.593 88.5241H109.322V85.3979H141.575V88.5241H127.515C126.878 89.95 126.161 91.4378 125.515 92.6954H138.715V116.802H112.031V92.6954H121.026ZM133.792 95.7154H116.812V99.8335H133.792V95.7154ZM133.792 102.694H116.812V106.759H133.792V102.694ZM133.792 109.664H116.812V113.782H133.792V109.664ZM131.437 117.679C135.572 119.601 140.211 122.62 142.566 124.711L138.715 126.632C136.36 124.436 131.721 121.31 127.799 119.273L131.437 117.679Z" fill="#3E3A39"/>
</g>
<g clip-path="url(#clip1_45_661)">
<path d="M158.009 17.5049V21.7024H175.509V17.5049H158.009Z" fill="#ED6B00"/>
<path d="M171.311 35H175.509V0H171.311V35Z" fill="#A0D2F2"/>
<path d="M158.009 13.3025V17.5L193.009 17.5V13.3025L158.009 13.3025Z" fill="#E5E647"/>
<path d="M175.514 35H179.711V0H175.514V35Z" fill="#5D912E"/>
<path d="M175.509 17.5V21.6975H193.009V17.5H175.509Z" fill="#ED6B00"/>
</g>
<defs>
<clipPath id="clip0_45_661">
<rect width="143" height="130" fill="white" transform="translate(0 3)"/>
</clipPath>
<clipPath id="clip1_45_661">
<rect width="35" height="35" fill="white" transform="translate(158.009)"/>
</clipPath>
</defs>
</svg>
