<svg width="227" height="131" viewBox="0 0 227 131" fill="none" xmlns="http://www.w3.org/2000/svg">
<path d="M28.0135 28.1484C29.4376 30.0687 31.1536 32.5906 31.8612 34.1303L29.2961 34.9002H30.0125V39.7848C30.0125 43.8996 28.7299 47.6338 19.8934 50.0408C19.398 49.324 18.1862 48.1736 17.3282 47.625C21.8924 46.5277 24.1746 45.0499 25.2449 43.404H15.7626V35.7231H19.398V40.829H26.1029C26.1736 40.4485 26.1736 40.1122 26.1736 39.7317V34.9002H28.8803C28.668 34.4577 28.3054 33.856 28.0223 33.2012C16.7621 34.0241 15.0461 34.2985 13.9758 34.5728C13.905 34.0241 13.3301 32.5995 12.9055 31.8827C13.9758 31.8296 15.2584 31.2279 16.7533 30.343C17.5405 29.9005 19.1769 28.9183 21.0344 27.4936C16.2579 27.7679 15.0461 27.9361 14.4004 28.1484C14.1173 27.4936 13.6839 26.122 13.1885 25.3522C13.9758 25.246 14.6834 24.9717 15.5414 24.3611C16.2579 23.8125 18.9646 21.6179 20.601 19.3703H8.34126V50.4213H3.28168V2.64575H29.2341V19.3791H21.8217L24.2453 20.3702C22.6089 22.2373 20.6099 23.9894 18.6816 25.361L23.9534 25.1929C25.0945 24.2637 26.1648 23.3258 27.0935 22.3435L30.2337 23.9363C26.8105 26.7326 23.1043 29.4227 19.4688 31.511L26.669 31.0686C26.1736 30.2987 25.6694 29.5289 25.1741 28.8741L28.0223 28.1573L28.0135 28.1484ZM8.34126 5.6013V9.71607H24.2365V5.6013H8.34126ZM8.34126 16.3528H24.2365V12.4592H8.34126V16.3528ZM62.1656 45.2712C62.1656 47.5188 61.5907 48.7842 59.6712 49.439C57.8137 50.1558 54.8239 50.262 50.4012 50.262C50.1182 49.1647 49.4725 47.2445 48.7648 46.2003C51.9049 46.3065 54.8947 46.3065 55.8235 46.2534C56.7522 46.2534 57.0353 45.9791 57.0353 45.2623V19.3703H41.0693L43.7052 20.4145C41.9981 22.2816 39.999 23.9806 38.1415 25.4053L43.4133 25.184C44.5544 24.2549 45.5539 23.3169 46.5535 22.3347L49.6228 23.8744C46.2704 26.7238 42.5642 29.4138 38.858 31.5022L45.9874 31.0597C45.492 30.2899 44.9878 29.52 44.4925 28.8652L47.1992 28.1484C48.7648 30.0156 50.4808 32.5906 51.33 34.0772L48.4818 35.0683C48.1987 34.5197 47.8361 33.918 47.3407 33.2012C36.1513 34.0772 34.3645 34.2454 33.4357 34.6259C33.2942 34.0241 32.7192 32.6526 32.3654 31.8827C33.4357 31.7765 34.6475 31.281 36.1424 30.4049C36.9297 29.9625 38.4953 28.8652 40.4944 27.4936C35.5763 27.7679 34.4352 27.9361 33.7895 28.2104C33.5772 27.5556 33.0023 26.184 32.5069 25.4141C33.3649 25.3079 34.0726 25.0336 34.8598 24.423C35.6471 23.8213 38.283 21.6799 39.9902 19.3791H35.5675V2.64575H62.1568V45.2712H62.1656ZM45.4124 45.103V43.404H38.5661V49.6072H34.5768V34.9002H38.5661V40.829H45.4124V35.7851H49.1894V45.1119H45.4124V45.103ZM40.6359 5.6013V9.71607H57.0353V5.6013H40.6359ZM57.0353 16.3528V12.4592H40.6359V16.3528H57.0353Z" fill="#3E3A39"/>
<path d="M107.436 20.6889C107.436 20.6889 107.436 22.0073 107.366 22.556C106.508 39.7318 105.729 45.5987 103.73 47.572C102.589 48.7754 101.448 49.1648 99.6702 49.271C98.1753 49.4391 95.7517 49.4391 93.1865 49.3241C93.1157 48.2268 92.6204 46.634 91.8331 45.5898C94.3276 45.7579 96.3266 45.7579 97.3261 45.7579C98.2549 45.811 98.821 45.6518 99.396 45.0412C100.749 43.8377 101.537 38.6257 102.244 24.4143H93.1157C92.3285 35.2808 90.2675 44.2713 83.8457 50.2001C83.0585 49.209 81.2098 47.8374 79.8564 47.2357C87.4812 40.1566 88.1269 27.9804 88.3392 13.1142H81.2806V9.3268H109.94V13.1142H93.5403C93.4695 15.6892 93.3988 18.2731 93.2573 20.6889H107.445H107.436ZM95.4598 9.28255C94.6018 7.1942 92.0366 3.90239 89.6837 1.49547L94.3187 0.123885C96.7423 2.48656 99.3783 5.61024 100.449 7.75168L95.4598 9.2914V9.28255ZM130.32 1.15921C129.966 2.20339 129.532 3.18562 129.037 4.17671C132.814 9.99047 139.873 16.2467 146.507 19.096C145.224 19.8659 143.508 21.3437 142.588 22.4409C136.812 19.4235 130.824 13.9902 126.764 8.17643C123.128 14.2645 117.848 19.3173 111.364 22.7684C110.506 21.7773 109.082 20.4057 107.658 19.5296C115.999 15.583 122.341 8.38881 125.481 0L130.328 1.15036L130.32 1.15921ZM118.272 36.44C124.835 38.9088 133.53 42.8024 137.732 45.5987L134.167 49.1648C130.107 46.2535 121.616 42.1387 114.92 39.5106L118.272 36.44ZM131.54 31.6085C128.904 29.5201 123.482 26.2902 119.28 24.0338L122.704 21.3968C126.914 23.4851 132.469 26.5026 135.176 28.5821L131.54 31.5996V31.6085Z" fill="#3E3A39"/>
<path d="M13.905 98.1968V130.018H8.77466V98.1968H0V94.4095H8.76581V79.9857H13.8962V94.4095H21.5209V98.1968H13.8962H13.905ZM65.0138 117.452H54.6735V125.735C54.6735 127.823 54.1074 128.805 52.0376 129.407C49.9678 130.009 46.6242 130.009 41.485 130.009C41.2727 128.965 40.627 127.54 39.9901 126.549C43.9794 126.602 47.4734 126.602 48.4729 126.549C49.614 126.496 49.8262 126.328 49.8262 125.673V117.443H30.7201C34.1433 119.31 38.566 121.832 40.9189 123.372L37.5665 126.115C35.1429 124.416 30.4371 121.505 26.8724 119.532L29.6498 117.443H19.8137V114.045H49.8262V111.249H54.6735V114.045H65.0138V117.443V117.452ZM40.5651 89.1974H22.0251V85.9056H40.5651V79.9768H45.4831V85.9056H57.8137C55.107 84.8083 51.613 83.3837 48.8267 82.2864L51.2504 79.9857C54.7443 81.1891 59.3793 82.9501 61.9445 84.0473L60.2373 85.9145H64.2266V89.2063H45.4743V92.0025H61.2988V107.745C61.2988 109.444 60.8742 110.108 59.2289 110.541C57.7341 111.037 55.3104 111.037 51.7457 111.037C51.4627 110.161 50.8169 109.116 50.2508 108.347C52.7452 108.4 54.9566 108.4 55.5935 108.4C56.3807 108.4 56.593 108.232 56.593 107.683V105.931H45.4743V110.046H40.5562V105.931H29.7206V110.922H25.0856V91.9937H40.5562V89.1974H40.5651ZM29.7295 94.843V97.9136H40.5651V94.843H29.7295ZM40.5651 103.347V100.498H29.7295V103.347H40.5651ZM45.4831 94.843V97.9136H56.6018V94.843H45.4831ZM56.6018 103.347V100.498H45.4831V103.347H56.6018Z" fill="#3E3A39"/>
<path d="M137.599 126.115C140.235 126.115 140.669 125.514 140.952 121.071C142.022 121.62 144.021 122.116 145.445 122.39C144.879 127.982 143.305 129.354 138.104 129.354H125.844C119.068 129.354 117.361 128.425 117.361 124.744V120.85H106.95C104.526 126.39 98.4672 128.805 83.0673 130.009C82.7135 129.133 81.5017 127.593 80.6437 126.823C94.2568 126.053 99.4667 124.522 101.607 120.841H91.4086V103.232H134.751V120.841H122.491V124.682C122.491 125.947 123.057 126.106 126.339 126.106H137.599V126.115ZM112.859 100.993H83.9872V81.7908H112.293V84.4278H100.387V87.1179H110.294V95.1793H100.387V98.3649H112.859V101.002V100.993ZM88.6222 84.419V87.1091H96.0347V84.419H88.6222ZM105.659 89.631H88.6222V92.7016H105.659V89.631ZM88.6222 98.3561H96.0347V95.1705H88.6222V98.3561ZM96.4593 108.285H129.47V105.71H96.4593V108.285ZM96.4593 113.337H129.47V110.7H96.4593V113.337ZM96.4593 118.434H129.47V115.744H96.4593V118.434ZM120.988 85.9587C119.351 87.932 117.352 89.7991 114.787 91.4981C113.929 90.6752 112.293 89.5779 111.222 89.1974C115.574 86.5073 118.281 83.0031 119.705 79.9768L124.482 80.5254C124.057 81.4015 123.553 82.2775 122.987 83.1624H144.587V85.9587H120.988ZM116.07 92.8166H143.446V101.374H116.07V92.8166ZM141.014 88.1001V90.6752H119.908V88.1001H141.014ZM119.917 99.0728H124.269V95.0643H119.917V99.0728ZM127.33 99.0728H131.894V95.0643H127.33V99.0728ZM134.955 99.0728H139.519V95.0643H134.955V99.0728Z" fill="#3E3A39"/>
<path d="M197.837 81.0741C197.483 81.4015 197.191 81.7909 196.837 82.1183C203.542 87.1091 215.872 91.5513 226.991 93.5334C225.85 94.3033 224.426 95.728 223.639 96.7191C217.863 95.4537 211.733 93.5954 206.169 91.1796V92.8786H181.428V91.3389C176.006 93.7016 169.947 95.5599 163.959 96.9934C163.384 96.2235 161.889 94.6307 160.96 93.8697C173.866 91.2327 186.479 86.41 193.184 79.7733L197.819 81.0918L197.837 81.0741ZM169.823 95.5599H217.447V109.382H169.823V95.5599ZM173.954 111.966H214.024V129.796H208.681V128.151H179.164V129.965H173.963V111.975L173.954 111.966ZM174.387 106.586H191.211V98.4092H174.387V106.586ZM182.437 99.0109C184.294 100.931 186.072 103.453 186.718 105.214L182.658 106.364C182.092 104.612 180.447 101.975 178.669 99.9489L182.446 99.0198L182.437 99.0109ZM179.164 114.868V118.603H208.681V114.868H179.164ZM208.681 125.239V121.505H179.164V125.239H208.681ZM203.33 89.9054C199.906 88.2595 196.696 86.3923 193.989 84.419C191.282 86.4454 188.142 88.3126 184.719 89.9054H203.33ZM212.67 98.4092H195.705V106.586H212.67V98.4092ZM200.26 105.382C201.543 103.568 203.4 100.666 204.179 98.7986L208.672 99.8958C207.107 102.259 205.32 104.727 203.825 106.373L200.26 105.382Z" fill="#3E3A39"/>
<g clip-path="url(#clip0_36_2739)">
<path d="M158.009 17.5049V21.7024H175.509V17.5049H158.009Z" fill="#ED6B00"/>
<path d="M171.311 35H175.509V0H171.311V35Z" fill="#A0D2F2"/>
<path d="M158.009 13.3025V17.5L193.009 17.5V13.3025L158.009 13.3025Z" fill="#E5E647"/>
<path d="M175.514 35H179.711V0H175.514V35Z" fill="#5D912E"/>
<path d="M175.509 17.5V21.6975H193.009V17.5H175.509Z" fill="#ED6B00"/>
</g>
<defs>
<clipPath id="clip0_36_2739">
<rect width="35" height="35" fill="white" transform="translate(158.009)"/>
</clipPath>
</defs>
</svg>
