<svg width="193" height="133" viewBox="0 0 193 133" fill="none" xmlns="http://www.w3.org/2000/svg">
<g clip-path="url(#clip0_44_148)">
<path d="M30.0756 27.6366V53.2533H24.9706V47.6726C16.2481 48.4408 7.58714 49.262 1.13546 49.8095L0.572144 46.2509C2.56134 46.1449 4.83219 45.9771 7.31428 45.7564V27.6366H1.41711V24.2457H63.5574V27.6366H30.0756ZM14.2589 22.0558H9.22426V5.41064H56.2608V22.0558H51.015V8.47477H14.2589V22.0558ZM24.9706 27.6366H12.1993V31.1952H24.9706V27.6366ZM24.9706 34.2063H12.1993V37.8709H24.9706V34.2063ZM12.1993 45.4297C16.2393 45.1029 20.5697 44.7762 24.9706 44.3877V40.935H12.1993V45.4208V45.4297ZM47.8815 14.497H17.3835V11.7596H47.8903V14.497H47.8815ZM17.3835 17.8349H47.7495V20.5723H17.3835V17.8349ZM61.225 31.9016C59.0245 37.1557 55.3366 41.4825 50.7949 44.8734C54.7645 47.231 59.5174 48.9795 64.9129 50.0214C63.8479 50.7897 62.4308 52.2643 61.7883 53.2003C56.1816 51.9376 51.2878 49.9685 47.1774 47.3458C42.9173 49.8625 38.094 51.7787 33.1298 53.0944C32.4961 52.2202 31.211 50.6837 30.2252 49.9773C34.9078 48.8823 39.5199 47.1339 43.6303 44.7762C40.224 41.9858 37.5307 38.701 35.6119 34.9746L38.6661 34.2593H31.9944V31.0274H57.1058L58.0299 30.9214L61.225 31.9104V31.9016ZM40.0128 34.2593C41.6411 37.3234 44.1232 40.1138 47.1774 42.4715C50.302 40.1138 52.9953 37.3764 54.8349 34.2593H40.0128Z" fill="#3E3A39"/>
<path d="M91.7318 37.9239C90.033 41.8093 87.0493 46.0831 84.4263 48.8205C83.5726 48.326 81.8034 47.2841 80.7384 46.8514C83.5022 44.2818 85.9842 40.5554 87.4101 36.9967L91.7406 37.9239H91.7318ZM100.454 34.0916V53.0856H95.2789V34.0916H81.1609V30.5859H95.2789V24.8374H80.8088V21.3847H100.393C101.739 18.8681 103.368 15.2565 104.221 12.731L109.045 13.4993C107.769 16.1307 106.422 19.08 105.075 21.3847H114.088V24.8374H100.472V30.5859H113.314V34.0916H100.472H100.454ZM113.006 12.4131H81.9354V9.02228H95.8422C94.918 7.37984 93.7122 5.51664 92.7176 4.04198L97.8226 3C99.3101 4.8632 100.868 7.21206 101.863 9.02228H112.997V12.4131H113.006ZM89.2409 21.1728C88.8888 19.1507 87.7534 15.9717 86.5476 13.5611L90.7284 12.7928C92.1455 15.1505 93.3513 18.2146 93.633 20.2368L89.2321 21.164L89.2409 21.1728ZM107.267 36.67C109.538 39.3544 112.02 42.9131 113.226 45.2619L109.467 46.9044C108.332 44.5467 105.779 40.7761 103.649 38.1447L107.267 36.67ZM145 25.4467H137.263V53.0414H132.158V25.4467H122.441V27.3629C122.441 35.1954 121.517 45.9242 115.065 53.0414C114.211 52.2732 112.161 51.0193 111.025 50.5778C116.984 44.008 117.556 34.6479 117.556 27.3629V8.52778C125.504 7.53879 134.508 5.89635 139.622 4.25391L143.812 7.26505C137.994 8.96047 129.905 10.3292 122.459 11.2034V21.6055H145.018V25.4378L145 25.4467Z" fill="#3E3A39"/>
<path d="M12.9826 107.215C10.1484 105.679 4.26005 103.056 0 101.299L2.83416 98.341C7.02379 99.9304 12.9122 102.341 15.8872 103.869L12.9826 107.207V107.215ZM2.34126 129.282C6.09961 125.123 11.7063 117.953 15.7463 111.763L19.5751 114.447C15.8167 120.196 10.923 126.987 6.73334 132.02L2.33246 129.282H2.34126ZM6.88297 83.5149C11.0638 85.3251 16.8113 87.8947 19.7951 89.4842L16.6001 92.7161C13.7659 91.0736 8.08881 88.2832 3.82876 86.3141L6.88297 83.5237V83.5149ZM60.7233 127.64C60.7233 129.936 60.0807 131.146 57.9595 131.799C55.8295 132.453 52.2824 132.453 46.8957 132.453C46.7549 131.358 45.9715 129.715 45.2674 128.567C49.3074 128.735 53.0041 128.735 54.0603 128.673C55.1958 128.62 55.5478 128.399 55.5478 127.578V117.344C47.107 119.039 38.314 120.682 31.6423 121.891L29.8731 118.386C36.404 117.344 46.1212 115.701 55.5566 113.953V102.014H28.9578V113.344C28.9578 119.366 28.2448 127.472 24.064 133C23.2102 132.285 21.1594 131.031 20.024 130.589C23.6415 125.609 23.9936 118.766 23.9936 113.344V98.288H39.9511V82.7378H45.1266V98.288H60.7321V127.631L60.7233 127.64ZM29.2306 96.3806C28.1656 93.5903 25.1202 89.2634 22.1364 86.1463L26.5373 84.5568C29.6619 87.621 32.8481 91.78 33.9835 94.5704L29.2306 96.3806ZM33.1298 105.626C39.4406 106.553 47.3182 108.531 51.5078 110.174L49.4482 113.132C45.3378 111.383 37.4602 109.299 31.0702 108.257L33.1298 105.626ZM63.2053 85.8637C60.7937 89.4223 57.7395 93.4225 55.187 96.0981L50.6453 94.6234C53.1978 91.833 56.4632 87.4532 58.1619 84.2743L63.1965 85.8637H63.2053Z" fill="#3E3A39"/>
<path d="M80.8 128.408C83.5638 125.397 86.3363 120.744 88.0351 117.353L92.5768 118.889C90.658 122.227 88.1759 127.048 85.6234 130.166L80.8 128.417V128.408ZM110.884 113.732H91.2301V87.8418H107.689C108.754 86.0934 109.819 83.7887 110.383 82.1992L116.482 83.0204C115.488 84.7159 114.282 86.4731 113.146 87.8418H134.288V113.732H111.307C114.924 116.143 118.973 119.649 120.813 121.944L116.553 123.967C114.775 121.556 110.735 117.944 107.117 115.375L110.876 113.732H110.884ZM122.23 128.02C125.988 128.02 126.631 127.199 126.983 121.671C128.189 122.386 130.389 122.986 131.877 123.207C131.164 130.157 129.465 131.799 122.582 131.799H106.404C98.1747 131.799 96.0447 130.651 96.0447 126.324V117.397H101.291V126.263C101.291 127.737 102.074 128.011 106.677 128.011H122.212L122.23 128.02ZM96.3351 95.4447H129.042V91.0649H96.3351V95.4447ZM96.3351 102.95H129.042V98.5706H96.3351V102.95ZM96.3351 110.447H129.042V106.068H96.3351V110.447ZM135.996 116.47C139.332 119.755 142.808 124.302 144.085 127.313L139.191 129.062C137.985 126.051 134.579 121.397 131.313 118.006L135.996 116.47Z" fill="#3E3A39"/>
</g>
<g clip-path="url(#clip1_44_148)">
<path d="M158.009 17.5049V21.7024H175.509V17.5049H158.009Z" fill="#ED6B00"/>
<path d="M171.311 35H175.509V0H171.311V35Z" fill="#A0D2F2"/>
<path d="M158.009 13.3025V17.5L193.009 17.5V13.3025L158.009 13.3025Z" fill="#E5E647"/>
<path d="M175.514 35H179.711V0H175.514V35Z" fill="#5D912E"/>
<path d="M175.509 17.5V21.6975H193.009V17.5H175.509Z" fill="#ED6B00"/>
</g>
<defs>
<clipPath id="clip0_44_148">
<rect width="145" height="130" fill="white" transform="translate(0 3)"/>
</clipPath>
<clipPath id="clip1_44_148">
<rect width="35" height="35" fill="white" transform="translate(158.009)"/>
</clipPath>
</defs>
</svg>
