<svg width="193" height="130" viewBox="0 0 193 130" fill="none" xmlns="http://www.w3.org/2000/svg">
<path d="M26.4723 26.4094C21.3083 34.6518 13.8035 43.5974 7.50481 49.4009C6.02172 48.3684 2.68922 46.7395 0.848755 45.8761C7.50481 40.6689 14.6523 32.3197 19.1105 24.6203L26.4723 26.4094ZM64.6218 13.8857V19.0928H1.8494V13.8857H64.6218ZM32.771 0.106812C35.1029 3.63163 38.1495 8.24238 39.6326 11.1174L32.3422 13.1825C31.1361 10.3074 28.2413 5.48305 25.972 1.90483L32.771 0.106812ZM45.7258 24.1842C52.0245 31.0736 60.5835 40.4553 64.7648 46.152L57.8318 49.027C54.0794 43.3304 45.7347 33.6816 39.436 26.5163L45.7347 24.1842H45.7258Z" fill="#3E3A39"/>
<path d="M118.326 20.1787C123.142 31.4563 132.058 40.6244 145.433 44.9059C143.807 45.9918 141.609 48.1013 140.546 49.6234C127.314 44.9059 118.746 36.1205 113.233 24.6203C109.624 34.4382 101.985 43.8199 85.9212 49.6234C84.858 48.2705 82.7406 46.4813 80.9001 45.3954C97.7413 39.7521 104.612 29.9966 107.435 20.1787H82.3118V14.9716H108.641C109.49 9.55084 109.418 4.34372 109.49 0H116.637C116.566 4.38822 116.494 9.59534 115.646 14.9716H144.164V20.1787H118.335H118.326Z" fill="#3E3A39"/>
<path d="M14.2324 95.7843V98.33C14.2324 107.605 13.1692 121.054 5.87878 129.893C4.60117 129.083 1.70645 127.775 0 127.294C7.0045 118.945 7.63883 106.955 7.63883 98.33V82.5485H60.789V95.7843H14.2324ZM14.2324 86.8922V91.5029H54.2134V86.8922H14.2324ZM61.6467 116.39C58.5287 118.179 54.7137 119.969 51.3812 121.268C55.348 123.333 60.0832 124.793 65.6761 125.665C64.2645 126.644 62.558 128.487 61.7093 129.84C49.2548 127.454 40.9013 122.034 36.0946 113.898H27.5355V123.823L41.2676 121.597C40.9817 122.897 40.7762 124.802 40.8477 125.825C24.1494 128.754 21.8801 129.243 20.4685 129.947V130C20.0397 128.754 18.8425 126.742 17.8507 125.825C19.2624 125.229 21.4602 123.823 21.4602 121.321V113.889H14.4557V109.661H26.0614V104.837H16.2247V100.555H26.0614V95.8377H32.0742V100.555H44.6715V95.8377H50.8273V100.555H61.9416V104.837H50.8273V109.661H64.8363V113.889H56.9115L61.6557 116.381L61.6467 116.39ZM32.0652 109.67H44.6626V104.846H32.0652V109.67ZM42.4022 113.898C43.6798 115.687 45.3059 117.316 47.2178 118.722C50.4699 117.316 54.1508 115.411 56.5631 113.898H42.4112H42.4022Z" fill="#3E3A39"/>
<path d="M131.772 122.897C135.873 122.897 141.323 122.683 144.012 122.247C144.227 123.547 144.646 125.879 145.004 127.018C142.806 127.454 137.079 127.561 131.558 127.561H101.905C90.3705 127.561 84.9921 124.793 84.9921 116.061V86.7765H82.1599V82.3259H141.537V86.7765H91.4337V116.444C91.4337 121.054 93.8371 122.897 101.27 122.897H131.772ZM95.9634 105.273H114.717V119.426H95.9634V105.273ZM101.342 115.847H109.052V108.851H101.342V115.847ZM130.218 102.184H103.468V89.874H130.218V102.184ZM123.704 93.292H109.553V98.7128H123.704V93.292ZM138.214 119.426H118.898V105.273H138.214V119.426ZM132.478 108.851H124.339V115.847H132.478V108.851Z" fill="#3E3A39"/>
<g clip-path="url(#clip0_35_2345)">
<path d="M158.009 17.5049V21.7024H175.509V17.5049H158.009Z" fill="#ED6B00"/>
<path d="M171.311 35H175.509V0H171.311V35Z" fill="#A0D2F2"/>
<path d="M158.009 13.3025V17.5L193.009 17.5V13.3025L158.009 13.3025Z" fill="#E5E647"/>
<path d="M175.514 35H179.711V0H175.514V35Z" fill="#5D912E"/>
<path d="M175.509 17.5V21.6975H193.009V17.5H175.509Z" fill="#ED6B00"/>
</g>
<defs>
<clipPath id="clip0_35_2345">
<rect width="35" height="35" fill="white" transform="translate(158.009)"/>
</clipPath>
</defs>
</svg>
