<svg width="192" height="131" viewBox="0 0 192 131" fill="none" xmlns="http://www.w3.org/2000/svg">
<g clip-path="url(#clip0_35_2345)">
<path d="M157.009 17.5049V21.7024H174.509V17.5049H157.009Z" fill="#ED6B00"/>
<path d="M170.311 35H174.509V0H170.311V35Z" fill="#A0D2F2"/>
<path d="M157.009 13.3025V17.5L192.009 17.5V13.3025L157.009 13.3025Z" fill="#E5E647"/>
<path d="M174.514 35H178.711V0H174.514V35Z" fill="#5D912E"/>
<path d="M174.509 17.5V21.6975H192.009V17.5H174.509Z" fill="#ED6B00"/>
</g>
<g clip-path="url(#clip1_35_2345)">
<path d="M13.2418 14.1221V17.432C13.2418 26.9638 12.1496 40.5833 4.72987 49.7263C3.70988 49.057 1.30884 47.9357 0 47.592C7.27534 38.7927 7.85303 26.4031 7.85303 17.432V1.10852H61.9036V14.113H13.2418V14.1221ZM13.2418 4.75304V10.4685H56.5328V4.75304H13.2418ZM62.4181 35.311C58.997 37.3277 54.565 39.4619 50.8461 40.9722C55.2871 43.4953 60.6669 45.2317 67.0667 46.2445C65.8301 47.0856 64.449 48.5958 63.7179 49.7172C50.8371 47.1941 41.603 41.4786 36.6565 32.8421H26.6191V44.2821L42.2619 41.5871C42.0453 42.6 41.9009 44.2188 42.0453 45.0598C23.857 48.4783 21.6004 48.9847 20.1471 49.7172C19.9305 48.7043 18.8382 47.0223 18.0349 46.1812C19.3437 45.6205 21.5281 44.3906 21.5281 41.9217V32.8421H13.6751V29.1976H26.4746V23.3103H15.6339V19.72H26.4746V14.6737H31.5656V19.72H46.044V14.6737H51.135V19.72H63.3568V23.3103H51.135V29.1976H66.2633V32.8421H41.6752C43.2007 35.0306 45.0963 37.0473 47.4973 38.7837C51.135 37.1016 55.6482 34.8588 58.3381 33.1767L62.409 35.311H62.4181ZM31.5746 29.1976H46.0531V23.3103H31.5746V29.1976Z" fill="#3E3A39"/>
<path d="M135.686 43.1607C139.612 43.1607 145.146 42.9346 147.763 42.5457C147.98 43.7214 148.341 45.6296 148.639 46.5249C146.743 46.977 141.219 47.0313 135.614 47.0313H103.606C92.4762 47.0313 87.0964 44.3363 87.0964 36.152V4.75304H84.1177V1H145.082V4.75304H92.413V36.4323C92.413 41.1983 95.2473 43.1607 103.037 43.1607H135.704H135.686ZM98.1448 24.6035H117.064V38.9555H98.1448V24.6035ZM102.658 35.9259H112.334V27.624H102.658V35.9259ZM132.987 20.7871H105.998V8.39757H132.987V20.7871ZM127.679 11.3729H111.089V17.7666H127.679V11.3729ZM141.499 38.9555H121.93V24.6035H141.499V38.9555ZM136.706 27.633H126.596V35.935H136.706V27.633Z" fill="#3E3A39"/>
<path d="M22.1148 113.23C21.8982 112.28 21.6094 111.213 21.1671 110.037C5.88524 112.28 3.78207 112.669 2.40102 113.347C2.18438 112.506 1.38103 110.715 0.803334 109.703C2.2566 109.422 3.93552 107.966 5.96648 105.95C7.13089 104.937 9.45972 102.477 12.0774 99.2754C4.441 100.008 2.9065 100.288 1.96775 100.677C1.6789 99.8361 0.875546 98.0455 0.297852 96.9784C1.46227 96.7523 2.69889 95.5766 4.00773 93.8946C5.46099 92.2667 10.0464 85.7645 12.5919 79.7686L17.4662 81.2789C14.7041 86.6055 10.9942 92.1039 7.28434 96.3634L14.8485 95.8027C16.6628 93.3881 18.5584 90.8107 20.0117 88.2333L24.5249 89.9697C20.0117 96.5895 14.4875 103.2 8.7376 108.473L19.9395 107.017C19.2805 105.389 18.5584 103.707 17.7551 102.251L21.6094 101.41C23.5049 104.882 25.4637 109.431 26.1948 112.171L22.1239 113.239L22.1148 113.23ZM8.72858 116.196C7.7808 120.962 6.25532 126.234 4.51321 129.652C3.70986 129.264 1.6789 128.757 0.586699 128.531C2.55447 125.113 3.86331 120.121 4.65764 115.635L8.72858 116.196ZM15.1283 115.527C16.0039 119.343 16.8705 124.163 17.1683 127.41L13.0974 128.079C12.953 124.887 12.1496 119.949 11.274 116.196L15.1283 115.527ZM21.6094 114.351C22.9182 117.435 24.3715 121.36 24.8138 123.937L21.1039 124.832C20.5262 122.201 19.1361 118.212 17.9717 115.129L21.6094 114.342V114.351ZM24.2992 126.686C26.4114 123.657 28.298 118.728 29.2458 115.138L33.1001 116.205C32.0078 119.904 30.4102 125.004 28.2258 128.151L24.2992 126.695V126.686ZM63.3658 111.095H29.318V85.1405H39.2832C40.231 83.4041 41.3232 81.1071 41.9009 79.4792L47.2806 80.3203C46.2607 82.0024 45.1684 83.7387 44.1575 85.1405H63.3658V111.095ZM58.4193 88.6132H34.12V107.623H58.4193V88.6132ZM51.9473 126.514C54.2039 126.514 54.6372 125.845 54.9261 120.681C55.9461 121.296 57.6882 121.748 58.997 122.029C58.4915 128.142 57.1827 129.652 52.3806 129.652H41.9009C36.0066 129.652 34.4811 128.703 34.4811 125.058V115.138H39.1388V125.004C39.1388 126.297 39.572 126.514 42.3432 126.514H51.9473ZM53.8339 105.769C52.7417 104.421 51.144 102.911 49.3928 101.229C46.7752 103.363 43.7874 105.262 40.2942 107.008C39.7887 106.338 38.7687 105.497 37.8931 105.045C41.4586 103.363 44.5095 101.346 47.064 99.3297C46.1162 98.4344 45.024 97.6476 43.9318 96.8066C42.1175 98.2083 40.0053 99.61 37.6043 100.84C37.0988 100.279 35.9344 99.3839 35.131 98.986C37.5321 97.8104 39.6442 96.3544 41.4586 94.9526C39.9331 93.777 38.4798 92.7099 36.9453 91.8146L39.9241 90.3043C41.2329 91.0911 42.5417 91.9864 43.7784 92.8274C45.015 91.6518 46.035 90.4128 46.7571 89.3547L50.467 89.8612C49.3748 91.4347 47.9937 93.0535 46.3238 94.6813C47.416 95.4681 48.5082 96.3092 49.6004 97.1502C51.1981 95.5224 52.6604 93.8946 53.5992 92.4386L57.3813 92.8907C55.928 94.9617 54.1047 97.0417 51.8571 99.1126C53.9693 100.849 55.7836 102.585 56.948 103.987L53.8158 105.778L53.8339 105.769ZM49.7629 122.255C48.3097 120.012 45.4031 116.142 42.9209 113.284L46.4863 111.991C48.9596 114.686 52.0918 118.439 53.4728 120.573L49.7629 122.255ZM60.8203 114.857C63.1492 118.393 65.8391 122.879 67.2201 125.737L63.1492 127.193C61.9126 124.217 59.1505 119.569 56.966 116.087L60.8203 114.857Z" fill="#3E3A39"/>
<path d="M140.994 127.021C143.683 127.021 144.126 126.406 144.415 121.866C145.507 122.427 147.547 122.933 149 123.214C148.422 128.929 146.816 130.331 141.508 130.331H128.997C122.083 130.331 120.341 129.381 120.341 125.619V121.64H109.717C107.244 127.301 101.06 129.77 85.3453 131C84.9843 130.105 83.7476 128.531 82.8721 127.744C96.7638 126.958 102.08 125.393 104.265 121.631H93.8573V103.634H138.087V121.631H125.576V125.556C125.576 126.849 126.154 127.012 129.503 127.012H140.994V127.021ZM115.746 101.346H86.2841V81.7221H115.169V84.417H103.019V87.1663H113.129V95.4049H103.019V98.6605H115.746V101.355V101.346ZM91.014 84.408V87.1572H98.5781V84.408H91.014ZM108.399 89.7346H91.014V92.8727H108.399V89.7346ZM91.014 98.6515H98.5781V95.3958H91.014V98.6515ZM99.0204 108.798H132.707V106.167H99.0204V108.798ZM99.0204 113.953H132.707V111.258H99.0204V113.953ZM99.0204 119.171H132.707V116.422H99.0204V119.171ZM124.042 85.9816C122.372 87.9983 120.332 89.9064 117.714 91.6428C116.839 90.8017 115.169 89.6803 114.077 89.2915C118.518 86.5422 121.28 82.961 122.733 79.8682L127.607 80.4289C127.174 81.3242 126.659 82.2195 126.082 83.1238H148.124V85.9816H124.042ZM119.023 92.9903H146.96V101.735H119.023V92.9903ZM144.487 88.1701V90.8017H122.95V88.1701H144.487ZM122.95 99.384H127.391V95.2873H122.95V99.384ZM130.514 99.384H135.171V95.2873H130.514V99.384ZM138.304 99.384H142.961V95.2873H138.304V99.384Z" fill="#3E3A39"/>
</g>
<defs>
<clipPath id="clip0_35_2345">
<rect width="35" height="35" fill="white" transform="translate(157.009)"/>
</clipPath>
<clipPath id="clip1_35_2345">
<rect width="149" height="130" fill="white" transform="translate(0 1)"/>
</clipPath>
</defs>
</svg>
