<svg width="291" height="40" viewBox="0 0 291 40" fill="none" xmlns="http://www.w3.org/2000/svg">
<g clip-path="url(#clip0_58_38)">
<path d="M16.8706 4.93097V39.6511H13.2704V31.6511C8.77019 32.2161 4.4444 32.8159 0.844227 33.339L0 30.4445C1.06749 30.312 2.1908 30.1864 3.43272 30.0539V4.93097H0.62096V1.98763H19.0684V4.93097H16.8776H16.8706ZM13.2704 4.93097H6.91429V10.985H13.2704V4.93097ZM13.2704 13.7052H6.91429V19.8917H13.2704V13.7052ZM13.2704 28.8821V22.57H6.91429V29.6215L13.2704 28.8891V28.8821ZM31.9411 13.4052C33.0644 15.6999 34.2993 18.727 34.8087 20.4567L32.0527 21.1472C31.8853 20.5404 31.5992 19.7662 31.3201 18.9013C21.5382 19.808 20.0172 20.0243 19.2288 20.4148C19.1172 19.7662 18.6079 18.2945 18.2172 17.4715C19.2288 17.339 20.2405 16.5648 21.4755 15.393C22.208 14.7862 23.7221 13.3634 25.3547 11.5011C21.2522 11.7592 20.2963 11.9336 19.6754 12.1916C19.5637 11.5011 19.0544 10.0295 18.6637 9.20647C19.4521 9.12277 20.0661 8.55782 20.9103 7.69295C21.7545 6.86994 24.5663 3.71736 26.0245 0.474121L29.227 1.59705C27.4269 4.40786 25.1803 7.30237 22.9825 9.38083L27.3711 9.24831C28.3269 8.03471 29.3386 6.73742 30.1828 5.48894L33.1621 6.70254C30.127 10.5526 26.6385 14.4026 23.15 17.339L30.5177 16.774C30.127 15.7766 29.6735 14.7862 29.2828 13.9214L31.9271 13.4052H31.9411ZM29.52 21.4052H33.1202V28.0243C33.1202 32.2161 31.4317 36.9728 23.3941 39.9998C23.0034 39.3512 21.7615 38.2283 21.0917 37.754C26.3803 35.8917 28.4037 33.4297 29.1363 30.9188H21.322V21.4052H24.7547V28.1498H29.534V21.4052H29.52ZM48.2465 12.8403C49.5931 15.135 51.1699 18.2457 51.9025 20.0591L49.2582 20.8821C48.9791 20.2335 48.6372 19.4105 48.2465 18.5456C38.346 19.5848 36.8878 19.8011 35.9878 20.1916C35.8203 19.543 35.4784 18.1132 35.0319 17.339C35.932 17.2065 36.9436 16.4741 38.0669 15.2605C38.6879 14.6537 40.1461 13.1821 41.6671 11.2361C37.2227 11.536 36.1552 11.7104 35.6529 11.9266C35.4854 11.3198 35.0319 9.89696 34.5854 9.15764C35.3738 9.02512 36.1064 8.50899 36.832 7.72783C37.6204 6.90481 40.3205 3.75224 41.8346 0.63454L44.758 1.71562C43.0695 4.44273 41.0462 7.16287 38.967 9.15067L43.4114 8.9763C44.1998 7.85337 45.044 6.63977 45.7138 5.47499L48.693 6.68859C46.1045 10.448 43.1253 14.2143 40.0903 17.067L47.2348 16.4602C46.7883 15.3791 46.2231 14.3817 45.7138 13.4331L48.2465 12.8263V12.8403ZM45.3231 21.747H48.8116V32.516H45.3231V30.8699H40.5438V39.7348H36.8878V21.3564H40.5438V28.0591H45.3231V21.747Z" fill="#ECEDE7"/>
<path d="M80.1876 26.2877C80.0201 25.5554 79.7968 24.7323 79.455 23.735C67.8172 25.2066 66.1846 25.4647 65.1171 25.8971C64.8938 25.2903 64.2728 23.735 63.8263 22.8701C65.0054 22.7376 66.3032 21.6565 67.9847 20.1011C68.8847 19.32 70.7406 17.5065 72.8198 15.1282C66.8055 15.6931 65.5636 15.9093 64.7752 16.2092C64.5519 15.5606 63.931 14.1308 63.4844 13.3147C64.3845 13.1404 65.452 12.2755 66.6311 10.9782C67.866 9.72276 71.9197 4.79163 74.3338 0.0836966L78.1572 1.33915C75.5129 5.44725 72.3104 9.63906 69.0452 12.8823L75.1152 12.5336C76.5804 10.6295 78.1503 8.64167 79.3294 6.69573L82.9296 8.34176C79.2736 13.2729 74.7734 18.3296 70.1615 22.2633L78.5968 21.3147C78.0875 19.8849 77.4177 18.4621 76.7967 17.1229L79.9434 16.558C81.4086 19.4106 82.9226 23.2188 83.4877 25.4647L80.1736 26.2877H80.1876ZM69.6731 28.2337C69.108 31.993 68.0405 36.0593 66.8613 38.7446C66.1288 38.3958 64.3845 37.9634 63.4844 37.7472C64.7752 35.0689 65.6194 31.2607 66.1846 27.8012L69.6731 28.2337ZM75.5827 27.6757C76.3153 30.619 76.9921 34.4202 77.1595 36.973L73.7826 37.4891C73.671 34.9364 73.05 31.0445 72.3802 28.1081L75.5827 27.6757ZM80.976 26.6783C82.2667 29.231 83.6203 32.4743 84.1785 34.6783L81.0318 35.5013C80.5225 33.2973 79.1759 29.9215 78.0526 27.3688L80.976 26.6783ZM112.582 5.66347C110.447 9.85528 107.126 13.531 103.247 16.6486C106.791 18.9852 111.005 21.0567 115.785 22.4446C114.94 23.0096 113.705 24.3069 113.14 25.1229C112.75 24.9904 112.296 24.8649 111.905 24.6905V39.3514H107.859V37.9704H92.2788V39.442H88.3438V24.9137C87.667 25.1718 87.053 25.388 86.4321 25.6042C85.9227 24.823 84.7994 23.6164 83.9552 23.0096C88.6229 21.6704 93.5138 19.4176 97.7349 16.565C95.3697 14.5772 93.4022 12.5405 91.8323 10.5527C90.1439 12.15 88.2321 13.5798 86.3762 14.7446C85.6995 14.1796 84.1854 13.0567 83.2296 12.5405C88.4066 9.59721 92.9556 4.97297 95.5441 0L99.4792 0.823017C98.7466 2.16216 97.9024 3.50131 96.9465 4.75676H109.149L109.882 4.58239L112.582 5.66347ZM109.882 23.9093C106.393 22.4795 103.247 20.6661 100.491 18.7201C97.4558 20.7498 94.1347 22.5283 90.8206 23.9093H109.882ZM107.859 35.1107V26.8108H92.2788V35.1107H107.859ZM94.1906 8.17437C95.7116 10.2947 97.7907 12.4987 100.435 14.5702C103.135 12.4499 105.493 10.0296 107.126 7.4769H94.8115L94.1906 8.16739V8.17437Z" fill="#ECEDE7"/>
<path d="M176.82 18.7271C174.287 22.4027 170.973 25.8203 167.038 28.8892C169.173 33.4298 171.706 36.1987 174.518 36.1987C176.039 36.1987 176.708 33.9947 177.05 28.4568C177.95 29.1473 179.409 29.8866 180.595 30.1865C179.806 37.3217 178.348 39.4001 174.127 39.4001C169.683 39.4001 166.313 36.3731 163.724 31.3164C160.068 33.8273 156.077 35.9895 151.856 37.6704C151.235 36.8892 150.056 35.8081 148.989 35.1176C153.712 33.3461 158.324 30.9677 162.315 28.115C160.968 24.5231 159.901 20.2476 159.168 15.5745H145.954V22.4934C149.268 21.9285 152.7 21.3705 156.021 20.8055L156.301 23.7C152.868 24.3487 149.386 24.9555 145.954 25.5623V35.1595C145.954 37.238 145.277 38.1865 143.532 38.7027C141.788 39.2188 138.753 39.3095 134.197 39.3095C133.974 38.4446 133.241 36.9729 132.62 36.0662C136.22 36.1987 139.535 36.1499 140.49 36.1081C141.502 36.1081 141.837 35.8918 141.837 35.1107V26.3365C137.616 27.027 133.569 27.7663 130.199 28.3243L129.02 25.081C132.397 24.6486 136.946 23.9163 141.844 23.1351V15.5675H129.809V12.4986H141.844V5.62157C138.355 6.1377 134.818 6.57013 131.497 6.91887C131.274 6.1377 130.709 5.01477 130.15 4.24058C138.021 3.33386 147.077 1.8622 152.358 0.348684L155.338 2.98513C152.638 3.71747 149.379 4.41494 145.947 4.97292V12.4986H158.826C158.324 8.5649 158.094 4.41494 158.038 0.174316H162.308C162.308 4.49864 162.531 8.6486 162.985 12.4986H179.52V15.5675H163.438C164.003 19.2432 164.785 22.5701 165.741 25.4298C168.72 22.9677 171.197 20.3243 173.108 17.5623L176.82 18.7271ZM174.741 9.98774C173.052 7.9581 169.229 4.8404 165.971 2.63639L169.173 0.94851C172.376 3.06882 176.318 6.09585 178.118 8.12549L174.741 9.98774Z" fill="#ECEDE7"/>
<path d="M207.136 0.86487C205.901 3.71753 204.435 6.57019 202.747 9.2973V39.2607H198.756V15.0514C197.068 17.2136 195.323 19.1596 193.467 20.8474C193.077 20.0663 191.946 18.3854 191.277 17.6042C196.112 13.2799 200.556 6.70968 203.256 0.0488281L207.136 0.871845V0.86487ZM222.994 17.9041H211.859V39.177H207.98V2.29469H222.994V17.9041ZM211.859 4.84046V8.7742H219.673V4.84046H211.859ZM219.673 15.3932V11.2014H211.859V15.3932H219.673ZM242 35.0689C242 37.1474 241.379 38.1378 239.523 38.6609C237.611 39.177 234.353 39.2258 229.064 39.2258C228.841 38.4028 228.164 36.98 227.655 36.1569C231.646 36.2406 235.525 36.2406 236.6 36.1988C237.667 36.1569 238.065 35.8989 238.065 35.034V17.9111H226.371V2.29469H242.007V35.0689H242ZM229.797 4.84046V8.7742H238.065V4.84046H229.797ZM238.065 15.3932V11.2014H229.797V15.3932H238.065Z" fill="#ECEDE7"/>
</g>
<g clip-path="url(#clip1_58_38)">
<path d="M256.009 18.5047V22.7021H273.509V18.5047H256.009Z" fill="#ED6B00"/>
<path d="M269.311 36H273.509V1H269.311V36Z" fill="#A0D2F2"/>
<path d="M256.009 14.3025V18.5L291.009 18.5V14.3025L256.009 14.3025Z" fill="#E5E647"/>
<path d="M273.514 36H277.711V1H273.514V36Z" fill="#5D912E"/>
<path d="M273.509 18.4998V22.6973H291.009V18.4998H273.509Z" fill="#ED6B00"/>
</g>
<defs>
<clipPath id="clip0_58_38">
<rect width="242" height="40" fill="white"/>
</clipPath>
<clipPath id="clip1_58_38">
<rect width="35" height="35" fill="white" transform="translate(256.009 1)"/>
</clipPath>
</defs>
</svg>
