<svg width="291" height="40" viewBox="0 0 291 40" fill="none" xmlns="http://www.w3.org/2000/svg">
<g clip-path="url(#clip0_45_1826)">
<path d="M44.3355 17.1215C42.1324 23.2646 38.2244 28.0159 33.1938 31.5865C38.2805 34.2011 44.4478 35.9864 51.7447 37.0337C50.7835 37.6873 49.5977 39.0368 49.0855 39.9084C41.4519 38.7346 35.1724 36.6401 29.9733 33.674C24.9427 36.5909 19.1754 38.594 12.952 39.9506C12.4398 39.1212 11.4785 37.856 10.5805 37.2516C16.4039 36.1199 21.8906 34.2433 26.6406 31.5865C22.6273 28.7961 19.3999 25.2677 16.9723 21.2192C14.4815 27.6223 10.356 34.1168 3.62739 38.5589C2.77843 37.7295 1.31204 36.9493 0.00701904 36.3378C10.1876 30.0613 14.1447 18.9068 15.7304 10.5427H1.86632V7.40794H16.2285C16.7337 3.96391 16.853 1.30708 16.853 0.133301H21.2101C21.0978 1.4828 20.9855 4.09745 20.4734 7.40794H50.3274V10.5427H19.9612C19.6244 12.328 19.2245 14.289 18.607 16.2921H40.7713L41.4519 16.1164L44.3355 17.1215ZM19.9612 19.3918C22.2204 23.3981 25.504 26.8421 29.7979 29.6325C33.6428 26.8843 36.8071 23.5316 38.7927 19.3918H19.9612Z" fill="#ECEDE7"/>
<path d="M86.2996 28.5009L86.6925 31.467C79.2272 32.95 71.3691 34.4752 65.4895 35.6069L64.4721 32.4229C67.7487 31.8536 72.0496 31.1577 76.6874 30.2862C78.1608 25.6684 79.6272 18.0423 80.3639 12.7708L84.321 13.3401C83.1914 18.4359 81.6619 25.0639 80.1955 29.6395L86.3066 28.5079L86.2996 28.5009ZM65.1457 8.2795H86.9731V11.2878H65.1457V8.2795ZM70.7446 13.2909C72.0426 18.2602 73.2915 24.5367 73.6283 28.8031L70.064 29.3232C69.8395 25.0498 68.6538 18.6889 67.3488 13.7689L70.7446 13.2909ZM75.4946 7.84372C74.814 6.05845 73.2354 3.26807 71.762 1.22274L75.2701 0.39336C76.968 2.39652 78.6028 5.05335 79.3395 6.84565L75.4946 7.85075V7.84372ZM101.448 12.2436V20.8256H113.326V39.7397H109.088V37.863H92.1231V39.9084H88.0536V20.8256H97.2168V0.133301H101.455V9.15105H115.705V12.2436H101.455H101.448ZM109.088 23.8761H92.1231V34.8126H109.088V23.8761Z" fill="#ECEDE7"/>
<path d="M142.17 21.4374C141.433 25.008 140.36 28.1919 138.949 30.8488C142.57 35.7266 149.747 36.4295 160.44 36.4295C166.376 36.4295 174.578 36.2538 180.289 35.8602C179.665 36.556 179.103 37.9969 178.935 38.8685C173.617 39.1285 166.551 39.2199 160.384 39.2199C148.905 39.2199 141.777 38.3483 137.371 33.4213C135.448 36.2538 133.014 38.4327 130.242 40.0001C129.73 39.3464 128.32 38.2148 127.471 37.779C132.558 35.08 136.234 30.2865 137.988 23.5741H132.501C131.091 23.5741 129.618 23.8342 129.225 24.1856V24.1434C128.944 23.4054 128.095 21.8802 127.639 21.2266C128.488 21.0508 129.393 20.7486 130.298 19.9614C131.54 18.9563 134.712 15.5193 137.027 12.8555H128.376V10.1986H139.405L140.254 9.93856L143.026 10.9437C140.823 13.4248 136.69 18.0004 133.638 20.9243H139.574L140.311 20.84L142.177 21.4515L142.17 21.4374ZM137.02 8.58204C135.666 6.75459 132.719 3.70416 130.404 1.52528L133.624 0.175781C136.059 2.31249 138.886 5.10286 140.296 6.88813L137.02 8.58906V8.58204ZM157.942 6.75459H142.731V4.00639H157.942V0.175781H162.012V4.01342H178.072V6.76162H162.012V9.98776H175.132V24.0169H162.012V27.2009H178.865V29.9491H162.012V35.0941H157.942V29.9491H142.731V27.2009H157.942V24.0169H145.446V9.98074H157.942V6.75459ZM149.291 15.8145H157.942V12.4126H149.291V15.8145ZM157.942 21.571V18.1269H149.291V21.571H157.942ZM162.019 12.4197V15.8215H171.07V12.4197H162.019ZM171.063 18.1269H162.012V21.571H171.063V18.1269Z" fill="#ECEDE7"/>
<path d="M209.35 16.5175C210.88 19.3922 212.458 23.2299 213.083 25.4931L209.687 26.4068C209.519 25.6688 209.294 24.7972 208.95 23.8765C196.174 25.3174 194.42 25.6196 193.283 26.0975C193.115 25.4439 192.49 23.9187 191.985 23.0893C193.171 22.9136 194.532 21.8241 196.223 20.2567C197.128 19.4695 198.994 17.6421 201.141 15.2875C195.037 15.8076 193.732 16.0255 192.939 16.2926C192.771 15.6811 192.09 14.198 191.641 13.4179C192.659 13.2422 193.62 12.3284 194.862 11.0633C196.047 9.71378 200.18 4.74453 202.608 -0.00683594L206.452 1.25832C203.849 5.35602 200.629 9.53806 197.402 12.8907L203.625 12.4549C205.098 10.6697 206.565 8.75085 207.807 6.83203L211.427 8.49079C207.694 13.46 203.169 18.3801 198.531 22.3021L208.031 21.3462C207.463 19.9545 206.789 18.5136 206.165 17.2485L209.329 16.5105L209.35 16.5175ZM197.928 28.4521C197.247 32.2898 196.174 36.5983 195.044 39.2622C194.251 39.0021 192.553 38.5663 191.648 38.3485C193.002 35.6003 193.851 31.6361 194.42 27.9812L197.928 28.4592V28.4521ZM203.863 27.8477C204.656 30.9824 205.337 34.9958 205.561 37.6948L202.229 38.2149C202.06 35.5159 201.38 31.4604 200.755 28.3256L203.863 27.8477ZM209.406 26.8004C210.76 29.4994 212.178 32.9434 212.795 35.2067L209.631 36.0782C209.063 33.7658 207.708 30.1952 206.523 27.4962L209.406 26.8004ZM229.767 8.97577V15.8146H241.414V18.8229H214.781V15.8146H225.523V8.97577H213.139V5.92534H225.523V0.133737H229.76V5.93237H242.993V8.9828H229.76L229.767 8.97577ZM215.966 23.3142H239.829V39.7401H235.759V38.0814H219.924V39.9088H215.966V23.3072V23.3142ZM219.924 26.2733V35.1223H235.759V26.2733H219.924Z" fill="#ECEDE7"/>
</g>
<g clip-path="url(#clip1_45_1826)">
<path d="M256.009 19.5047V23.7021H273.509V19.5047H256.009Z" fill="#ED6B00"/>
<path d="M269.311 37H273.509V2H269.311V37Z" fill="#A0D2F2"/>
<path d="M256.009 15.3025V19.5L291.009 19.5V15.3025L256.009 15.3025Z" fill="#E5E647"/>
<path d="M273.514 37H277.711V2H273.514V37Z" fill="#5D912E"/>
<path d="M273.509 19.4998V23.6973H291.009V19.4998H273.509Z" fill="#ED6B00"/>
</g>
<defs>
<clipPath id="clip0_45_1826">
<rect width="243" height="40" fill="white"/>
</clipPath>
<clipPath id="clip1_45_1826">
<rect width="35" height="35" fill="white" transform="translate(256.009 2)"/>
</clipPath>
</defs>
</svg>
