<svg width="80" height="80" viewBox="0 0 80 80" fill="none" xmlns="http://www.w3.org/2000/svg">
<circle cx="40" cy="40" r="40" fill="#3E3A39"/>
<path d="M39.97 48.45V14.5" stroke="white" stroke-width="3" stroke-linecap="round" stroke-linejoin="round"/>
<path d="M61.45 38.6837C49.59 38.6837 39.98 14.5 39.98 14.5" stroke="white" stroke-width="3" stroke-linecap="round" stroke-linejoin="round"/>
<path d="M18.5 38.6837C30.36 38.6837 39.97 14.5 39.97 14.5" stroke="white" stroke-width="3" stroke-linecap="round" stroke-linejoin="round"/>
<path d="M28.16 58.5637H34.863V60.0602H32.3221V68.1818H30.6853V60.0602H28.16V58.5637Z" fill="white"/>
<path d="M35.1826 61.3852C35.432 60.7773 35.7828 60.255 36.2348 59.8108C36.6869 59.3665 37.2169 59.0236 37.8249 58.7741C38.4328 58.5247 39.0875 58.4 39.7968 58.4C40.5061 58.4 41.1842 58.5247 41.7921 58.7741C42.4001 59.0236 42.9223 59.3665 43.3821 59.8108C43.8342 60.255 44.185 60.7773 44.4344 61.3852C44.6838 61.9932 44.8085 62.6557 44.8085 63.3805C44.8085 64.1054 44.6838 64.7601 44.4344 65.3759C44.185 65.9916 43.842 66.5216 43.3899 66.9659C42.9379 67.4179 42.4157 67.7687 41.7999 68.0181C41.192 68.2675 40.5217 68.4 39.8046 68.4C39.0875 68.4 38.425 68.2753 37.8171 68.0181C37.2013 67.7687 36.6713 67.4179 36.227 66.9659C35.7828 66.5138 35.4398 65.9838 35.1904 65.3759C34.941 64.7679 34.8163 64.0976 34.8163 63.3805C34.8163 62.6635 34.941 61.9932 35.1904 61.3852H35.1826ZM36.9441 65.142C37.2247 65.6565 37.6066 66.0618 38.1055 66.3579C38.5965 66.6541 39.1655 66.7944 39.7968 66.7944C40.4281 66.7944 41.0049 66.6463 41.4959 66.3579C41.987 66.0695 42.3689 65.6565 42.6495 65.142C42.9301 64.6276 43.0704 64.0353 43.0704 63.3805C43.0704 62.7258 42.9301 62.1335 42.6573 61.619C42.3845 61.1046 42.0026 60.6993 41.5115 60.4031C41.0205 60.107 40.4515 59.9667 39.8046 59.9667C39.1577 59.9667 38.6121 60.1148 38.1132 60.4031C37.6222 60.6993 37.2325 61.1046 36.9519 61.619C36.6713 62.1335 36.531 62.7258 36.531 63.3805C36.531 64.0353 36.6713 64.6276 36.9519 65.142H36.9441Z" fill="white"/>
<path d="M47.9963 58.5637V68.1818H46.3751V58.5637H47.9963ZM47.3338 58.5637H49.2668C49.9605 58.5637 50.5684 58.6884 51.0828 58.9301C51.5973 59.1717 52.0026 59.5146 52.2832 59.9589C52.5637 60.4032 52.7118 60.9332 52.7118 61.5489C52.7118 62.1647 52.5715 62.6947 52.2832 63.1389C52.0026 63.591 51.5973 63.9339 51.0828 64.1756C50.5684 64.4172 49.9605 64.5419 49.2668 64.5419H47.3338V63.1156H49.2668C49.828 63.1156 50.2722 62.983 50.6152 62.718C50.9581 62.453 51.1218 62.0633 51.1218 61.5489C51.1218 61.0345 50.9503 60.6526 50.6152 60.3876C50.28 60.1226 49.828 59.9979 49.2668 59.9979H47.3338V58.5715V58.5637Z" fill="white"/>
</svg>
