<svg width="408" height="50" viewBox="0 0 408 50" fill="none" xmlns="http://www.w3.org/2000/svg">
<path d="M110.178 17.6743V12.6682H88.6248V17.6743H110.178ZM90.7827 14.4417H108.073V15.9095H90.7827V14.4417Z" fill="#231815"/>
<path d="M98.1479 9.63655H86.7815V11.5761H111.934V9.63655H100.594V8.37847H113.918V6.40398H100.594V4.42075H98.1479V6.40398H84.7633V8.37847H98.1479V9.63655Z" fill="#231815"/>
<path d="M100.463 30.9628H110.309V29.0931H100.463V27.2148L107.269 26.909L108.955 28.2719L110.248 26.708L106.413 23.6065H110.082V21.7281H88.4676V23.6065H94.0503L92.2331 25.7557L88.4327 25.9217L88.4676 27.7914L98.1478 27.3458V29.0844H88.1007V30.954H98.1478V32.317H84.6322V34.3264H114.215V32.317H100.463V30.954V30.9628ZM95.0725 25.6159L96.7937 23.6065H104.989L104.264 24.4889L105.094 25.1704L95.0813 25.6159H95.0725Z" fill="#231815"/>
<path d="M86.8164 20.5749H111.733V23.8773H113.979V18.6965H84.5624V24.0521H86.8164V20.5749Z" fill="#231815"/>
<path d="M139.341 13.1837H133.261V14.9572H139.341V13.1837Z" fill="#231815"/>
<path d="M132.894 21.4922H139.638V15.9008H132.894V21.4922ZM134.746 17.6743H137.751V19.7187H134.746V17.6743Z" fill="#231815"/>
<path d="M139.306 10.5889H133.226V12.2925H139.306V10.5889Z" fill="#231815"/>
<path d="M128.831 29.0932L129.259 27.7302H146.811V22.4795H127.18V24.419H144.566V25.8519H127.477L125.398 31.985L127.643 32.6315L128.176 31.0327H144.802C143.185 32.4306 141.962 33.1819 141.167 33.1819H137V35.3661H141.657C142.915 35.3661 145.955 33.4877 148.733 30.36L147.344 29.1019H128.84L128.831 29.0932Z" fill="#231815"/>
<path d="M118.915 34.4749L121.16 35.2962L124.795 24.6986L122.549 23.8773L118.915 34.4749Z" fill="#231815"/>
<path d="M139.499 4.97117H132.859V6.84082H139.499V4.97117Z" fill="#231815"/>
<path d="M125.791 14.4417L124.401 14.5815L124.567 16.4162L127.739 16.0755V21.632H129.652V15.8746L130.945 15.7348L131.303 16.4512L132.859 15.6649L131.373 12.5022L129.783 13.2798L130.15 14.0311L128.202 14.2058L131.469 9.70646L130.054 8.57943L128.429 10.7636L127.442 9.67151L129.923 5.68759L128.333 4.5955L126.088 8.20375L125.625 7.69702L124.297 8.99005L127.346 12.2925L125.791 14.4417Z" fill="#231815"/>
<path d="M131.207 20.5399L132.797 19.7187L131.47 17.0278L129.888 17.849L131.207 20.5399Z" fill="#231815"/>
<path d="M124.27 8.10762L121.457 4.3858L119.675 5.8885L122.453 9.56664L124.27 8.10762Z" fill="#231815"/>
<path d="M125.459 22.1038C126.184 20.505 126.778 19.0372 127.206 17.6743L125.485 17.0977C125.057 18.3907 124.524 19.7886 123.834 21.3262L125.45 22.1125L125.459 22.1038Z" fill="#231815"/>
<path d="M123.606 18.2597L120.863 14.8873L119.116 16.4162L121.859 19.7886L123.606 18.2597Z" fill="#231815"/>
<path d="M145.719 12.7031L146.077 13.3147L143.797 13.4545L147.964 8.37846L146.575 7.18154L144.129 10.1782L143.037 9.02497L145.317 5.78367L143.771 4.63043L141.683 7.59216L141.386 7.28638L140.197 8.37846V7.73195H132.203V9.60159H140.197V8.54446L142.941 11.611L141.324 13.6205L139.865 13.6904L139.996 15.5687L143.5 15.3241V21.5621H145.422V15.1931L147.143 15.0533L147.597 15.8046L149.056 14.8174L147.169 11.7159L145.719 12.7031Z" fill="#231815"/>
<path d="M141.324 16.4512C140.958 17.5782 140.529 18.8013 140.031 20.1293L141.718 20.8108C142.251 19.4129 142.679 18.1898 143.037 17.0627L141.316 16.4512H141.324Z" fill="#231815"/>
<path d="M145.885 17.0977L147.3 20.3739L148.96 19.5876L147.536 16.3463L145.885 17.0977Z" fill="#231815"/>
<path d="M175.738 5.68759L173.528 4.84013C171.711 9.95109 169.43 14.6165 166.757 18.8101L168.775 20.1381C169.928 18.3296 171.09 16.3201 172.244 14.0399H176.874V32.4742H173.441V34.8943H178.132L179.32 33.6974V14.0399H183.977V11.6547H173.336C174.297 9.57541 175.118 7.56598 175.747 5.69633L175.738 5.68759Z" fill="#231815"/>
<path d="M168.461 11.646H159.375C160.432 9.49677 161.323 7.45238 162.083 5.54779L159.838 4.66538C158.055 9.19972 155.705 13.6904 152.831 18.2247L154.814 19.5527C155.906 17.9189 157.024 16.0755 158.116 14.0311H160.79V35.4272H163.306V14.0311H168.461V11.646Z" fill="#231815"/>
<path d="M200.035 29.9406L204.001 33.4527L205.452 31.6792L201.494 28.167L200.035 29.9406Z" fill="#231815"/>
<path d="M206.876 12.5284H199.074V23.1959H216.958V12.5284H209.226V10.5189H217.919V8.29983H214.844L215.901 6.93691L212.729 4.3858L211.41 6.08945L214.153 8.30856H209.226V4.42074H206.876V8.30856H198.349V10.5277H206.876V12.5371V12.5284ZM206.876 21.0554H201.354V18.7402H206.876V21.0554ZM206.876 16.8268H201.354V14.6427H206.876V16.8268ZM209.226 14.6427H214.617V16.8268H209.226V14.6427ZM209.226 18.7314H214.617V21.0466H209.226V18.7314Z" fill="#231815"/>
<path d="M213.026 23.6414H210.711V25.7907H197.126V28.001H210.711V32.8412H207.872V35.1214H211.838L213.026 33.8983V28.001H218.146V25.7907H213.026V23.6414Z" fill="#231815"/>
<path d="M197.493 11.9168H194.251V4.5955H191.84V11.9168H187.943V14.2321H191.84V35.0516H194.251V14.2321H197.493V11.9168Z" fill="#231815"/>
<path d="M250.97 9.56668H239.865V11.2703H250.97V9.56668Z" fill="#231815"/>
<path d="M236.965 16.2852H232.072V14.2758H235.873V8.9289H232.072V6.95442H236.537V5.08477H224.34V18.1723H236.965V16.3027V16.2852ZM226.612 6.94568H229.949V8.92017H226.612V6.94568ZM226.612 10.6937H233.82V12.5372H226.612V10.6937ZM229.958 16.2852H226.621V14.2758H229.958V16.2852Z" fill="#231815"/>
<path d="M250.446 32.4306H242.644C242.478 32.4306 242.382 32.3607 242.382 32.1947V30.1852H248.532V19.177H227.713V30.1852H233.959C231.251 32.0549 227.748 33.0509 223.484 33.2169L223.711 35.2962C227.643 35.1564 233.199 34.0731 236.24 31.2074L235.183 30.1852H239.909V32.1597C239.909 33.6974 240.634 34.5099 242.32 34.5099H251.345L252.569 33.2868V30.2901H250.454V32.4393L250.446 32.4306ZM230.089 21.0554H246.147V22.4183H230.089V21.0554ZM230.089 24.0521H246.147V25.3451H230.089V24.0521ZM230.089 28.3418V26.9789H246.147V28.3418H230.089Z" fill="#231815"/>
<path d="M237.882 11.3053C238.677 10.2831 239.402 9.26087 240.031 8.27363H252.49V6.40398H241.185C241.482 5.88852 241.683 5.45168 241.849 5.11095L239.997 4.25476C239.236 5.88852 238.013 7.82806 236.266 10.0821L237.882 11.3053Z" fill="#231815"/>
<path d="M238.153 18.1548H252.167V12.5634H238.153V18.1548ZM247.964 14.2321H250.245V16.4162H247.964V14.2321ZM244.199 14.2321H246.252V16.4162H244.199V14.2321ZM240.066 14.2321H242.478V16.4162H240.066V14.2321Z" fill="#231815"/>
<path d="M264.992 17.8491L267.805 20.7059L269.326 19.177L266.512 16.3114L264.992 17.8491Z" fill="#231815"/>
<path d="M279.233 10.3879H266.215V12.5022H279.233V10.3879Z" fill="#231815"/>
<path d="M271.999 4.01886C267.998 6.8146 263.21 9.54044 257.653 12.2313L258.614 14.3107C263.97 11.7596 268.662 9.09487 272.698 6.33408C276.761 9.12982 281.487 11.7159 286.913 14.1359L287.804 12.0217C282.483 9.67149 277.757 6.98059 273.554 4.01012H271.999V4.01886Z" fill="#231815"/>
<path d="M260.266 22.925H285.253V14.1359H260.266V22.925ZM273.624 16.2502H278.945L276.07 19.212L277.59 20.7758L280.596 17.6394L279.207 16.2415H283.042V20.8108H273.624V16.2415V16.2502ZM262.52 16.2502H271.379V20.8195H262.52V16.2502Z" fill="#231815"/>
<path d="M262.45 35.2263H264.765V34.5099H280.858V35.2962H283.138V24.4976H262.45V35.2263ZM264.765 26.6032H280.858V28.5078H264.765V26.6032ZM264.765 30.491H280.858V32.3956H264.765V30.491Z" fill="#231815"/>
<path d="M307.461 17.2287V15.6998H303.433C305.74 13.1749 307.059 11.5499 307.059 9.95109C307.059 8.10765 305.766 6.67484 303.661 6.67484C302.507 6.67484 301.468 7.12041 300.856 7.67082V9.41816C301.442 8.7629 302.359 8.21249 303.425 8.21249C304.657 8.21249 305.364 9.10364 305.364 10.0821C305.364 11.2179 304.84 12.0828 300.323 17.22H307.461V17.2287Z" fill="#231815"/>
<path d="M313.14 17.4559C315.35 17.4559 317.15 15.4115 317.15 12.0654C317.15 8.71922 315.342 6.67484 313.14 6.67484C310.938 6.67484 309.13 8.71922 309.13 12.0654C309.13 15.4115 310.921 17.4559 313.14 17.4559ZM313.14 8.22123C314.433 8.22123 315.516 9.63657 315.516 12.0654C315.516 14.4942 314.433 15.9008 313.14 15.9008C311.847 15.9008 310.79 14.5116 310.79 12.0654C310.79 9.6191 311.83 8.22123 313.14 8.22123Z" fill="#231815"/>
<path d="M325.695 17.2287V15.6998H321.667C323.973 13.1749 325.293 11.5499 325.293 9.95109C325.293 8.10765 324 6.67484 321.894 6.67484C320.741 6.67484 319.701 7.12041 319.09 7.67082V9.41816C319.675 8.7629 320.592 8.21249 321.658 8.21249C322.89 8.21249 323.607 9.10364 323.607 10.0821C323.607 11.2179 323.082 12.0828 318.565 17.22H325.703L325.695 17.2287Z" fill="#231815"/>
<path d="M331.251 10.4927C331.068 10.4927 330.893 10.5102 330.727 10.5364L333.654 6.89324H331.67L328.709 10.5626C327.809 11.646 327.224 12.6594 327.224 13.8651C327.224 15.8396 328.752 17.4471 330.963 17.4471C333.173 17.4471 334.702 15.8396 334.702 13.8214C334.702 11.8033 332.981 10.484 331.26 10.484L331.251 10.4927ZM330.945 15.9706C329.722 15.9706 328.849 14.9747 328.849 13.8564C328.849 13.1662 329.084 12.6332 329.556 12.0129C329.949 11.8469 330.334 11.7596 330.736 11.7596C331.933 11.7596 333.042 12.5109 333.042 13.8826C333.042 14.9834 332.177 15.9619 330.945 15.9619V15.9706Z" fill="#231815"/>
<path d="M306.474 29.5649C307.365 29.2329 308.029 28.4641 308.029 27.2759C308.029 25.747 306.85 24.5675 304.587 24.5675H301.171V34.903H304.77C307.173 34.903 308.352 33.5838 308.352 32.0461C308.352 30.8492 307.714 29.9668 306.474 29.5736V29.5649ZM302.822 26.0178H304.63C305.766 26.0178 306.439 26.5857 306.439 27.4768C306.439 28.368 305.775 29.0058 304.561 29.0058H302.822V26.0178ZM304.674 33.444H302.831V30.2813H304.744C305.897 30.2813 306.719 30.8667 306.719 31.8539C306.719 32.78 306.011 33.4527 304.674 33.4527V33.444Z" fill="#231815"/>
<path d="M313.131 24.5675L309.147 34.903H310.886L311.987 32.0024H316.198L317.299 34.903H319.063L315.053 24.5675H313.149H313.131ZM312.476 30.5696L314.075 26.3498L315.682 30.5696H312.476Z" fill="#231815"/>
<path d="M328.639 24.5675L326.096 32.3868H326.088L323.475 24.5675H321.484L319.928 34.903H321.545L322.654 26.9439H322.698L325.319 34.903H326.778L329.399 26.8915H329.443L330.543 34.903H332.168L330.622 24.5675H328.639Z" fill="#231815"/>
<path d="M339.568 29.5649C340.46 29.2329 341.124 28.4641 341.124 27.2759C341.124 25.747 339.944 24.5675 337.681 24.5675H334.265V34.903H337.865C340.267 34.903 341.447 33.5838 341.447 32.0461C341.447 30.8492 340.809 29.9668 339.568 29.5736V29.5649ZM335.916 26.0178H337.725C338.861 26.0178 339.533 26.5857 339.533 27.4768C339.533 28.368 338.869 29.0058 337.655 29.0058H335.916V26.0178ZM337.76 33.444H335.916V30.2813H337.83C338.983 30.2813 339.804 30.8667 339.804 31.8539C339.804 32.78 339.097 33.4527 337.76 33.4527V33.444Z" fill="#231815"/>
<path d="M348.157 24.3491C345.169 24.3491 342.932 26.6556 342.932 29.7397C342.932 32.8237 345.169 35.1302 348.157 35.1302C351.145 35.1302 353.364 32.8412 353.364 29.7397C353.364 26.6381 351.145 24.3491 348.157 24.3491ZM348.157 33.5663C346.348 33.5663 344.627 32.1772 344.627 29.7309C344.627 27.2846 346.322 25.8868 348.157 25.8868C349.991 25.8868 351.669 27.3021 351.669 29.7309C351.669 32.1597 349.956 33.5663 348.157 33.5663Z" fill="#231815"/>
<path d="M360.056 24.3491C357.068 24.3491 354.831 26.6556 354.831 29.7397C354.831 32.8237 357.068 35.1302 360.056 35.1302C363.044 35.1302 365.263 32.8412 365.263 29.7397C365.263 26.6381 363.044 24.3491 360.056 24.3491ZM360.056 33.5663C358.247 33.5663 356.526 32.1772 356.526 29.7309C356.526 27.2846 358.221 25.8868 360.056 25.8868C361.891 25.8868 363.568 27.3021 363.568 29.7309C363.568 32.1597 361.856 33.5663 360.056 33.5663Z" fill="#231815"/>
<path d="M371.169 34.903H377.154V33.3916H372.829V30.3599H376.804V28.9271H372.829V26.079H377.154V24.5675H371.169V34.903Z" fill="#231815"/>
<path d="M387.314 24.5675H385.427L382.902 28.499L380.316 24.5675H378.403L381.819 29.7047L378.359 34.903H380.264L382.841 30.9278L385.471 34.903H387.384L383.916 29.696L387.314 24.5675Z" fill="#231815"/>
<path d="M391.726 24.5675H388.992V34.903H390.661V31.6268H391.796C394.382 31.6268 395.937 30.124 395.937 28.0272C395.937 25.9304 394.33 24.5675 391.726 24.5675ZM391.884 30.1066H390.661V26.0964H391.884C393.325 26.0964 394.26 26.7866 394.26 28.0797C394.26 29.3727 393.334 30.1066 391.884 30.1066Z" fill="#231815"/>
<path d="M402.438 24.3491C399.45 24.3491 397.213 26.6556 397.213 29.7397C397.213 32.8237 399.45 35.1302 402.438 35.1302C405.425 35.1302 407.645 32.8412 407.645 29.7397C407.645 26.6381 405.425 24.3491 402.438 24.3491ZM402.438 33.5663C400.629 33.5663 398.908 32.1772 398.908 29.7309C398.908 27.2846 400.603 25.8868 402.438 25.8868C404.272 25.8868 405.95 27.3021 405.95 29.7309C405.95 32.1597 404.237 33.5663 402.438 33.5663Z" fill="#231815"/>
<path d="M53.1364 43.6834L43.4737 0H35.4185V30.6832L43.4737 28.4117V6.30788L53.1364 50L61.1829 47.7285V0H53.1364V43.6834Z" fill="#231815"/>
<path d="M17.7092 43.6834L8.04648 0H0V30.6832L8.04648 28.4117V6.30788L17.7092 50L25.7645 47.7285V0H17.7092V43.6834Z" fill="#231815"/>
</svg>
