<?xml version="1.0" encoding="UTF-8"?>
<svg id="_圖層_1" data-name="圖層_1" xmlns="http://www.w3.org/2000/svg" version="1.1" viewBox="0 0 298 166">
  <!-- Generator: Adobe Illustrator 29.8.3, SVG Export Plug-In . SVG Version: 2.1.1 Build 3)  -->
  <defs>
    <style>
      .st0 {
        fill: #7dbeb1;
        stroke: #ebede7;
        stroke-miterlimit: 10;
      }

      .st1 {
        fill: #077383;
      }
    </style>
  </defs>
  <path class="st1" d="M297.56,27.62c.03-.9-.05-1.73-.23-2.49-.21-1.87-.96-3.27-2.27-4.19-1.63-1.16-4.25-1.74-7.85-1.74-3.14,0-5.76.81-7.85,2.44-2.21,1.51-4.01,2.27-5.41,2.27-1.05,0-2.09-.93-3.14-2.79-.93-1.63-1.45-2.97-1.57-4.01-.23-1.51-1.4-2.62-3.49-3.32-.92-.38-1.61-.76-2.1-1.13,0-.04,0-.08,0-.12l.02-.09c0-.12-.01-.24-.02-.36l.02-.09c0-.12-.01-.24-.02-.36l.02-.09c0-.12-.01-.24-.02-.36l.02-.09c0-.12-.01-.24-.02-.36l.02-.09c0-.12-.01-.24-.02-.36l.02-.09c0-.12-.01-.24-.02-.36l.02-.09c0-.12-.01-.24-.02-.36l.02-.09c0-.12-.01-.24-.02-.36l.02-.09c0-.12-.01-.24-.02-.36l.02-.09c0-.12-.01-.24-.02-.36l.02-.09c0-.12-.01-.24-.02-.36l.02-.09c0-.12-.01-.24-.02-.36l.02-.09c0-.12-.01-.24-.02-.36l.02-.09c0-1.63-.29-3.08-.87-4.36-.81-1.51-1.8-2.27-2.97-2.27-.62,0-1.26.17-1.92.52-.57.4-1.15.92-1.74,1.57-1.28,1.51-3.43,2.44-6.46,2.79-3.61.35-6.22.76-7.85,1.22-.91.2-2.01.67-3.32,1.4-.15.11-.32.23-.52.35-2.68,1.4-4.83,4.19-6.46,8.38-1.4,3.61-2.73,5.41-4.01,5.41-1.4,0-2.5-.81-3.32-2.44-.81-1.75-2.09-2.62-3.84-2.62-1.4,0-3.78,2.04-7.15,6.11-3.37,4.3-5.47,6.81-6.28,7.5-3.49,2.79-7.62,5.64-12.39,8.55-5,3.02-8.32,4.54-9.95,4.54-1.16,0-2.62-.17-4.36-.52-1.74-.47-2.79-.7-3.14-.7-1.63,0-2.91,1.28-3.84,3.84-.81,2.56-1.57,3.84-2.27,3.84-2.33,0-4.25-1.8-5.76-5.41-1.98-4.3-3.02-6.51-3.14-6.63-1.05-.81-3.14-1.11-6.28-.87-3.26.35-5.41.52-6.46.52-2.56,0-5.53-.47-8.9-1.4-3.37-1.05-5.29-1.57-5.76-1.57-1.74,0-2.62.52-2.62,1.57,0,.11.01.21.01.31,0,.05-.01.09-.01.13,0,.11.01.21.01.31,0,.05-.01.09-.01.13,0,.11.01.21.01.31,0,.05-.01.09-.01.13,0,.11.01.21.01.31,0,.05-.01.09-.01.13,0,.11.01.21.01.31,0,.05-.01.09-.01.13,0,.11.01.21.01.31,0,.05-.01.09-.01.13,0,.11.01.21.01.31,0,.05-.01.09-.01.13,0,.11.01.21.01.31,0,.05-.01.09-.01.13,0,.11.01.21.01.31,0,.05-.01.09-.01.13,0,.11.01.21.01.31,0,.05-.01.09-.01.13,0,.11.01.21.01.31,0,.05-.01.09-.01.13,0,.11.01.21.01.31,0,.05-.01.09-.01.13,0,.11.01.21.01.31,0,.05-.01.09-.01.13,0,.11.01.21.01.31,0,.05-.01.09-.01.13,0,.11.01.21.01.31,0,.05-.01.09-.01.13,0,.11.01.21.01.31,0,.05-.01.09-.01.13,0,.11.01.21.01.31,0,.05-.01.09-.01.13,0,.11.01.21.01.31,0,.05-.01.09-.01.13,0,.11.01.21.01.31,0,.05-.01.09-.01.13,0,.11.01.21.01.31,0,.05-.01.09-.01.13,0,.11.01.21.01.31,0,.05-.01.09-.01.13,0,.11.01.21.01.31,0,.05-.01.09-.01.13,0,.11.01.21.01.31,0,.05-.01.09-.01.13,0,.11.01.21.01.31,0,.05-.01.09-.01.13,0,.11.01.21.01.31,0,.05-.01.09-.01.13,0,.11.01.21.01.31,0,.05-.01.09-.01.13,0,.11.01.21.01.31,0,.05-.01.09-.01.13,0,.11.01.21.01.31,0,.05-.01.09-.01.13,0,.11.01.21.01.31,0,.05-.01.09-.01.13,0,.11.01.21.01.31,0,0,0,.01,0,.02-1.05.79-2.62,1.19-4.72,1.19l-5.76-.7c-.81,0-2.21.35-4.19,1.05-1.98.7-3.32,1.05-4.01,1.05-2.44,0-4.59-1.16-6.46-3.49-2.09-2.68-5.7-4.25-10.82-4.71-1.05-.12-2.5-.99-4.36-2.62-2.09-1.63-3.78-2.56-5.06-2.79-4.77-.93-8.38-2.21-10.82-3.84-4.42-2.33-8.03-4.3-10.82-5.93-5.12-3.02-7.85-5.82-8.2-8.38l-.52-4.36c-.12-.81-.93-1.69-2.44-2.62-1.63-1.05-2.62-1.86-2.97-2.44-.23-.35-2.56-2.38-6.98-6.11-1.34-1.15-2.44-2.37-3.32-3.66-.18.29-.41.58-.7.87-.93,1.05-1.45,1.86-1.57,2.44-.23.35-1.05,2.21-2.44,5.58-.93,2.21-1.63,3.78-2.09,4.71-.39.78-.55,1.45-.52,2.02,0,.07,0,.14,0,.21,0,.08,0,.16,0,.24,0,.07,0,.14,0,.21,0,.08,0,.16,0,.24,0,.07,0,.14,0,.21,0,.04,0,.08,0,.13-.34.86-.8,1.65-1.4,2.34-1.4,1.51-2.39,2.62-2.97,3.32-1.28,1.63-2.44,4.07-3.49,7.33-.81,2.44-2.33,4.48-4.54,6.11-3.14,1.4-5.82,2.68-8.03,3.84-1.16.58-2.27,2.09-3.32,4.54-.47.81-1.69,2.56-3.66,5.23-1.4,1.63-2.09,3.37-2.09,5.23,0,.09,0,.17,0,.25,0,.07,0,.13,0,.2,0,.09,0,.17,0,.25,0,.07,0,.13,0,.19,0,.09,0,.17,0,.25,0,.07,0,.13,0,.2,0,.09,0,.17,0,.25,0,.07,0,.13,0,.2,0,.09,0,.17,0,.25,0,.07,0,.13,0,.19,0,.09,0,.17,0,.25,0,.07,0,.13,0,.2,0,.09,0,.17,0,.25,0,.07,0,.13,0,.19,0,.09,0,.17,0,.25,0,.07,0,.13,0,.19,0,.09,0,.17,0,.25,0,.07,0,.13,0,.19,0,.09,0,.17,0,.25,0,.07,0,.13,0,.2,0,.09,0,.17,0,.25,0,.07,0,.13,0,.2,0,.09,0,.17,0,.25,0,.07,0,.13,0,.19,0,.09,0,.17,0,.25,0,.07,0,.13,0,.19,0,.09,0,.17,0,.25,0,.07,0,.13,0,.2,0,.09,0,.17,0,.25,0,.07,0,.13,0,.19,0,.09,0,.17,0,.25,0,.07,0,.13,0,.19,0,.09,0,.17,0,.25,0,.07,0,.13,0,.19,0,.09,0,.17,0,.25,0,.07,0,.13,0,.19,0,.09,0,.17,0,.25,0,.07,0,.13,0,.19,0,.09,0,.17,0,.25,0,.07,0,.13,0,.19,0,.09,0,.17,0,.25,0,.07,0,.13,0,.19,0,.09,0,.17,0,.25,0,.07,0,.13,0,.2,0,.09,0,.17,0,.25,0,.07,0,.13,0,.19,0,.09,0,.17,0,.25,0,.07,0,.13,0,.2,0,.09,0,.17,0,.25,0,.07,0,.13,0,.19,0,.09,0,.17,0,.25,0,.07,0,.13,0,.19,0,.09,0,.17,0,.25,0,.07,0,.13,0,.19,0,.09,0,.17,0,.25,0,.07,0,.13,0,.19,0,.09,0,.17,0,.25,0,.07,0,.13,0,.2,0,.09,0,.17,0,.25,0,.07,0,.13,0,.2,0,.09,0,.17,0,.25,0,.07,0,.13,0,.19,0,.47.03.92.09,1.36-.98,1.05-1.48,1.91-1.48,2.59l.04.14c-.02.11-.04.21-.04.31l.04.14c-.02.11-.04.21-.04.31l.04.14c-.02.11-.04.21-.04.31l.04.14c-.02.11-.04.21-.04.31l.04.14c-.02.11-.04.21-.04.31l.04.14c-.02.11-.04.21-.04.31l.04.14c-.02.11-.04.21-.04.31l.04.14c-.02.11-.04.21-.04.31l.04.14c-.02.11-.04.21-.04.31l.04.14c-.02.11-.04.21-.04.31l.04.14c-.02.11-.04.21-.04.31l.04.14c-.02.11-.04.21-.04.31l.04.14c-.02.11-.04.21-.04.31l.04.14c-.02.11-.04.21-.04.31l.04.14c-.02.11-.04.21-.04.31l.04.14c-.02.11-.04.21-.04.31l.04.14c-.02.11-.04.21-.04.31l.04.14s0,0,0,0c-.44.58-1.09,1.14-1.96,1.68-.15.11-.32.22-.52.35.11.08.21.16.32.23-.1.07-.19.14-.32.21.11.08.21.16.32.23-.1.07-.19.13-.32.21.11.08.21.16.32.24-.1.07-.19.13-.32.21.11.08.21.16.32.24-.1.07-.19.13-.32.21.11.08.21.16.32.24-.1.07-.19.13-.32.21.11.08.21.16.32.24-.1.07-.19.13-.32.21.11.08.21.16.32.24-.1.07-.19.13-.32.21.11.08.21.16.32.23-.1.07-.19.14-.32.21.11.08.21.16.32.24-.1.07-.19.13-.32.21.11.08.21.16.32.24-.1.07-.19.13-.32.21.11.08.21.16.32.24-.1.07-.19.14-.32.21.11.08.21.16.32.23-.1.07-.19.13-.32.21.11.08.21.16.32.24-.1.07-.19.13-.32.21.11.08.21.16.32.24-.1.07-.19.13-.32.21.11.08.21.16.32.24-.1.07-.19.14-.32.21.11.08.21.16.32.24-.1.07-.19.14-.32.21.11.08.21.16.32.24-.1.07-.19.13-.32.21.11.08.21.16.32.24-.1.07-.19.13-.32.21.11.08.21.16.32.24-.1.07-.19.14-.32.21.11.08.21.16.32.24-.1.07-.19.13-.32.21.11.08.21.16.32.24-.1.07-.19.13-.32.21.11.08.21.16.32.24-.1.07-.19.13-.32.21.11.08.21.16.32.23-.1.07-.19.14-.32.21.11.08.21.16.32.24-.1.07-.19.13-.32.21.11.08.21.16.32.24-.1.07-.19.13-.32.21.11.08.21.16.32.23-.1.07-.19.13-.32.21.11.08.21.16.32.24-.1.07-.19.13-.32.21.11.08.21.16.32.24-.1.07-.19.13-.32.21.11.08.21.16.32.24-.1.07-.19.13-.32.21.11.08.21.16.32.23-.1.07-.19.14-.32.21.11.08.21.16.32.23-.1.07-.19.13-.32.21,3.36,2.35,5.34,4.79,5.93,7.33.93,3.96,1.98,6.4,3.14,7.33,2.09,1.51,3.66,4.07,4.71,7.68.81,2.79,3.55,5.06,8.2,6.81,2.44.93,5.93,1.63,10.47,2.09,3.49.81,5.23,2.91,5.23,6.28,0,1.63,1.45,4.3,4.36,8.03.47.7.7,3.08.7,7.15,0,2.21,1.22,3.66,3.66,4.36,4.89,1.28,7.5,1.98,7.85,2.09.34.15.8.38,1.4.7,1.43.9,3.53,2.3,6.28,4.19,1.75,1.16,4.6,1.75,8.55,1.75l8.72-.7c1.28,0,3.78.7,7.5,2.09,3.61,0,6.17-3.26,7.68-9.77l2.97-11.87c.58-.81,2.5-2.04,5.76-3.66,2.56-1.4,3.78-2.73,3.66-4.01,0-.04,0-.09-.01-.13,0-.1.02-.21.01-.31,0-.04,0-.09-.01-.13,0-.1.02-.21.01-.31,0-.04,0-.09-.01-.13,0-.1.02-.21.01-.31,0-.04,0-.09-.01-.13,0-.1.02-.21.01-.31,0-.04,0-.09-.01-.13,0-.1.02-.21.01-.31,0,0,0-.01,0-.02.14-1.32.48-2.9,1.05-4.73,1.05-3.26,2.21-4.89,3.49-4.89,1.74,0,3.08.52,4.01,1.57,1.05,1.28,2.38,2.21,4.01,2.79.82.27,1.28,1.06,1.39,2.34,0,.01,0,.03,0,.04,0,.02,0,.04,0,.06,0,.15,0,.3,0,.43,0,.15,0,.31,0,.45,0,.15,0,.31,0,.45-.04,1.67.54,2.52,1.75,2.52,1.98,0,2.91-1.45,2.79-4.36,0-3.02,1.28-4.54,3.84-4.54.23,0,1.4.41,3.49,1.22,2.21.81,3.72,1.22,4.54,1.22s2.91-1.05,6.28-3.14c3.37-2.09,5.76-3.14,7.15-3.14.81,0,1.69.47,2.62,1.4,2.56,0,4.65-1.8,6.28-5.41,1.63-3.72,5.58-5.58,11.87-5.58.3,0,2.4-1.05,6.28-3.14,1.65-.95,3.97-2.35,6.98-4.19,3.96-2.44,5.93-4.25,5.93-5.41,0-.05-.02-.13-.04-.24.01-.07.04-.14.04-.21,0-.05-.02-.13-.04-.24.01-.07.04-.14.04-.21,0-.05-.02-.13-.04-.24.01-.07.04-.14.04-.21,0-.05-.02-.13-.04-.24.01-.07.04-.14.04-.21,0-.05-.02-.13-.04-.24.01-.07.04-.14.04-.21,0-.05-.02-.13-.04-.24.01-.07.04-.14.04-.21,0-.04-.01-.1-.03-.17.57-.08,1.39-.12,2.47-.12.93,0,3.9.41,8.9,1.22,1.51,0,3.37-1.34,5.58-4.01,2.21-2.68,3.66-4.01,4.36-4.01.93,0,1.98.35,3.14,1.05,1.05.7,2.39,1.05,4.01,1.05.93,0,2.62-.58,5.06-1.74,2.44-1.16,4.19-1.74,5.23-1.74,1.16,0,2.09.17,2.79.52.81.35,1.74.52,2.79.52,1.74,0,2.62-1.22,2.62-3.66.12-2.44,1.45-3.66,4.01-3.66.81,0,1.8.58,2.97,1.75,1.05,1.16,2.97,1.74,5.76,1.74l8.2-.87c1.67,0,3.01.99,4.01,2.97,2.62-1.51,5.3-2.79,8.03-3.84,4.07-1.63,6.63-3.37,7.68-5.23.35-.47.64-2.09.87-4.89.23-4.3,2.73-8.67,7.5-13.09,2.33-2.21,4.65-4.3,6.98-6.28l-.07-.38s.05-.04.07-.07l-.07-.38s.05-.04.07-.07l-.07-.38s.05-.04.07-.07l-.07-.38s.05-.04.07-.07l-.07-.38s.05-.04.07-.07l-.07-.38s.05-.04.07-.06l-.07-.38s.05-.04.07-.07l-.07-.38s.05-.04.07-.07l-.07-.38s.05-.04.07-.07l-.07-.38s.05-.04.07-.07l-.07-.38s.05-.04.07-.07l-.07-.38s.05-.04.07-.07l-.07-.38s.05-.04.07-.07l-.07-.38s.05-.04.07-.07l-.07-.38s.05-.04.07-.07l-.07-.38s.05-.04.07-.07l-.07-.38s.05-.04.07-.07l-.07-.38s.05-.04.07-.07l-.07-.38s.05-.04.07-.07l-.07-.38s.05-.04.07-.07l-.05-.27c.13-.13.25-.25.4-.39,1.28-1.05,2.5-1.57,3.66-1.57.04-.44.05-.86.05-1.27,0-.15,0-.3,0-.45,0-.15,0-.3,0-.45,0-.15,0-.3,0-.45,0-.15,0-.3,0-.45,0-.15,0-.3,0-.45,0-.15,0-.3,0-.45,0-.15,0-.3,0-.45,0-.15,0-.3,0-.45,0-.15,0-.3,0-.45,0-.15,0-.3,0-.45,0-.15,0-.3,0-.45,0-.15,0-.3,0-.45,0-.15,0-.3,0-.45,0-.15,0-.3,0-.45,0-.15,0-.3,0-.45,0-.15,0-.3,0-.45,0-.15,0-.3,0-.45,0-.15,0-.3,0-.45,0-.15,0-.3,0-.45,0-.15,0-.3,0-.45,0-.15,0-.3,0-.45,0-.15,0-.3,0-.45,0-.15,0-.3,0-.45,0-.15,0-.3,0-.45,0-.15,0-.3,0-.45,0-.15,0-.3,0-.45,0-.15,0-.3,0-.45,0-.15,0-.3,0-.45,0-.15,0-.3,0-.45,0-.15,0-.3,0-.45Z"/>
  <path class="st0" d="M40.66.87c-.18.29-.41.58-.7.87-.93,1.05-1.45,1.86-1.57,2.44-.23.35-1.05,2.21-2.44,5.58-.93,2.21-1.63,3.78-2.09,4.71-.58,1.16-.7,2.09-.35,2.79-.35,1.05-.87,1.98-1.57,2.79-1.4,1.51-2.39,2.62-2.97,3.32-1.28,1.63-2.44,4.07-3.49,7.33-.81,2.44-2.33,4.48-4.54,6.11-3.14,1.4-5.82,2.68-8.03,3.84-1.16.58-2.27,2.09-3.32,4.54-.47.81-1.69,2.56-3.66,5.23-1.4,1.63-2.09,3.37-2.09,5.23,0,2.44.7,4.42,2.09,5.93,1.28,1.4,1.92,2.56,1.92,3.49,0,1.4-.87,2.91-2.62,4.54-1.86,1.63-2.79,2.91-2.79,3.84l1.05,4.01c-.01.23-.13.93-.35,2.09-.08,1.17-.95,2.27-2.62,3.32-.15.11-.32.22-.52.35,3.36,2.35,5.34,4.79,5.93,7.33.93,3.96,1.98,6.4,3.14,7.33,2.09,1.51,3.66,4.07,4.71,7.68.81,2.79,3.55,5.06,8.2,6.81,2.44.93,5.93,1.63,10.47,2.09,3.49.81,5.23,2.91,5.23,6.28,0,1.63,1.45,4.3,4.36,8.03.47.7.7,3.08.7,7.15,0,2.21,1.22,3.66,3.66,4.36,4.89,1.28,7.5,1.98,7.85,2.09.34.15.8.38,1.4.7,1.43.9,3.53,2.3,6.28,4.19,1.74,1.16,4.6,1.74,8.55,1.74l8.72-.7c1.28,0,3.78.7,7.5,2.09,3.61,0,6.17-3.26,7.68-9.77l2.97-11.87c.58-.81,2.5-2.04,5.76-3.66,2.56-1.4,3.78-2.73,3.66-4.01-.23-1.63.12-3.95,1.05-6.98,1.05-3.26,2.21-4.89,3.49-4.89,1.74,0,3.08.52,4.01,1.57,1.05,1.28,2.38,2.21,4.01,2.79,1.05.35,1.51,1.51,1.4,3.49-.12,1.86.47,2.79,1.74,2.79,1.98,0,2.91-1.45,2.79-4.36,0-3.02,1.28-4.54,3.84-4.54.23,0,1.4.41,3.49,1.22,2.21.81,3.72,1.22,4.54,1.22s2.91-1.05,6.28-3.14c3.37-2.09,5.76-3.14,7.15-3.14.81,0,1.69.47,2.62,1.4,2.56,0,4.65-1.8,6.28-5.41,1.63-3.72,5.58-5.58,11.87-5.58.3,0,2.4-1.05,6.28-3.14,1.65-.95,3.97-2.35,6.98-4.19,3.96-2.44,5.93-4.25,5.93-5.41,0-.23-.29-1.11-.87-2.62.35-.23,1.45-.35,3.32-.35.93,0,3.9.41,8.9,1.22,1.51,0,3.37-1.34,5.58-4.01,2.21-2.68,3.66-4.01,4.36-4.01.93,0,1.98.35,3.14,1.05,1.05.7,2.39,1.05,4.01,1.05.93,0,2.62-.58,5.06-1.74,2.44-1.16,4.19-1.74,5.23-1.74,1.16,0,2.09.17,2.79.52.81.35,1.74.52,2.79.52,1.74,0,2.62-1.22,2.62-3.66.12-2.44,1.45-3.66,4.01-3.66.81,0,1.8.58,2.97,1.74,1.05,1.16,2.97,1.74,5.76,1.74l8.2-.87c1.67,0,3.01.99,4.01,2.97,2.62-1.51,5.3-2.79,8.03-3.84,4.07-1.63,6.63-3.37,7.68-5.23.35-.47.64-2.09.87-4.89.23-4.3,2.73-8.67,7.5-13.09,2.33-2.21,4.65-4.3,6.98-6.28l-1.4-7.15c0-.58.58-1.4,1.74-2.44,1.28-1.05,2.5-1.57,3.66-1.57.12-1.23.06-2.33-.17-3.32-.21-1.87-.96-3.27-2.27-4.19-1.63-1.16-4.25-1.74-7.85-1.74-3.14,0-5.76.81-7.85,2.44-2.21,1.51-4.01,2.27-5.41,2.27-1.05,0-2.09-.93-3.14-2.79-.93-1.63-1.45-2.97-1.57-4.01-.23-1.51-1.4-2.62-3.49-3.32-1.98-.81-2.97-1.63-2.97-2.44l.87-4.71c0-1.63-.29-3.08-.87-4.36C261.97.76,260.98,0,259.81,0c-.62,0-1.26.17-1.92.52-.57.4-1.15.92-1.74,1.57-1.28,1.51-3.43,2.44-6.46,2.79-3.61.35-6.22.76-7.85,1.22-.91.2-2.01.67-3.32,1.4-.15.11-.32.23-.52.35-2.68,1.4-4.83,4.19-6.46,8.38-1.4,3.61-2.73,5.41-4.01,5.41-1.4,0-2.5-.81-3.32-2.44-.81-1.75-2.09-2.62-3.84-2.62-1.4,0-3.78,2.04-7.15,6.11-3.37,4.3-5.47,6.81-6.28,7.5-3.49,2.79-7.62,5.64-12.39,8.55-5,3.02-8.32,4.54-9.95,4.54-1.16,0-2.62-.17-4.36-.52-1.74-.47-2.79-.7-3.14-.7-1.63,0-2.91,1.28-3.84,3.84-.81,2.56-1.57,3.84-2.27,3.84-2.33,0-4.25-1.8-5.76-5.41-1.98-4.3-3.02-6.51-3.14-6.63-1.05-.81-3.14-1.11-6.28-.87-3.26.35-5.41.52-6.46.52-2.56,0-5.53-.47-8.9-1.4-3.37-1.05-5.29-1.57-5.76-1.57-1.74,0-2.62.52-2.62,1.57,0,1.63.29,2.91.87,3.84.58.93.87,2.09.87,3.49,0,2.44-.29,4.13-.87,5.06-.93,1.4-2.79,2.09-5.58,2.09l-5.76-.7c-.81,0-2.21.35-4.19,1.05-1.98.7-3.32,1.05-4.01,1.05-2.44,0-4.59-1.16-6.46-3.49-2.09-2.68-5.7-4.25-10.82-4.71-1.05-.12-2.5-.99-4.36-2.62-2.09-1.63-3.78-2.56-5.06-2.79-4.77-.93-8.38-2.21-10.82-3.84-4.42-2.33-8.03-4.3-10.82-5.93-5.12-3.02-7.85-5.82-8.2-8.38l-.52-4.36c-.12-.81-.93-1.69-2.44-2.62-1.63-1.05-2.62-1.86-2.97-2.44-.23-.35-2.56-2.38-6.98-6.11-1.34-1.15-2.44-2.37-3.32-3.66"/>
</svg>