<?xml version="1.0" encoding="UTF-8"?>
<svg id="_圖層_1" data-name="圖層_1" xmlns="http://www.w3.org/2000/svg" version="1.1" viewBox="0 0 189 126">
  <!-- Generator: Adobe Illustrator 29.8.3, SVG Export Plug-In . SVG Version: 2.1.1 Build 3)  -->
  <defs>
    <style>
      .st0 {
        fill: #7dbeb1;
        stroke: #ebede7;
        stroke-miterlimit: 10;
      }

      .st1 {
        fill: #077383;
      }
    </style>
  </defs>
  <path class="st1" d="M188.94,76.21c.02-.11.03-.22.03-.31-1.28-3.61-2.85-5.47-4.71-5.58.05.15.08.28.11.42-.04,0-.08-.02-.11-.02.05.15.08.28.11.42-.04,0-.08-.02-.11-.02.05.15.08.28.11.42-.04,0-.08-.02-.11-.02.05.15.08.28.11.42-.04,0-.08-.02-.11-.02.05.14.07.26.11.39,0,0,0,.02,0,.02-.03,0-.07-.02-.1-.02.02.05.02.09.04.14-.25.45-.72.73-1.43.84-2.56.35-3.9.58-4.01.7-.23.12-1.11,1.16-2.62,3.14-1.16,1.63-2.33,2.44-3.49,2.44-1.74,0-3.61-1.28-5.58-3.84-1.98-2.56-3.26-3.84-3.84-3.84-.64.11-1.19.19-1.66.24l2.88-7.63c0-.08-.01-.2-.03-.33l.03-.07c0-.08-.01-.2-.03-.33l.03-.07c0-.08-.01-.2-.03-.33l.03-.07c0-.08-.01-.2-.03-.33l.03-.07c0-.08-.01-.2-.03-.33l.03-.07c0-.08-.01-.2-.03-.33l.03-.07c0-.08-.01-.2-.03-.33l.03-.07c0-.08-.01-.2-.03-.33l.03-.07c0-.08-.01-.2-.03-.33l.03-.07c0-.08-.01-.2-.03-.33l.03-.07c0-.08-.01-.2-.03-.33l.03-.07c0-.08-.01-.2-.03-.33l.03-.07c0-.08-.01-.2-.03-.33l.03-.07c0-.08-.01-.2-.03-.33l.03-.07c0-.08-.01-.2-.03-.33l.03-.07c0-.08-.01-.2-.03-.33l.03-.07c0-.08-.01-.2-.03-.33l.03-.07c0-.08-.01-.2-.03-.33l.03-.07c0-.08-.01-.2-.03-.33l.03-.07c0-.08-.01-.2-.03-.33l.03-.07c0-.08-.01-.2-.03-.33l.03-.07c0-.08-.01-.2-.03-.33l.03-.07c0-.08-.01-.2-.03-.33l.03-.07c0-.08-.01-.2-.03-.33l.03-.07c0-.08-.01-.2-.03-.33l.03-.07c0-.08-.01-.2-.03-.33l.03-.07c0-.08-.01-.2-.03-.33l.03-.07c0-.08-.01-.2-.03-.33l.03-.07c0-.08-.01-.2-.03-.33l.03-.07c0-.08-.01-.2-.03-.33l.03-.07c0-.08-.01-.2-.03-.33l.03-.07c0-.5-.3-1.85-.9-4.06.59-.64.9-1.39.9-2.28,0-.1,0-.21,0-.31,0-.03,0-.06,0-.09,0-.1,0-.21,0-.31,0-.03,0-.06,0-.09,0-.1,0-.21,0-.31,0-.03,0-.06,0-.09,0-.1,0-.21,0-.31,0-.03,0-.06,0-.09,0-.1,0-.21,0-.31,0-.03,0-.06,0-.09,0-.1,0-.21,0-.31,0-.03,0-.06,0-.09,0-.1,0-.21,0-.31,0-.03,0-.06,0-.09,0-.1,0-.21,0-.31,0-.03,0-.06,0-.09,0-.1,0-.21,0-.31,0-.03,0-.06,0-.09,0-.1,0-.21,0-.31,0-.03,0-.06,0-.09,0-.1,0-.21,0-.31,0-.03,0-.06,0-.09,0-.1,0-.21,0-.31,0-.03,0-.06,0-.09,0-.1,0-.21,0-.31,0-.03,0-.06,0-.09,0-.1,0-.21,0-.31,0-.03,0-.06,0-.09,0-.1,0-.21,0-.31,0-.03,0-.06,0-.09,0-.1,0-.21,0-.31,0-.03,0-.06,0-.09,0-.1,0-.21,0-.31,0-.03,0-.06,0-.09,0-.1,0-.21,0-.31,0-.03,0-.06,0-.09,0-.1,0-.21,0-.31,0-.03,0-.06,0-.09,0-.1,0-.21,0-.31,0-.03,0-.06,0-.09,0-.1,0-.21,0-.31,0-.03,0-.06,0-.09,0-.1,0-.21,0-.31,0-.03,0-.06,0-.09,0-.1,0-.21,0-.31,0-.03,0-.06,0-.09,0-.1,0-.21,0-.31,0-.03,0-.06,0-.09,0-.1,0-.21,0-.31,0-.03,0-.06,0-.09,0-.1,0-.21,0-.31,0-.03,0-.06,0-.09,0-.1,0-.21,0-.31,0-.03,0-.06,0-.09,0-.1,0-.21,0-.31,0-.03,0-.06,0-.09,0-.1,0-.21,0-.31,0-.03,0-.06,0-.09,0-.1,0-.21,0-.31,0-.03,0-.06,0-.09,0-.1,0-.21,0-.31,0-.03,0-.06,0-.09,0-2.56-.64-6.05-1.92-10.47-.78-2.81-1.65-5.49-2.62-8.03-2.46-.27-5.08-.68-7.85-1.22-5.35-1.05-8.72-1.57-10.12-1.57-1.86,0-3.78.29-5.76.87-1.98.58-3.08.87-3.32.87-3.14-.93-6.34-1.8-9.6-2.62-6.4-1.86-10-2.79-10.82-2.79-2.33-.12-4.13-.29-5.41-.52-2.33-.23-3.96-.76-4.89-1.57-1.51-1.74-2.5-2.85-2.97-3.32-.93-.93-2.33-1.4-4.19-1.4-.93,0-2.15.23-3.66.7-1.4.47-2.79.7-4.19.7l-9.25-.87c-2.33,0-5.35.41-9.07,1.22-3.84.81-5.87,1.22-6.11,1.22-1.74,0-4.71-.76-8.9-2.27-4.3-1.63-7.97-2.44-10.99-2.44h-8.38c-.85,1.04-1.73,2.03-2.62,2.97.02.12.02.24.03.36-.01.01-.02.02-.03.04.02.12.02.24.03.36-.01.01-.02.02-.03.04.02.12.02.24.03.36-.01.01-.02.02-.03.04.02.12.02.24.03.36-.01.01-.02.02-.03.04.02.12.02.24.03.36-.01.01-.02.02-.03.04.01.06,0,.12.02.18-.38,2.39-2.12,4.75-5.25,7.08-4.19,3.26-6.16,6.51-5.93,9.77,0,0,0,.01,0,.02,0,.13-.01.25,0,.38,0,0,0,.02,0,.02,0,.13-.01.25,0,.38,0,0,0,.01,0,.02,0,.13-.01.25,0,.38,0,0,0,.01,0,.02,0,.13-.01.25,0,.38,0,0,0,.01,0,.02,0,.13-.01.25,0,.38,0,0,0,.02,0,.02,0,.13-.01.25,0,.38,0,0,0,.02,0,.02,0,.13-.01.25,0,.38,0,0,0,.01,0,.02,0,.13-.01.25,0,.38,0,0,0,.01,0,.02,0,.13-.01.25,0,.38,0,0,0,.02,0,.02,0,.13-.01.25,0,.38,0,0,0,.01,0,.02,0,.02,0,.04,0,.05-.5,1.88-1.65,3.89-3.49,6.07-3.61,4.19-5.41,7.15-5.41,8.9,0,.08.01.17.02.25,0,.05-.02.1-.02.15,0,.08.01.17.02.25,0,.05-.02.1-.02.15,0,.08.01.17.02.25,0,.05-.02.1-.02.15,0,.08.01.17.02.25,0,.05-.02.1-.02.15,0,.08.01.17.02.25,0,.05-.02.1-.02.15,0,.08.01.17.02.25,0,.05-.02.1-.02.15,0,.08.01.17.02.25,0,.05-.02.1-.02.14,0,.08.01.17.02.25,0,.05-.02.1-.02.14,0,.08.01.17.02.25,0,.05-.02.1-.02.15,0,.08.01.17.02.25,0,.05-.02.1-.02.15,0,.08.01.17.02.25,0,.05-.02.1-.02.15,0,.08.01.17.02.25,0,.05-.02.1-.02.15,0,.08.01.17.02.25,0,.05-.02.1-.02.15,0,.08.01.17.02.25,0,.05-.02.1-.02.15,0,.08.01.17.02.25,0,.05-.02.1-.02.15,0,.08.01.17.02.25,0,.05-.02.1-.02.15,0,.08.01.17.02.25,0,.05-.02.1-.02.15,0,.08.01.17.02.25,0,.05-.02.1-.02.15,0,.08.01.17.02.25,0,.05-.02.1-.02.15,0,.08.01.17.02.25,0,.05-.02.1-.02.14,0,.08.01.17.02.25,0,.05-.02.1-.02.14,0,.08.01.17.02.25,0,.05-.02.1-.02.15,0,.08.01.17.02.25,0,.05-.02.1-.02.15,0,.08.01.17.02.25,0,.05-.02.1-.02.15,0,.08.01.17.02.25,0,.05-.02.1-.02.15,0,.08.01.17.02.25,0,.05-.02.1-.02.15,0,.08.01.17.02.25,0,.05-.02.1-.02.15,0,.08.01.17.02.25,0,.05-.02.1-.02.14,0,.08.01.17.02.25,0,.05-.02.1-.02.14,0,.08.01.17.02.25,0,.05-.02.1-.02.15,0,.08.01.17.02.25,0,.05-.02.1-.02.15,0,.21.02.42.04.64-.85,2.34-1.97,5.34-3.36,9.01-3.72,9.42-5.58,15.53-5.58,18.32,0,.06,0,.13,0,.2,0,.07,0,.14,0,.2,0,.06,0,.13,0,.2,0,.07,0,.14,0,.2,0,.06,0,.13,0,.2,0,.07,0,.14,0,.2,0,.06,0,.13,0,.2,0,.07,0,.14,0,.2,0,.06,0,.13,0,.2,0,.07,0,.14,0,.2,0,.06,0,.13,0,.2,0,.07,0,.14,0,.2,0,.06,0,.13,0,.2,0,.07,0,.14,0,.2,0,.06,0,.13,0,.2,0,.07,0,.14,0,.2,0,.06,0,.13,0,.2,0,.07,0,.14,0,.2,0,.06,0,.13,0,.2,0,.07,0,.14,0,.2,0,.06,0,.13,0,.2,0,.07,0,.14,0,.2,0,.06,0,.13,0,.2,0,.07,0,.14,0,.2,0,.06,0,.13,0,.2,0,.07,0,.14,0,.2,0,.06,0,.13,0,.2,0,.07,0,.14,0,.2,0,.06,0,.13,0,.2,0,.07,0,.14,0,.2,0,.06,0,.13,0,.2,0,.07,0,.14,0,.2,0,.06,0,.13,0,.2,0,.07,0,.14,0,.2,0,.06,0,.13,0,.2,0,.07,0,.14,0,.2,0,.06,0,.13,0,.2,0,.07,0,.14,0,.2,0,.06,0,.13,0,.2,0,.07,0,.14,0,.2,0,.06,0,.13,0,.2,0,.07,0,.14,0,.2,0,.06,0,.13,0,.2,0,.07,0,.14,0,.2,0,.06,0,.13,0,.2,0,.07,0,.14,0,.2,0,.06,0,.13,0,.2,0,.07,0,.14,0,.2,0,.06,0,.13,0,.2,0,.07,0,.14,0,.2,0,.06,0,.13,0,.2,0,.07,0,.14,0,.2,0,.06,0,.13,0,.2,0,.07,0,.14,0,.2,0,.06,0,.13,0,.2,0,.07,0,.14,0,.2,0,.06,0,.13,0,.2,0,.07,0,.14,0,.2,0,.06,0,.13,0,.2,0,.07,0,.14,0,.2,0,.06,0,.13,0,.2,0,.07,0,.14,0,.2,0,1.12.6,4.25,1.8,9.4l-2.15-.27c-.96,0-1.84.41-2.62,1.22.11.03.22.07.34.1-.11.1-.23.18-.34.3.11.03.22.07.34.1-.11.1-.23.18-.34.3.11.03.22.07.34.1-.11.1-.23.18-.34.3.11.03.22.07.34.1-.11.1-.23.18-.34.3.11.03.22.07.34.1-.11.1-.23.18-.34.3.11.03.22.07.34.1-.11.1-.23.18-.34.3.12.03.22.07.34.1-.11.1-.23.18-.34.3.12.03.22.07.34.1-.11.1-.23.18-.34.3.12.03.22.07.34.1-.11.1-.23.18-.34.3.12.03.22.07.34.1-.11.1-.23.18-.34.3.12.03.22.07.34.1-.11.1-.23.18-.34.3.12.03.22.07.34.1-.11.1-.23.18-.34.3.12.03.22.07.34.1-.11.1-.23.18-.34.3.12.03.22.07.34.1-.11.1-.23.18-.34.3.12.03.22.07.34.1-.11.1-.23.18-.34.3.12.03.22.07.34.1-.11.1-.23.18-.34.3.12.03.22.07.34.1-.11.1-.23.18-.34.3.12.03.22.07.34.1-.11.1-.23.18-.34.3.12.03.22.07.34.1-.11.1-.23.18-.34.3.12.03.22.07.34.1-.11.1-.23.18-.34.3.12.03.22.07.34.1-.11.1-.23.18-.34.3.12.03.22.07.34.1-.11.1-.23.18-.34.3.12.03.22.07.34.1-.11.1-.23.18-.34.3.12.03.22.07.34.1-.11.1-.23.18-.34.3.11.03.22.07.34.1-.11.1-.23.18-.34.3.11.03.22.07.34.1-.11.1-.23.18-.34.3.11.03.22.07.34.1-.11.1-.23.18-.34.3.11.03.22.07.34.1-.11.1-.23.18-.34.3.11.03.22.07.34.1-.11.1-.23.18-.34.3.11.03.22.07.34.1-.11.1-.23.18-.34.3.11.03.22.07.34.1-.11.1-.23.18-.34.3,3.22.87,6.13,1.98,8.72,3.32,3.26,1.63,5.06,2.44,5.41,2.44.58,0,1.69-.29,3.32-.87,1.28,0,4.19.76,8.72,2.27,4.54,1.51,7.04,2.27,7.5,2.27,2.68,0,4.07-2.33,4.19-6.98,0-4.65,1.16-6.98,3.49-6.98,1.28,0,2.09.47,2.44,1.4.23.81.64,1.22,1.22,1.22,1.75,0,2.85-1.05,3.32-3.14.58-2.56,1.4-4.07,2.44-4.54,2.33-1.16,3.78-2.04,4.36-2.62.96-.77,1.4-1.62,1.33-2.55.01-.13.01-.26,0-.4,0-.06.01-.13.01-.19h2.85c.58,1.05,1.45,1.57,2.62,1.57,1.86-1.74,3.78-3.55,5.76-5.41,3.84-3.61,6.69-5.47,8.55-5.58,3.49-.23,5.87-2.21,7.15-5.93,1.16-3.72,2.68-5.58,4.54-5.58,1.16,0,2.73.64,4.71,1.92,2.09,1.28,3.84,1.92,5.24,1.92l4.19-2.09c2.68-1.4,4.89-2.09,6.63-2.09,4.3,0,7.1,1.16,8.38,3.49,2.33,3.72,4.6,6.34,6.81,7.85,1.74,1.16,5.7,2.73,11.87,4.71,2.56,1.16,4.77,2.56,6.63,4.19.7.58,2.44.87,5.23.87,4.54,0,7.39-.76,8.55-2.27,1.16-1.63,3.02-2.44,5.58-2.44,1.28,0,2.09.7,2.44,2.09.12.81.35,2.15.7,4.01h2.97c2.33-.93,3.61-1.4,3.84-1.4,2.33,0,4.89.7,7.68,2.09,3.72.7,6.17.7,7.33,0,1.28-.7,1.92-2.04,1.92-4.01v-.08c0-.1,0-.2,0-.31v-.08c0-.11,0-.2,0-.31v-.08c0-.1,0-.2,0-.31v-.08c0-.1,0-.2,0-.31v-.08c0-.1,0-.2,0-.31v-.08c0-.1,0-.2,0-.31v-.08c0-.1,0-.2,0-.31v-.08c0-.1,0-.2,0-.31v-.08c0-.1,0-.2,0-.31v-.08c0-.11,0-.2,0-.31v-.08c0-.1,0-.2,0-.31v-.08c0-.11,0-.2,0-.31v-.08c0-.1,0-.2,0-.31v-.08c0-.1,0-.2,0-.31v-.08c0-.1,0-.2,0-.31v-.08c0-.1,0-.2,0-.31v-.08c0-.1,0-.2,0-.31v-.08c0-.1,0-.2,0-.31v-.08c0-.1,0-.2,0-.31v-.08c0-.1,0-.2,0-.31v-.08c0-.1,0-.2,0-.31v-.08c0-.1,0-.2,0-.31v-.07c.07-.34.14-.66.17-.95.12-.35.17-.64.17-.87-.01-.03-.02-.06-.03-.09.02-.11.03-.22.03-.31-.01-.03-.02-.06-.03-.09.02-.11.03-.22.03-.31-.01-.03-.02-.06-.03-.09.02-.11.03-.22.03-.31-.01-.03-.02-.06-.03-.09.02-.11.03-.22.03-.31-.01-.03-.02-.06-.03-.09.02-.11.03-.22.03-.31-.01-.03-.02-.06-.03-.09.02-.11.03-.22.03-.31-.01-.03-.02-.06-.03-.09.02-.11.03-.22.03-.31-.01-.03-.02-.06-.03-.09.02-.11.03-.22.03-.31-.01-.03-.02-.06-.03-.09.02-.11.03-.22.03-.31-.01-.03-.02-.06-.03-.09.02-.11.03-.22.03-.31-.01-.03-.02-.06-.03-.09.02-.11.03-.22.03-.31-.01-.03-.02-.06-.03-.09.02-.11.03-.22.03-.31-.01-.03-.02-.06-.03-.09.02-.11.03-.22.03-.31-.01-.03-.02-.06-.03-.09.02-.11.03-.22.03-.31-.01-.03-.02-.06-.03-.09.02-.11.03-.22.03-.31-.01-.03-.02-.06-.03-.09.02-.11.03-.22.03-.31-.01-.03-.02-.06-.03-.09.02-.11.03-.22.03-.31-.01-.03-.02-.06-.03-.09.02-.11.03-.22.03-.31-.01-.03-.02-.06-.03-.09.02-.11.03-.22.03-.31-.01-.03-.02-.06-.03-.09.02-.11.03-.22.03-.31-.01-.03-.02-.06-.03-.09.02-.11.03-.22.03-.31-.01-.03-.02-.06-.03-.09.02-.11.03-.22.03-.31-.01-.03-.02-.06-.03-.09.02-.11.03-.22.03-.31-.01-.03-.02-.06-.03-.09.02-.11.03-.22.03-.31-.01-.03-.02-.06-.03-.09.02-.11.03-.22.03-.31-.01-.03-.02-.06-.03-.09.02-.11.03-.22.03-.31-.01-.03-.02-.06-.03-.09.02-.11.03-.22.03-.31-.01-.03-.02-.06-.03-.09.02-.11.03-.22.03-.31-.01-.03-.02-.06-.03-.09.02-.11.03-.22.03-.31-.01-.03-.02-.06-.03-.09.02-.11.03-.22.03-.31-.01-.03-.02-.06-.03-.09Z"/>
  <path class="st0" d="M164.54,33.5c0-2.56-.64-6.05-1.92-10.47-.78-2.81-1.65-5.49-2.62-8.03-2.46-.27-5.08-.68-7.85-1.22-5.35-1.05-8.72-1.57-10.12-1.57-1.86,0-3.78.29-5.76.87-1.98.58-3.08.87-3.32.87-3.14-.93-6.34-1.8-9.6-2.62-6.4-1.86-10-2.79-10.82-2.79-2.33-.12-4.13-.29-5.41-.52-2.33-.23-3.96-.76-4.89-1.57-1.51-1.74-2.5-2.85-2.97-3.32-.93-.93-2.33-1.4-4.19-1.4-.93,0-2.15.23-3.66.7-1.4.47-2.79.7-4.19.7l-9.25-.87c-2.33,0-5.35.41-9.07,1.22-3.84.81-5.87,1.22-6.11,1.22-1.75,0-4.71-.76-8.9-2.27C49.61.81,45.95,0,42.92,0h-8.38c-.85,1.04-1.73,2.03-2.62,2.97.58,3.14-1.16,6.22-5.23,9.25-4.19,3.26-6.16,6.51-5.93,9.77.93,2.91-.23,6.28-3.49,10.12-3.61,4.19-5.41,7.15-5.41,8.9,0,1.28.35,2.56,1.05,3.84.7,1.28,1.05,2.27,1.05,2.97,0,.58-1.8,5.64-5.41,15.18-3.72,9.42-5.58,15.53-5.58,18.32,0,1.52,1.1,6.75,3.32,15.7,1.51,1.28,2.27,2.5,2.27,3.66,0,1.63-1.05,2.44-3.14,2.44l-2.79-.35c-.96,0-1.84.41-2.62,1.22,3.22.87,6.13,1.98,8.72,3.32,3.26,1.63,5.06,2.44,5.41,2.44.58,0,1.69-.29,3.32-.87,1.28,0,4.19.76,8.72,2.27,4.54,1.51,7.04,2.27,7.5,2.27,2.68,0,4.07-2.33,4.19-6.98,0-4.65,1.16-6.98,3.49-6.98,1.28,0,2.09.47,2.44,1.4.23.81.64,1.22,1.22,1.22,1.74,0,2.85-1.05,3.32-3.14.58-2.56,1.4-4.07,2.44-4.54,2.33-1.16,3.78-2.04,4.36-2.62,1.16-.93,1.57-1.98,1.22-3.14h2.97c.58,1.05,1.45,1.57,2.62,1.57,1.86-1.74,3.78-3.55,5.76-5.41,3.84-3.61,6.69-5.47,8.55-5.58,3.49-.23,5.87-2.21,7.15-5.93,1.16-3.72,2.68-5.58,4.54-5.58,1.16,0,2.73.64,4.71,1.92,2.09,1.28,3.84,1.92,5.23,1.92l4.19-2.09c2.68-1.4,4.89-2.09,6.63-2.09,4.3,0,7.1,1.16,8.38,3.49,2.33,3.72,4.6,6.34,6.81,7.85,1.74,1.16,5.7,2.73,11.87,4.71,2.56,1.16,4.77,2.56,6.63,4.19.7.58,2.44.87,5.23.87,4.54,0,7.39-.76,8.55-2.27,1.16-1.63,3.02-2.44,5.58-2.44,1.28,0,2.09.7,2.44,2.09.12.81.35,2.15.7,4.01h2.97c2.33-.93,3.61-1.4,3.84-1.4,2.33,0,4.89.7,7.68,2.09,3.72.7,6.17.7,7.33,0,1.28-.7,1.92-2.04,1.92-4.01l-.87-5.58c0-.58.23-1.45.7-2.62.18-.59.29-1.11.35-1.57.12-.35.17-.64.17-.87-1.28-3.61-2.85-5.47-4.71-5.58.58,1.74.12,2.73-1.4,2.97-2.56.35-3.9.58-4.01.7-.23.12-1.11,1.16-2.62,3.14-1.16,1.63-2.33,2.44-3.49,2.44-1.74,0-3.61-1.28-5.58-3.84-1.98-2.56-3.26-3.84-3.84-3.84-1.4.23-2.38.35-2.97.35-1.16,0-1.74-.64-1.74-1.92,0-1.4.99-4.83,2.97-10.29l2.97-7.85c0-.58-.41-2.33-1.22-5.23-.93-2.79-1.4-5.06-1.4-6.81,0-1.98.47-3.32,1.4-4.01.81-.7,1.22-1.57,1.22-2.62"/>
</svg>