<?xml version="1.0" encoding="UTF-8"?>
<svg id="_圖層_1" data-name="圖層_1" xmlns="http://www.w3.org/2000/svg" version="1.1" viewBox="0 0 225 293">
  <!-- Generator: Adobe Illustrator 29.8.3, SVG Export Plug-In . SVG Version: 2.1.1 Build 3)  -->
  <defs>
    <style>
      .st0 {
        fill: #7dbeb1;
        stroke: #ebede7;
        stroke-miterlimit: 10;
      }

      .st1 {
        fill: #077383;
      }
    </style>
  </defs>
  <path class="st1" d="M224.89,13.59c0-.05.03-.11.03-.16l-.35-3.84c-.33-.99-.68-1.92-1.05-2.79-.18-.43-.41-.84-.7-1.22-1.01-1.98-2.34-2.97-4.01-2.97l-8.2.87c-2.79,0-4.71-.58-5.76-1.75-1.16-1.16-2.15-1.75-2.97-1.75-2.56,0-3.9,1.22-4.01,3.66,0,2.44-.87,3.66-2.62,3.66-1.05,0-1.98-.17-2.79-.52-.7-.35-1.63-.52-2.79-.52-1.05,0-2.79.58-5.23,1.74-2.44,1.16-4.13,1.74-5.06,1.74-1.63,0-2.97-.35-4.01-1.05-1.16-.7-2.21-1.05-3.14-1.05-.7,0-2.15,1.34-4.36,4.01-2.21,2.68-4.07,4.01-5.58,4.01-5-.81-7.97-1.22-8.9-1.22-1.86,0-2.97.12-3.32.35.05.14.1.27.15.4-.06.02-.11.05-.15.08.05.14.1.27.15.4-.06.02-.11.05-.15.08.05.14.1.27.15.4-.06.02-.11.05-.15.08.05.14.1.27.15.4-.06.02-.11.05-.15.08.05.14.1.27.15.4-.06.02-.11.05-.15.08.05.14.1.27.15.4-.06.02-.11.05-.15.08.05.14.1.27.15.4-.06.02-.11.05-.15.08.05.14.1.27.15.4-.06.02-.11.05-.15.08.04.1.07.2.11.29-.91,1.04-2.62,2.35-5.17,3.92-3.01,1.84-5.33,3.23-6.98,4.19-3.89,2.09-5.98,3.14-6.28,3.14-6.28,0-10.24,1.86-11.87,5.58-1.63,3.61-3.72,5.41-6.28,5.41-.93-.93-1.8-1.4-2.62-1.4-1.4,0-3.78,1.05-7.15,3.14-3.37,2.09-5.47,3.14-6.28,3.14s-2.33-.41-4.54-1.22c-2.09-.81-3.26-1.22-3.49-1.22-2.56,0-3.84,1.51-3.84,4.54.12,2.91-.81,4.36-2.79,4.36-1.05,0-1.62-.64-1.73-1.9,0-.1,0-.2,0-.3,0-.16,0-.32,0-.48,0-.16,0-.32,0-.48.04-1.76-.42-2.81-1.4-3.13-1.63-.58-2.97-1.51-4.01-2.79-.93-1.05-2.27-1.57-4.01-1.57-1.28,0-2.44,1.63-3.49,4.89-.76,2.47-1.13,4.47-1.11,6.01,0,.17,0,.34,0,.5,0,.17,0,.32,0,.48,0,.17,0,.32,0,.48,0,.06,0,.11,0,.16-.27,1.08-1.46,2.21-3.6,3.37-3.26,1.63-5.18,2.85-5.76,3.66l-2.97,11.87c-1.51,6.51-4.07,9.77-7.68,9.77-3.72-1.4-6.22-2.09-7.5-2.09l-8.72.7c-3.95,0-6.81-.58-8.55-1.75-2.76-1.89-4.85-3.29-6.28-4.19-1.65,2.03-3.63,3.48-5.93,4.36l-5.06,1.92c0,.14.02.3.05.46l-.05.02c0,.14.02.3.05.46l-.05.02c0,.14.02.3.05.46l-.05.02c0,.14.02.3.05.46l-.05.02c0,.14.02.3.05.46l-.05.02c0,.14.02.3.05.46l-.05.02c0,.14.02.3.05.46l-.05.02c0,.14.02.3.05.46l-.05.02c0,.14.02.3.05.46l-.05.02c0,.14.02.3.05.46l-.05.02c0,.14.02.3.05.46l-.05.02c0,.14.02.3.05.46l-.05.02c0,.14.02.3.05.46l-.05.02c0,.14.02.3.05.46l-.05.02c0,.14.02.3.05.46l-.05.02c0,.14.02.3.05.46l-.05.02c0,.14.02.3.05.46l-.05.02c0,.14.02.3.05.46l-.05.02c0,.14.02.3.05.46l-.05.02c0,.14.02.3.05.46l-.05.02c0,.14.02.3.05.46l-.05.02c0,.87.62,2.1,1.84,3.69-.96,1.04-1.75,2.17-2.37,3.41-.93,1.74-1.4,3.49-1.4,5.23,0,.11,0,.27,0,.4,0,.03,0,.05,0,.08,0,.11,0,.27,0,.4,0,.03,0,.05,0,.08,0,.11,0,.27,0,.4,0,.03,0,.05,0,.08,0,.11,0,.27,0,.4,0,.03,0,.05,0,.08,0,.11,0,.27,0,.4,0,.03,0,.05,0,.08,0,.11,0,.27,0,.4,0,.03,0,.05,0,.08,0,.11,0,.27,0,.4,0,.03,0,.05,0,.08,0,.11,0,.27,0,.4,0,.03,0,.05,0,.08,0,.11,0,.27,0,.4,0,.03,0,.05,0,.08,0,.11,0,.27,0,.4,0,.03,0,.05,0,.08,0,.11,0,.27,0,.4,0,.03,0,.05,0,.08,0,.11,0,.27,0,.4,0,.03,0,.05,0,.08,0,.11,0,.27,0,.4,0,.03,0,.05,0,.08,0,.11,0,.27,0,.4,0,.03,0,.05,0,.08,0,.11,0,.27,0,.4,0,.03,0,.05,0,.08,0,.11,0,.27,0,.4,0,.03,0,.05,0,.08,0,.11,0,.27,0,.4,0,.03,0,.05,0,.08,0,.11,0,.27,0,.4,0,.03,0,.05,0,.08,0,.11,0,.27,0,.4,0,.03,0,.05,0,.08,0,.12,0,.27,0,.4,0,.03,0,.05,0,.08,0,.07,0,.16,0,.24-.05.97-.11,2.03-.17,3.2-.05.92-.11,1.88-.18,2.92-.12,3.02-.58,5.35-1.4,6.98C.47,128.72,0,130.34,0,132.09c0,.03.02.08.02.11,0,.12-.02.24-.02.36,0,.03.02.08.02.11,0,.12-.02.24-.02.36,0,.03.02.08.02.11,0,.12-.02.24-.02.36,0,.03.02.08.02.11,0,.12-.02.24-.02.36,0,.03.02.08.02.11,0,.12-.02.24-.02.36,0,.03.02.08.02.11,0,.12-.02.24-.02.36,0,.03.02.08.02.11,0,.12-.02.24-.02.36,0,.03.02.08.02.11,0,.12-.02.24-.02.36,0,.03.02.08.02.11,0,.12-.02.24-.02.36,0,.03.02.08.02.11,0,.12-.02.24-.02.36,0,.03.02.08.02.11,0,.12-.02.24-.02.36,0,.03.02.08.02.11,0,.12-.02.24-.02.36,0,.03.02.08.02.11,0,.12-.02.24-.02.36,0,.03.02.08.02.11,0,.12-.02.24-.02.36,0,.03.02.08.02.11,0,.12-.02.24-.02.36,0,.03.02.08.02.11,0,.12-.02.24-.02.36,0,.03.02.08.02.11,0,.12-.02.24-.02.36,0,.03.02.08.02.11,0,.12-.02.24-.02.36,0,.03.02.08.02.11,0,.12-.02.24-.02.36,0,.03.02.08.02.11,0,.12-.02.24-.02.36,0,.03.02.08.02.11,0,.12-.02.24-.02.36,0,.7,1.45,2.56,4.36,5.58,2.26,2.44,3.63,4,4.14,4.68-.84-.05-1.69-.11-2.57-.2.06.16.11.33.17.49-.06,0-.11,0-.17-.01.06.16.11.33.17.49-.06,0-.11,0-.17-.01.06.16.11.33.17.49-.06,0-.11,0-.17-.01.06.16.11.33.17.49-.06,0-.11,0-.17-.01.06.16.11.33.17.49-.06,0-.11,0-.17-.01.06.16.11.33.17.49-.06,0-.11,0-.17-.01.06.16.11.33.17.49-.06,0-.11,0-.17-.01.06.16.11.33.17.49-.06,0-.11,0-.17-.01.06.16.11.33.17.49-.06,0-.11,0-.17-.01.06.16.11.33.17.49-.06,0-.11,0-.17-.01.06.16.11.33.17.49-.06,0-.11,0-.17-.01.06.16.11.33.17.49-.06,0-.11,0-.17-.01.06.16.11.33.17.49-.06,0-.11,0-.17-.01.06.16.11.33.17.49-.06,0-.11,0-.17-.01.06.16.11.33.17.49-.06,0-.11,0-.17-.01.06.16.11.33.17.49-.06,0-.11,0-.17-.01.06.16.11.33.17.49-.06,0-.11,0-.17-.01.06.16.11.33.17.49-.06,0-.11,0-.17-.01.06.16.11.33.17.49-.06,0-.11,0-.17-.01.06.16.11.33.17.49-.06,0-.11,0-.17-.01.06.16.11.33.17.49-.06,0-.11,0-.17-.01.96,2.54,1.84,5.21,2.62,8.03.3,1.05.57,2.04.8,2.98-.04.03-.06.07-.1.11-.93.7-1.4,2.04-1.4,4.01,0,.05,0,.11,0,.16,0,.11,0,.21,0,.32,0,.05,0,.11,0,.16,0,.11,0,.21,0,.32,0,.05,0,.11,0,.16,0,.11,0,.21,0,.32,0,.05,0,.11,0,.16,0,.11,0,.21,0,.32,0,.05,0,.11,0,.16,0,.11,0,.21,0,.32,0,.05,0,.11,0,.16,0,.11,0,.21,0,.32,0,.05,0,.11,0,.16,0,.11,0,.21,0,.32,0,.05,0,.11,0,.16,0,.11,0,.21,0,.32,0,.05,0,.11,0,.16,0,.11,0,.21,0,.32,0,.05,0,.11,0,.16,0,.11,0,.21,0,.32,0,.05,0,.11,0,.16,0,.11,0,.21,0,.32,0,.05,0,.11,0,.16,0,.11,0,.21,0,.32,0,.05,0,.11,0,.16,0,.11,0,.21,0,.32,0,.05,0,.11,0,.16,0,.11,0,.21,0,.32,0,.05,0,.11,0,.16,0,.11,0,.21,0,.32,0,.05,0,.11,0,.16,0,.11,0,.21,0,.32,0,.05,0,.11,0,.16,0,.11,0,.21,0,.32,0,.05,0,.11,0,.16,0,.11,0,.21,0,.32,0,.05,0,.11,0,.16,0,.11,0,.21,0,.32,0,.05,0,.11,0,.16,0,.11,0,.21,0,.32,0,.05,0,.11,0,.16,0,.11,0,.21,0,.32,0,1.56.39,3.56,1.14,5.96l-1.49,3.93c-1.98,5.47-2.97,8.9-2.97,10.29,0,.09,0,.18.02.26,0,.07-.02.15-.02.21,0,.09,0,.18.02.26,0,.07-.02.15-.02.21,0,.09,0,.18.02.26,0,.07-.02.15-.02.21,0,.09,0,.18.02.26,0,.07-.02.15-.02.21,0,.09,0,.18.02.26,0,.07-.02.15-.02.21,0,.09,0,.18.02.26,0,.07-.02.15-.02.21,0,.09,0,.18.02.26,0,.07-.02.15-.02.21,0,.09,0,.18.02.26,0,.07-.02.15-.02.21,0,.09,0,.18.02.26,0,.07-.02.15-.02.21,0,.09,0,.18.02.26,0,.07-.02.15-.02.21,0,.09,0,.18.02.26,0,.07-.02.15-.02.21,0,.09,0,.18.02.26,0,.07-.02.15-.02.21,0,.09,0,.18.02.26,0,.07-.02.15-.02.21,0,.09,0,.18.02.26,0,.07-.02.15-.02.21,0,.09,0,.18.02.26,0,.07-.02.15-.02.21,0,.09,0,.18.02.26,0,.07-.02.15-.02.21,0,.09,0,.18.02.26,0,.07-.02.15-.02.21,0,.09,0,.18.02.26,0,.07-.02.15-.02.21,0,.09,0,.18.02.26,0,.07-.02.15-.02.21,0,.09,0,.18.02.26,0,.07-.02.15-.02.21,0,.09,0,.18.02.26,0,.07-.02.15-.02.21,0,1.28.58,1.92,1.74,1.92.58,0,1.57-.12,2.97-.35.58,0,1.86,1.28,3.84,3.84,1.98,2.56,3.84,3.84,5.58,3.84,1.16,0,2.33-.81,3.49-2.44,1.51-1.98,2.38-3.02,2.62-3.14.12-.12,1.45-.35,4.01-.7,1.18-.18,1.72-.83,1.62-1.94.01-.15.02-.31,0-.48.01-.15.02-.31,0-.48,0,0,0-.02,0-.03,1.71.24,3.17,1.99,4.37,5.25-.02.07-.03.14-.06.22.04,0,.09-.03.13-.04,0,0,0,0,0,0-.03.15-.07.32-.13.5.04,0,.09-.03.13-.04-.03.15-.07.32-.13.51.62-.14,1.26-.31,1.92-.52,1.28-.47,2.38-.7,3.32-.7,1.4,0,2.73.76,4.01,2.27,1.4,1.51,2.79,2.38,4.19,2.62.7.12,2.27.12,4.71,0,2.09,0,3.84.12,5.24.35,2.18.38,3.75,1.73,4.73,4.02-.57.61-1.32,1.23-2.29,1.86-2.33,1.51-3.49,2.5-3.49,2.97,0,.09.03.2.05.3-.03.07-.05.13-.05.18,0,.09.03.2.05.3-.03.07-.05.13-.05.18,0,.09.03.2.05.3-.03.07-.05.13-.05.18,0,.09.03.2.05.3-.03.07-.05.13-.05.18,0,.09.03.2.05.3-.03.07-.05.13-.05.18,0,.09.03.2.05.3-.03.07-.05.13-.05.18,0,.09.03.2.05.3-.03.07-.05.13-.05.18,0,.09.03.2.05.3-.03.07-.05.13-.05.18,0,.09.03.2.05.3-.03.07-.05.13-.05.18,0,.09.03.2.05.3-.03.07-.05.13-.05.18,0,.09.03.2.05.3-.03.07-.05.13-.05.18,0,.09.03.2.05.3-.03.07-.05.13-.05.18,0,.09.03.2.05.3-.03.07-.05.13-.05.18,0,.09.03.2.05.3-.03.07-.05.13-.05.18,0,.09.03.2.05.3-.03.07-.05.13-.05.18,0,.09.03.2.05.3-.03.07-.05.13-.05.18,0,.09.03.2.05.3-.03.07-.05.13-.05.18,0,.09.03.2.05.3-.03.07-.05.13-.05.18,0,.09.03.2.05.3-.03.07-.05.13-.05.18,0,.09.03.2.05.3-.03.07-.05.13-.05.18,0,.09.03.2.05.3-.03.07-.05.13-.05.18,0,1.05,1.51,2.97,4.54,5.76,1.39,1.39,2.32,2.87,2.8,4.42,0,.03,0,.07.01.1,0,.16,0,.32,0,.48,0,.16,0,.32,0,.48,0,.16,0,.32,0,.48,0,.16,0,.32,0,.48,0,.16,0,.32,0,.48,0,.16,0,.32,0,.48,0,.16,0,.32,0,.48,0,.16,0,.32,0,.48,0,.16,0,.32,0,.48,0,.16,0,.32,0,.48,0,.16,0,.32,0,.48,0,.13-.02.26-.01.38-.08,1.86.72,3.59,2.44,5.22,1.98,1.98,4.36,2.79,7.15,2.44,6.98-1.05,13.38-.99,19.19.17,2.25.45,4.56,1.11,6.93,1.97,7.11,1.59,14.48,2.91,18.82,7.26,3.4,4.08,4.95,8.61,8.11,12.67,1.49-1.25,2.26-1.99,2.26-2.18,0-.14-.02-.28-.02-.41,0-.02.02-.05.02-.06,0-.14-.02-.28-.02-.41,0-.02.02-.05.02-.06,0-.14-.02-.28-.02-.41,0-.02.02-.05.02-.06,0-.14-.02-.28-.02-.41,0-.02.02-.05.02-.06,0-.14-.02-.28-.02-.41,0-.02.02-.05.02-.06,0-.14-.02-.28-.02-.41,0-.02.02-.05.02-.06,0-.14-.02-.28-.02-.41,0-.02.02-.05.02-.06,0-.14-.02-.28-.02-.41,0-.02.02-.05.02-.06,0-.14-.02-.28-.02-.41,0-.02.02-.05.02-.06,0-.14-.02-.28-.02-.41,0-.02.02-.05.02-.06,0-.14-.02-.28-.02-.41,0-.02.02-.05.02-.06,0-.14-.02-.28-.02-.41,0-.02.02-.05.02-.06,0-.14-.02-.28-.02-.41,0-.02.02-.05.02-.06,0-.14-.02-.28-.02-.41,0-.02.02-.05.02-.06,0-.14-.02-.28-.02-.41,0-.02.02-.05.02-.06,0-.14-.02-.28-.02-.41,0-.02.02-.05.02-.06,0-.14-.02-.28-.02-.41,0-.02.02-.05.02-.06,0-.14-.02-.28-.02-.41,0-.02.02-.03.02-.05.42-.23.83-.46,1.23-.69,3.95-2.44,5.93-4.71,5.93-6.81,0-.06-.02-.13-.03-.19,0-.1.03-.19.03-.29,0-.06-.02-.13-.03-.19,0-.1.03-.19.03-.29,0-.06-.02-.13-.03-.19,0-.1.03-.19.03-.29,0-.06-.02-.13-.03-.19,0-.1.03-.19.03-.29,0-.06-.02-.13-.03-.19,0-.1.03-.19.03-.29,0-.06-.02-.13-.03-.19,0-.1.03-.19.03-.29,0-.06-.02-.13-.03-.19,0-.1.03-.19.03-.29,0-.06-.02-.13-.03-.19,0-.1.03-.19.03-.29,0-.06-.02-.13-.03-.19,0-.1.03-.19.03-.29,0-.06-.02-.13-.03-.19,0-.1.03-.19.03-.29,0-.06-.02-.13-.03-.19,0-.1.03-.19.03-.29,0-.06-.02-.13-.03-.19,0-.1.03-.19.03-.29,0-.06-.02-.13-.03-.19,0-.1.03-.19.03-.29,0-.06-.02-.13-.03-.19,0-.1.03-.19.03-.29,0-.06-.02-.13-.03-.19,0-.1.03-.19.03-.29,0-.06-.02-.13-.03-.19,0-.1.03-.19.03-.29,0-.06-.02-.13-.03-.19,0-.1.03-.19.03-.29,0-.06-.02-.13-.03-.19,0-.1.03-.19.03-.29,0-.06-.02-.13-.03-.19,0-.1.03-.19.03-.29,0-.05-.02-.11-.03-.16,1.18-1.21,1.77-2.33,1.77-3.36-.01-.04-.02-.07-.03-.1.02-.13.03-.25.03-.37-.01-.04-.02-.07-.03-.1.02-.13.03-.25.03-.37-.01-.04-.02-.07-.03-.1.02-.13.03-.25.03-.37-.01-.04-.02-.07-.03-.1.02-.13.03-.25.03-.37-.01-.04-.02-.07-.03-.1.02-.13.03-.25.03-.37-.01-.04-.02-.07-.03-.1.02-.13.03-.25.03-.37-.01-.04-.02-.07-.03-.1.02-.13.03-.25.03-.37-.01-.04-.02-.07-.03-.1.02-.13.03-.25.03-.37-.01-.04-.02-.07-.03-.1.02-.13.03-.25.03-.37-.01-.04-.02-.07-.03-.1.02-.13.03-.25.03-.37,0,0,0,0,0,0,.87-.94,2.54-1.68,5.06-2.21,1.86-.35,3.84-.58,5.93-.7,2.09,0,4.25.35,6.46,1.05,2.21.58,3.78.87,4.71.87,1.86,0,3.9-2.09,6.11-6.28,1.98-3.72,2.97-6.28,2.97-7.68,0-.05,0-.12-.02-.2,0-.09.02-.19.02-.28,0-.05,0-.12-.02-.21,0-.09.02-.19.02-.27,0-.05,0-.12-.02-.21,0-.09.02-.19.02-.27,0-.05,0-.12-.02-.21,0-.09.02-.19.02-.27,0-.05,0-.12-.02-.21,0-.09.02-.19.02-.27,0-.05,0-.12-.02-.21,0-.09.02-.19.02-.27,0-.05,0-.12-.02-.21,0-.09.02-.19.02-.27,0-.05,0-.12-.02-.21,0-.09.02-.19.02-.27,0-.05,0-.12-.02-.21,0-.09.02-.19.02-.27,0-.05,0-.12-.02-.21,0-.09.02-.19.02-.27,0-.05,0-.12-.02-.21,0-.09.02-.19.02-.27,0-.05,0-.12-.02-.21,0-.09.02-.19.02-.27,0-.05,0-.12-.02-.21,0-.09.02-.19.02-.27,0-.05,0-.12-.02-.21,0-.09.02-.19.02-.27,0-.05,0-.12-.02-.21,0-.09.02-.19.02-.27,0-.05,0-.12-.02-.21,0-.09.02-.19.02-.27,0-.05,0-.12-.02-.21,0-.09.02-.19.02-.27,0-.05,0-.12-.02-.21,0-.09.02-.19.02-.27,0-.05,0-.12-.02-.21,0-.09.02-.19.02-.27,0-.05,0-.12-.02-.21,0-.09.02-.19.02-.27,0-.03,0-.08-.01-.13l4.55,1.62c1.28,0,2.38-.81,3.32-2.44,1.16-2.09,2.09-3.37,2.79-3.84,4.07-2.56,6.22-3.95,6.46-4.19,1.39-1.5,2.38-4.53,2.97-9.07.6-4.57,1.18-7.94,1.75-10.12.68-2.06,1.44-4.74,2.27-8.03.82-3.15,1.23-5.25,1.22-6.28,0-.03-.01-.07-.02-.1,0-.13.02-.26.02-.37,0-.03-.01-.07-.02-.1,0-.14.02-.26.02-.37,0-.03-.01-.07-.02-.1,0-.14.02-.26.02-.37,0-.03-.01-.07-.02-.1,0-.14.02-.26.02-.37,0-.03-.01-.07-.02-.1,0-.14.02-.26.02-.37,0-.03-.01-.07-.02-.1,0-.13.02-.26.02-.37,0-.03-.01-.07-.02-.1,0-.14.02-.26.02-.37,0-.03-.01-.07-.02-.1,0-.14.02-.26.02-.37,0-.03-.01-.07-.02-.1,0-.14.02-.26.02-.37,0-.03-.01-.07-.02-.1,0-.13.02-.26.02-.37,0-.03-.01-.07-.02-.1,0-.13.02-.26.02-.37,0-.03-.01-.07-.02-.1,0-.14.02-.26.02-.37,0-.03-.01-.07-.02-.1,0-.14.02-.26.02-.37,0-.03-.01-.07-.02-.1,0-.14.02-.26.02-.37,0-.03-.01-.07-.02-.1,0-.14.02-.26.02-.37,0-.03-.01-.07-.02-.1,0-.14.02-.26.02-.37,0-.03-.01-.07-.02-.1,0-.14.02-.26.02-.37,0-.03-.01-.07-.02-.1,0-.14.02-.26.02-.37,0-.03-.01-.07-.02-.1,0-.14.02-.26.02-.37,0-.03-.01-.07-.02-.1,0-.13.02-.26.02-.37,0-.03-.01-.07-.01-.1,0-.14.02-.27.01-.38,0-.53-.53-1.7-1.58-3.48,0-.03,0-.06,0-.09,0-.04-.02-.09-.03-.13,0-.11.03-.23.03-.34,0-.04-.02-.09-.03-.13,0-.11.03-.23.03-.34,0-.04-.02-.09-.03-.13,0-.11.03-.23.03-.34,0-.04-.02-.09-.03-.13,0-.11.03-.23.03-.34,0-.04-.02-.09-.03-.13,0-.11.03-.23.03-.34,0-.04-.02-.09-.03-.13,0-.11.03-.23.03-.34,0-.04-.02-.09-.03-.13,0-.11.03-.23.03-.34,0-.04-.02-.09-.03-.13,0-.11.03-.23.03-.34,0-.04-.02-.09-.03-.13,0-.11.03-.23.03-.34,0-.04-.02-.09-.03-.13,0-.11.03-.23.03-.34,0-.04-.02-.09-.03-.13,0-.11.03-.23.03-.34,0-.04-.02-.09-.03-.13,0-.11.03-.23.03-.34,0-.04-.02-.09-.03-.13,0-.11.03-.23.03-.34,0-.04-.02-.09-.03-.13,0-.11.03-.23.03-.34,0-.04-.02-.09-.03-.13,0-.11.03-.23.03-.34,0-.04-.02-.09-.03-.13,0-.11.03-.23.03-.34,0-.04-.02-.09-.03-.13,0-.11.03-.23.03-.34,0-.04-.02-.09-.03-.13,0-.11.03-.23.03-.34,0-.04-.02-.09-.03-.13,0-.11.03-.23.03-.34,0-.04-.02-.09-.03-.13,0-.11.03-.23.03-.34,0-1.01-1.58-2.24-4.72-3.68.99-.58,1.7-1.14,2.1-1.68.81-1.4,1.34-3.08,1.57-5.06.23-2.44.58-4.3,1.05-5.58.7-4.42,1.51-8.03,2.44-10.82.23-.81,1.69-2.15,4.36-4.01,2.56-1.74,3.84-3.02,3.84-3.84,0-.07-.03-.18-.04-.27.02-.07.04-.14.04-.21,0-.07-.03-.18-.04-.27.02-.07.04-.14.04-.21,0-.07-.03-.18-.04-.27.02-.07.04-.14.04-.21,0-.07-.03-.18-.04-.27.02-.07.04-.14.04-.21,0-.07-.03-.18-.04-.27.02-.07.04-.14.04-.21,0-.07-.03-.18-.04-.27.02-.07.04-.14.04-.21,0-.07-.03-.18-.04-.27.02-.07.04-.14.04-.21,0-.07-.03-.18-.04-.27.02-.07.04-.14.04-.21,0-.07-.03-.18-.04-.27.02-.07.04-.14.04-.21,0-.07-.03-.18-.04-.27.02-.07.04-.14.04-.21,0-.07-.03-.18-.04-.27.02-.07.04-.14.04-.21,0-.07-.03-.18-.04-.27.02-.07.04-.14.04-.21,0-.07-.03-.18-.04-.27.02-.07.04-.14.04-.21,0-.07-.03-.18-.04-.27.02-.07.04-.14.04-.21,0-.07-.03-.18-.04-.27.02-.07.04-.14.04-.21,0-.07-.03-.18-.04-.27.02-.07.04-.14.04-.21,0-.07-.03-.18-.04-.27.02-.07.04-.14.04-.21,0-.07-.03-.18-.04-.27.02-.07.04-.14.04-.21,0-.07-.03-.18-.04-.27.02-.07.04-.14.04-.21,0-.07-.03-.18-.04-.27.01-.04.02-.09.02-.13.56-.59.82-1.36.76-2.31,0-.15,0-.31,0-.48,0-.15,0-.31,0-.48,0-.15,0-.31,0-.48,0-.15,0-.31,0-.48,0-.15,0-.31,0-.48,0-.15,0-.31,0-.48,0-.15,0-.31,0-.48,0-.15,0-.31,0-.48,0-.15,0-.31,0-.48,0-.15,0-.31,0-.48,0-.15,0-.31,0-.48,0-.15,0-.31,0-.48,0-.15,0-.31,0-.48,0-.15,0-.31,0-.48,0-.15,0-.31,0-.48,0-.15,0-.31,0-.48,0-.15,0-.31,0-.48,0-.15,0-.31,0-.48,0-.15,0-.31,0-.48,0-.15,0-.31,0-.48.02-.29,0-.61-.05-.94v-5.53c.02-.17.01-.35,0-.54.01-.15.01-.31,0-.47.01-.15.01-.31,0-.48.01-.15.01-.31,0-.48.01-.15.01-.31,0-.48.01-.15.01-.31,0-.48.01-.15.01-.31,0-.48.01-.15.01-.31,0-.48.01-.15.01-.31,0-.48.01-.15.01-.31,0-.48.01-.15.01-.31,0-.48.01-.15.01-.31,0-.48.01-.15.01-.31,0-.48.01-.15.01-.31,0-.48.01-.15.01-.31,0-.48.01-.15.01-.31,0-.48.01-.15.01-.31,0-.48.01-.15.01-.31,0-.48.01-.15.01-.31,0-.48.01-.15.01-.31,0-.48.01-.15.01-.31,0-.48.05-.64-.1-1.39-.46-2.25,2.28-3,3.42-6.34,3.42-10.02l-.02-.08c0-.13.02-.26.02-.39l-.02-.08c0-.13.02-.26.02-.39l-.02-.08c0-.13.02-.26.02-.39l-.02-.08c0-.13.02-.26.02-.39l-.02-.08c0-.13.02-.26.02-.39l-.02-.08c0-.13.02-.26.02-.39l-.02-.08c0-.13.02-.26.02-.39l-.02-.08c0-.13.02-.26.02-.39l-.02-.08c0-.13.02-.26.02-.39l-.02-.08c0-.13.02-.26.02-.39l-.02-.08c0-.13.02-.26.02-.39l-.02-.08c0-.13.02-.26.02-.39l-.02-.08c0-.13.02-.26.02-.39v-.07c1.06-1.65,3.16-4.55,6.28-8.74,2.33-3.14,4.65-6.28,6.98-9.42,0-.09-.03-.22-.08-.37.03-.04.05-.07.08-.11,0-.09-.03-.22-.08-.37.03-.04.05-.07.08-.11,0-.09-.03-.22-.08-.37.03-.04.05-.07.08-.11,0-.09-.03-.22-.08-.37.03-.04.05-.07.08-.11,0-.09-.03-.22-.08-.37.03-.04.05-.07.08-.11,0-.09-.03-.22-.08-.37.03-.04.05-.07.08-.11,0-.09-.03-.22-.08-.37.03-.04.05-.07.08-.11,0-.09-.03-.22-.08-.37.03-.04.05-.07.08-.11,0-.09-.03-.22-.08-.37.03-.04.05-.07.08-.11,0-.09-.03-.22-.08-.37.03-.04.05-.07.08-.11,0-.09-.03-.22-.08-.37.03-.04.05-.07.08-.11,0-.09-.03-.22-.08-.37.03-.04.05-.07.08-.11,0-.09-.03-.22-.08-.37.03-.04.05-.07.08-.11,0-.09-.03-.22-.08-.37.03-.04.05-.07.08-.11,0-.09-.03-.22-.08-.37.03-.04.05-.07.08-.11,0-.09-.03-.22-.08-.37.03-.04.05-.07.08-.11,0-.09-.03-.22-.08-.37.03-.04.05-.07.08-.11,0-.09-.03-.22-.08-.37.03-.04.05-.07.08-.11,0-.09-.03-.22-.08-.37.03-.04.05-.07.08-.11,0-.09-.03-.22-.08-.37.03-.04.05-.07.08-.11,0-.09-.03-.22-.08-.37.03-.04.05-.07.08-.11,0-.35-.35-1.1-1.05-2.27-.81-1.05-1.22-1.8-1.22-2.27-.12-.46-2.09-1.57-5.93-3.32-2.79-1.28-4.42-2.27-4.89-2.97-.03-.03-.05-.07-.08-.11.28-.37.59-.73.95-1.06,2.44-2.33,3.96-4.01,4.54-5.06.7-1.28,2.97-2.5,6.81-3.66,3.37-1.16,5.06-2.33,5.06-3.49l-.03-.32c0-.05.03-.11.03-.16l-.03-.32c0-.05.03-.11.03-.16l-.03-.32c0-.05.03-.11.03-.16l-.03-.32c0-.05.03-.11.03-.16l-.03-.32c0-.05.03-.11.03-.16l-.03-.32c0-.05.03-.11.03-.16l-.03-.32c0-.05.03-.11.03-.16l-.03-.32c0-.05.03-.11.03-.16l-.03-.32c0-.05.03-.11.03-.16l-.03-.32c0-.05.03-.11.03-.16l-.03-.32c0-.05.03-.11.03-.16l-.03-.32c0-.05.03-.11.03-.16l-.03-.32c0-.05.03-.11.03-.16l-.03-.32c0-.05.03-.11.03-.16l-.03-.32c0-.05.03-.11.03-.16l-.03-.32c0-.05.03-.11.03-.16l-.03-.32c0-.05.03-.11.03-.16l-.03-.32c0-.05.03-.11.03-.16l-.03-.32c0-.05.03-.11.03-.16l-.03-.32c0-.05.03-.11.03-.16l-.03-.32ZM13.5,152.27c-.33.15-.64.23-.94.23-.34,0-.7-.02-1.04-.03.57-.06,1.23-.12,1.98-.2Z"/>
  <path class="st0" d="M213.05,20.59c.7-1.28,2.97-2.5,6.81-3.66,3.37-1.16,5.06-2.33,5.06-3.49l-.35-3.84c-.33-.99-.68-1.92-1.05-2.79-.18-.43-.41-.84-.7-1.22-1.01-1.98-2.34-2.97-4.01-2.97l-8.2.87c-2.79,0-4.71-.58-5.76-1.75C203.69.58,202.7,0,201.88,0c-2.56,0-3.9,1.22-4.01,3.66,0,2.44-.87,3.66-2.62,3.66-1.05,0-1.98-.17-2.79-.52-.7-.35-1.63-.52-2.79-.52-1.05,0-2.79.58-5.23,1.74-2.44,1.16-4.13,1.74-5.06,1.74-1.63,0-2.97-.35-4.01-1.05-1.16-.7-2.21-1.05-3.14-1.05-.7,0-2.15,1.34-4.36,4.01-2.21,2.68-4.07,4.01-5.58,4.01-5-.81-7.97-1.22-8.9-1.22-1.86,0-2.97.12-3.32.35.58,1.51.87,2.38.87,2.62,0,1.16-1.98,2.97-5.93,5.41-3.01,1.84-5.33,3.23-6.98,4.19-3.89,2.09-5.98,3.14-6.28,3.14-6.28,0-10.24,1.86-11.87,5.58-1.63,3.61-3.72,5.41-6.28,5.41-.93-.93-1.8-1.4-2.62-1.4-1.4,0-3.78,1.05-7.15,3.14-3.37,2.09-5.47,3.14-6.28,3.14s-2.33-.41-4.54-1.22c-2.09-.81-3.26-1.22-3.49-1.22-2.56,0-3.84,1.51-3.84,4.54.12,2.91-.81,4.36-2.79,4.36-1.28,0-1.86-.93-1.74-2.79.12-1.98-.35-3.14-1.4-3.49-1.63-.58-2.97-1.51-4.01-2.79-.93-1.05-2.27-1.57-4.01-1.57-1.28,0-2.44,1.63-3.49,4.89-.93,3.02-1.28,5.35-1.05,6.98.12,1.28-1.11,2.62-3.66,4.01-3.26,1.63-5.18,2.85-5.76,3.66l-2.97,11.87c-1.51,6.51-4.07,9.77-7.68,9.77-3.72-1.4-6.22-2.09-7.5-2.09l-8.72.7c-3.95,0-6.81-.58-8.55-1.74-2.76-1.89-4.85-3.29-6.28-4.19-1.65,2.03-3.63,3.48-5.93,4.36l-5.06,1.92c0,.93.7,2.27,2.09,4.01,1.28,1.86,1.92,3.55,1.92,5.06,0,1.63-.41,2.85-1.22,3.66-1.4,1.28-2.5,2.73-3.32,4.36-.93,1.75-1.4,3.49-1.4,5.23,0,.93.06,2.44.17,4.54,0,2.21-.17,5.99-.52,11.34-.12,3.02-.58,5.35-1.4,6.98-.93,1.51-1.4,3.14-1.4,4.89,0,.7,1.45,2.56,4.36,5.58,2.91,3.14,4.36,4.83,4.36,5.06.23,0,2.04-.17,5.41-.52,3.14,0,4.71.7,4.71,2.09,0,.93-.7,2.5-2.09,4.71-1.63,2.33-3.02,3.49-4.19,3.49-2.08,0-4.29-.12-6.63-.35.96,2.54,1.84,5.21,2.62,8.03,1.28,4.42,1.92,7.91,1.92,10.47,0,1.05-.41,1.92-1.22,2.62-.93.7-1.4,2.04-1.4,4.01,0,1.74.47,4.01,1.4,6.81.81,2.91,1.22,4.65,1.22,5.23l-2.97,7.85c-1.98,5.47-2.97,8.9-2.97,10.29,0,1.28.58,1.92,1.74,1.92.58,0,1.57-.12,2.97-.35.58,0,1.86,1.28,3.84,3.84,1.98,2.56,3.84,3.84,5.58,3.84,1.16,0,2.33-.81,3.49-2.44,1.51-1.98,2.38-3.02,2.62-3.14.12-.12,1.45-.35,4.01-.7,1.51-.23,1.98-1.22,1.4-2.97,1.86.12,3.43,1.98,4.71,5.58,0,.23-.06.52-.17.87.62-.14,1.26-.31,1.92-.52,1.28-.47,2.38-.7,3.32-.7,1.4,0,2.73.76,4.01,2.27,1.4,1.51,2.79,2.38,4.19,2.62.7.12,2.27.12,4.71,0,2.09,0,3.84.12,5.24.35,3.95.7,5.93,4.54,5.93,11.52,0,1.4-1.16,2.85-3.49,4.36s-3.49,2.5-3.49,2.97c0,1.05,1.51,2.97,4.54,5.76,2.68,2.68,3.66,5.64,2.97,8.9-.58,2.33.17,4.48,2.27,6.46,1.98,1.98,4.36,2.79,7.15,2.44,6.98-1.05,13.38-.99,19.19.17,2.25.45,4.56,1.11,6.93,1.97,7.11,1.59,14.48,2.91,18.82,7.26,3.4,4.08,4.95,8.61,8.11,12.67,1.49-1.25,2.26-1.99,2.26-2.18,0-2.72-.58-5.28-1.74-7.68,1.06-.5,2.05-1.02,2.97-1.57,3.95-2.44,5.93-4.71,5.93-6.81,0-.58-.47-1.45-1.4-2.62-1.05-1.16-1.57-2.21-1.57-3.14,0-.58.81-1.57,2.44-2.97,1.51-1.4,2.27-2.68,2.27-3.84-.47-1.51-.7-2.56-.7-3.14,0-1.74,1.92-3.02,5.76-3.84,1.86-.35,3.84-.58,5.93-.7,2.09,0,4.25.35,6.46,1.05,2.21.58,3.78.87,4.71.87,1.86,0,3.9-2.09,6.11-6.28,1.98-3.72,2.97-6.28,2.97-7.68,0-.35-.35-1.57-1.05-3.66-.81-2.21-1.4-3.61-1.75-4.19v-1.92h2.44l4.89,1.74c1.28,0,2.38-.81,3.32-2.44,1.16-2.09,2.09-3.37,2.79-3.84,4.07-2.56,6.22-3.95,6.46-4.19,1.39-1.5,2.38-4.53,2.97-9.07.6-4.57,1.18-7.94,1.75-10.12.68-2.06,1.44-4.74,2.27-8.03.82-3.15,1.23-5.25,1.22-6.28,0-.81-1.22-3.08-3.66-6.81,0-1.05.35-2.09,1.05-3.14.7-.93,1.05-1.98,1.05-3.14,0-1.05-1.69-2.33-5.06-3.84-3.49-1.63-5.23-3.2-5.23-4.71,0-1.86.99-3.14,2.97-3.84,2.44-1.05,4.01-2.04,4.71-2.97.81-1.4,1.34-3.08,1.57-5.06.23-2.44.58-4.3,1.05-5.58.7-4.42,1.51-8.03,2.44-10.82.23-.81,1.69-2.15,4.36-4.01,2.56-1.74,3.84-3.02,3.84-3.84,0-.58-.41-1.63-1.22-3.14-.93-1.51-1.4-2.62-1.4-3.32,0-.93.64-1.74,1.92-2.44,1.16-.7,1.63-1.8,1.4-3.32v-15.53c.12-1.28-.58-3.02-2.09-5.23-1.4-2.09-2.09-3.2-2.09-3.32s1.22-1.34,3.66-3.66c2.33-3.03,3.49-6.4,3.49-10.12l-.87-4.71c0-.47,2.38-3.9,7.15-10.3,2.33-3.14,4.65-6.28,6.98-9.42,0-.35-.35-1.1-1.05-2.27-.81-1.05-1.22-1.8-1.22-2.27-.12-.46-2.09-1.57-5.93-3.32-2.79-1.28-4.42-2.27-4.89-2.97-.93-1.05-1.4-3.02-1.4-5.93,0-2.09.76-3.84,2.27-5.23,2.44-2.33,3.96-4.01,4.54-5.06Z"/>
</svg>